<?xml version="1.0" encoding="UTF-8"?>
<svg width="20px" height="20px" viewBox="0 0 20 20" version="1.1" xmlns="http://www.w3.org/2000/svg" xmlns:xlink="http://www.w3.org/1999/xlink">
    <!-- Generator: sketchtool 52.6 (67491) - http://www.bohemiancoding.com/sketch -->
    <title>EA519483-EA82-41E2-99BA-9876C40BF09A</title>
    <desc>Created with sketchtool.</desc>
    <g id="MVP" stroke="none" stroke-width="1" fill="none" fill-rule="evenodd">
        <g id="1.2-Summary---Dropdown" transform="translate(-990.000000, -128.000000)">
            <g id="1.1-Summary---Zero-State">
                <g id="0.0-Base-View">
                    <g id="Date-Range" transform="translate(640.000000, 100.000000)">
                        <g id="Icon" transform="translate(348.000000, 26.000000)">
                            <rect id="Container" x="0" y="0" width="24" height="24"></rect>
                            <g id="Calendar" transform="translate(3.000000, 3.000000)" stroke="#0A9CDF" stroke-width="1.6875">
                                <path d="M1.44218542,2.25 L16.5578146,2.25 C17.0592939,2.25 17.2411424,2.30221441 17.4244757,2.40026215 C17.607809,2.49830989 17.7516901,2.64219096 17.8497379,2.82552429 C17.9477856,3.00885763 18,3.19070613 18,3.69218542 L18,16.5578146 C18,17.0592939 17.9477856,17.2411424 17.8497379,17.4244757 C17.7516901,17.607809 17.607809,17.7516901 17.4244757,17.8497379 C17.2411424,17.9477856 17.0592939,18 16.5578146,18 L1.44218542,18 C0.940706134,18 0.758857625,17.9477856 0.575524292,17.8497379 C0.392190958,17.7516901 0.248309885,17.607809 0.150262146,17.4244757 C0.0522144063,17.2411424 2.25694893e-17,17.0592939 -3.88440115e-17,16.5578146 L3.88440115e-17,3.69218542 C-2.25694893e-17,3.19070613 0.0522144063,3.00885763 0.150262146,2.82552429 C0.248309885,2.64219096 0.392190958,2.49830989 0.575524292,2.40026215 C0.758857625,2.30221441 0.940706134,2.25 1.44218542,2.25 Z" id="Rectangle"></path>
                                <path d="M0.5,7.3125 L17.5100098,7.3125" id="Line-7" stroke-linecap="square"></path>
                                <path d="M5.36835937,0.45 L5.36835937,3.63581543" id="Line" stroke-linecap="round"></path>
                                <path d="M12.8683594,0.45 L12.8683594,3.63581543" id="Line-Copy" stroke-linecap="round"></path>
                                <path d="M2.8125,10.6875 L4.59324646,10.6875" id="Line-8" stroke-linecap="round"></path>
                                <path d="M2.8125,14.0625 L4.59324646,14.0625" id="Line-8-Copy-3" stroke-linecap="round"></path>
                                <path d="M8.4375,10.6875 L10.2182465,10.6875" id="Line-8-Copy" stroke-linecap="round"></path>
                                <path d="M8.4375,14.0625 L10.2182465,14.0625" id="Line-8-Copy-4" stroke-linecap="round"></path>
                                <path d="M14.0625,10.6875 L15.8432465,10.6875" id="Line-8-Copy-2" stroke-linecap="round"></path>
                                <path d="M14.0625,14.0625 L15.8432465,14.0625" id="Line-8-Copy-5" stroke-linecap="round"></path>
                            </g>
                        </g>
                    </g>
                </g>
            </g>
        </g>
    </g>
</svg>