<svg xmlns="http://www.w3.org/2000/svg" xmlns:xlink="http://www.w3.org/1999/xlink" width="350" height="350" viewBox="0 0 350 350">
  <defs>
    <path id="3-new-a" d="M22.9542613,5.37981941 C23.1472579,4.8237193 24.4626236,3.10079484 22.1199901,1.45936079 C21.6990125,1.16439061 21.003556,1.45839337 20.400984,1.27221757 C19.9476025,1.13213696 19.7947543,0.499618358 19.2750417,0.389271718 C18.7358859,0.274796842 18.1485064,0.793633054 17.5391404,0.748038325 C17.1657574,0.720100603 16.5896476,0.138220431 16.2009372,0.106878064 C15.5070233,0.0509266274 14.8766423,0.705913219 14.1989413,0.748038325 C13.8060582,0.772459478 13.350231,0.140319886 12.9603024,0.106878064 C12.0112737,0.0254856078 11.1469428,0.467915847 10.3106468,0.60208995 C9.53987974,0.725750674 9.18147834,2.30526942 8.61372826,2.67857143 C6.83210752,3.85000694 5.43621634,4.17754817 3.99049286,5.37981941 C2.27189475,6.80906096 1.94296697,7.87239116 1.23099499,8.82478391 C0.519023008,9.77717666 0.0792395798,13.1327141 0.494439661,15.2832083 C0.739357114,16.5517379 1.37761085,20.016121 2.80343226,21.3574157 C4.75499944,23.1932884 8.72532468,23.7372348 9.07777972,23.4922886 C10.7100987,22.3578737 14.3691491,16.08342 16.9642857,13.8659048 C18.8726172,12.2352569 21.7586739,8.82478391 22.9542613,5.37981941 Z"/>
  </defs>
  <g fill="none" fill-rule="evenodd">
    <g opacity=".5" transform="translate(238 118)">
      <path fill="#39CB76" d="M64.647027,40.3693543 C66.1713426,38.1988255 69.0000362,32.6863948 71.1454819,31.9107997 C72.5273473,31.4112448 72.1244449,36.578758 72.1415101,37.5640894 C72.207967,41.3761814 71.8363402,45.1641017 71.3774112,48.9441878 C70.5506051,55.7615575 67.8470214,61.8329434 64.1388561,67.6352264 C62.2307128,70.6208541 59.9926121,73.6426839 56.8927379,75.5055725 C55.4658629,76.3634704 53.7489738,76.507111 52.3398451,77.2462598 C50.698709,78.1067256 51.5924685,77.4111294 50.8528643,79.1189472 C49.8257674,81.4900238 49.4972433,84.5489655 49.0220217,87.0789886 C46.8400371,98.6931697 41.5574934,160.088759 42.4732839,171.902601 C42.5546208,172.949728 41.0925458,173.200133 41.0195582,171.921809 C40.6316164,165.143782 43.9885654,118.206045 45.6822031,102.856055 C47.3758408,87.5060652 49.0897248,73.9451171 50.8082332,68.6345012 C52.8930398,62.1915955 56.6583201,54.4435039 59.792653,48.4352155 C61.248527,45.6439003 62.8354584,42.9487443 64.647027,40.3693543 Z"/>
      <path fill="#39CB76" d="M75.9610293,115.654296 C79.9275074,112.74623 84.220922,118.234617 80.631668,121.143129 C78.6474432,122.750778 76.5730522,122.178893 75.4052265,120.839154 C74.6471214,121.761986 73.9375607,122.726897 73.255765,123.541911 C71.1785077,126.025414 69.2151856,128.568193 67.3388187,131.170261 C63.4409564,136.575994 60.1005588,142.287036 56.6079354,147.893647 C53.1611728,153.427067 49.7419708,158.988829 46.6178716,164.662443 C43.971316,169.469369 40.4437938,175.124333 39.5376956,180.394144 C40.9124868,169.217786 46.1291965,158.475328 52.3413878,148.622512 C58.5030302,138.850636 65.5742307,128.178664 75.1147392,120.466913 C74.1437489,119.040952 74.1167941,117.0055 75.9610293,115.654296 Z"/>
      <path fill="#39CB76" d="M0.693976009,88.3970313 C2.91361644,88.8305291 6.5404839,93.8448644 8.37012951,95.7553651 C10.5445404,98.0257274 12.5172706,100.44561 14.3768011,102.981046 C18.3799893,108.438465 21.9601376,114.240835 25.0044815,120.291691 C29.9675591,130.155796 33.9436297,140.281642 36.8292342,151.023101 C38.5956174,157.598336 39.7392774,164.413311 40.4170718,171.180695 C40.5450762,172.456983 41.8850015,182.296923 39.9542512,182.562136 C38.2177448,182.800945 38.7540868,175.090468 38.6703129,174.041654 C37.7233404,162.209062 34.886479,150.69605 30.9404308,139.543239 C30.080925,137.113705 29.2824137,134.13796 27.907861,131.951614 C26.9179905,130.376823 27.9007623,130.926004 26.1611951,130.330021 C24.6674994,129.81797 22.9656458,129.943093 21.4360676,129.316299 C18.1132102,127.955472 15.4525546,125.313703 13.1203079,122.656394 C8.58793495,117.492146 4.99625997,111.905238 3.12407156,105.288017 C2.08551085,101.618984 1.13112658,97.9286089 0.601501911,94.1461218 C0.464497232,93.16846 -0.735677642,88.1178185 0.693976009,88.3970313 Z"/>
      <path fill="#39CB76" d="M9.45326821,4.96845749 C17.8141941,19.4486663 24.6848604,35.3547961 29.1212992,51.4652999 C31.8092516,61.2264798 33.6890174,71.2428845 35.5567144,81.1869345 C38.4485063,96.584056 41.1838098,111.97999 41.9618741,127.65061 C42.7446567,143.412046 44.2925566,161.59101 39.1244847,176.771772 C41.7059625,161.359174 39.2482204,144.953663 38.8130541,129.445411 C38.6050985,122.042023 38.0024819,114.711016 37.2119616,107.350889 C36.4448404,100.21117 35.1915814,93.1054498 34.0245148,86.0218495 C33.456015,82.5720081 32.8589622,79.1273574 32.2510796,75.6845908 C32.0696057,74.6574372 31.9929473,71.609514 31.3404933,70.9078201 C30.6838138,70.201506 27.3333479,69.9135657 26.2814568,69.3953146 C24.1633094,68.3514935 22.1709059,66.8688212 20.407577,65.3021881 C17.0272526,62.298992 14.0865404,58.3749514 11.7654951,54.5067396 C6.3951982,45.5563062 4.24815613,34.6335182 4.35667632,24.2677775 C4.37752708,22.255219 7.61858675,0.583184317 6.31692506,0.284742472 C6.39529613,0.193083089 6.46942917,0.098442019 6.53933041,0 C7.52479985,1.64773914 8.49183089,3.30664479 9.45326821,4.96845749 Z"/>
      <path fill="#39CB76" d="M99.695265,57.1926548 C99.8242711,57.0068333 100.663897,55.7144998 100.241088,55.7970919 C101.101942,55.6289315 99.0570364,57.2223981 101.201991,56.2446543 C100.183552,57.2051954 100.771326,58.4529534 100.78492,59.7457364 C100.807097,61.8446418 100.45544,63.9263357 100.05959,65.9802066 C99.4340858,69.2267497 98.5022526,72.3833384 97.1497138,75.4030135 C94.2018133,81.9835723 89.1961273,88.3185626 83.2534476,92.4326801 C80.3197111,94.463985 77.4445187,95.1555694 74.0985905,96.0907055 C71.9851605,96.6814922 71.8175622,97.7732492 70.6957484,99.8213035 C68.3602166,104.086963 66.066278,108.337278 64.0065462,112.746861 C61.5470898,118.012367 59.1595508,123.283676 56.9074085,128.641875 C49.3203451,146.690681 43.1451793,165.389514 39.9021709,184.740991 C39.8227684,173.337225 42.4644406,161.592321 45.7966545,150.722635 C48.2239719,142.803229 51.3838832,135.16916 54.7542373,127.612374 C55.5709423,125.781654 56.8085847,123.426727 57.1554128,121.405533 C57.3982619,119.989384 56.6558004,118.627464 56.3158604,117.13566 C54.9905863,111.326302 55.0854406,104.817948 56.2492282,98.9775271 C57.5323934,92.5373549 61.2432476,89.5482524 67.5206369,88.6360436 C69.8164038,88.3023669 72.7343827,88.4246616 74.8394878,87.4471223 C77.1329684,86.3826138 78.0790637,82.8835881 79.3832207,80.6374885 C82.886142,74.6039909 87.0481196,68.8174981 91.8272194,63.7337758 C93.1505068,62.3260284 94.5735792,61.0272859 96.0833,59.823511 C97.035329,59.063996 99.0464631,58.1282745 99.695265,57.1926548 Z"/>
      <path fill="#FDA803" d="M29.3015807,172.424925 L51.5874663,172.424925 C52.5870164,172.424925 53.3973118,173.23522 53.3973118,174.23477 C53.3973118,174.323261 53.3908219,174.411632 53.3778942,174.499173 L51.6549559,186.166202 C51.1305297,189.717402 48.0829572,192.347973 44.4932444,192.347973 L36.3958026,192.347973 C32.8060897,192.347973 29.7585173,189.717402 29.234091,186.166202 L27.5111528,174.499173 C27.3651271,173.510347 28.0483517,172.590368 29.0371778,172.444343 C29.1247188,172.431415 29.2130902,172.424925 29.3015807,172.424925 Z"/>
    </g>
    <g fill="#39CB76" fill-rule="nonzero" opacity=".5" transform="translate(19 8)">
      <path d="M121.889242 72.1707359C120.823161 72.1707359 119.75708 71.7475586 118.943278 70.9012044L85.8439125 36.4757488C84.2163083 34.7830405 84.2163083 32.040853 85.8439125 30.3481447 87.4715167 28.6554363 90.1082354 28.6554363 91.7358396 30.3481447L124.835205 64.7736002C126.462809 66.4663086 126.462809 69.2084961 124.835205 70.9012044 124.021403 71.7475586 122.955322 72.1707359 121.889242 72.1707359zM137.188721 72.1707359C136.12264 72.1707359 135.056559 71.7475586 134.242757 70.9012044 132.615153 69.2084961 132.615153 66.4663086 134.242757 64.7736002L172.344971 25.1472979C173.972575 23.4545896 176.609294 23.4545896 178.236898 25.1472979 179.864502 26.8400063 179.864502 29.5821938 178.236898 31.2749021L140.134684 70.9012044C139.320882 71.7475586 138.254801 72.1707359 137.188721 72.1707359zM23.3622233 82.724772C22.2941079 82.724772 21.2280275 82.3015947 20.4142254 81.4552405 18.7886558 79.7625322 18.7886558 77.0161128 20.4182946 75.3276364L63.7166342 30.3481447C65.3422037 28.6554363 67.9829917 28.6554363 69.6085612 30.3481447 71.2341308 32.040853 71.2341308 34.7872724 69.6044921 36.4757488L26.3061525 81.455241C25.4943846 82.3015951 24.4283042 82.724772 23.3622233 82.724772z"/>
      <path d="M77.7242025 42.4975586C72.4202475 42.4975586 67.4458821 40.3605141 63.712565 36.4757488 60.0341796 32.650228 57.9223633 27.3393558 57.9223633 21.9057618 57.9223633 10.5476887 66.8050129 1.3097331 77.7242025 1.3097331 88.6433921 1.3097331 97.5280763 10.5476887 97.5280763 21.9057618 97.5280763 27.2758789 95.4264325 32.5782877 91.7602542 36.4503581 88.0045575 40.3605141 83.0281575 42.4975586 77.7242025 42.4975586zM129.538981 91.3829752C121.272787 91.3829752 114.546713 84.3878581 114.546713 75.7931313 114.546713 71.6333007 116.109213 67.7189123 118.945313 64.7735998 124.601238 58.8745114 134.458415 58.8745114 140.134685 64.7735998 142.96875 67.7146804 144.529216 71.6290688 144.529216 75.7931313 144.529215 84.3878581 137.805176 91.3829752 129.538981 91.3829752zM15.4235842 102.690267C6.91935208 102.690267 0 95.4920248 0 86.6476238 0 77.8032229 6.91935208 70.6092123 15.4235842 70.6092123 19.5841475 70.6092123 23.4619142 72.2976887 26.3427738 75.361491 29.2236333 78.2898766 30.8471683 82.3227539 30.8471683 86.6476238 30.8471679 95.4920248 23.9278158 102.690267 15.4235842 102.690267zM183.805339 36.1964516C179.532878 36.1964516 175.47404 34.4614257 172.375488 31.3087563 169.335938 28.1476234 167.610677 23.8015947 167.610677 19.3540035 167.610677 10.0652665 174.875895 2.51155537 183.805339 2.51155537 192.734783 2.51155537 200 10.0652669 200 19.3540039 200 28.642741 192.734782 36.1964516 183.805339 36.1964516z"/>
    </g>
    <g transform="translate(101 63)">
      <g transform="translate(8 8)">
        <rect width="184.235" height="152.439" x=".402" y=".402" fill="#F4F4F4" stroke="#D5D9DE" stroke-width=".805"/>
        <rect width="6.44" height="6.436" x="17" y="105" fill="#D2D2D2"/>
        <rect width="119" height="3.436" x="26" y="107" fill="#D2D2D2"/>
        <rect width="119" height="3.436" x="26" y="118" fill="#D2D2D2"/>
        <rect width="119" height="3.436" x="26" y="130" fill="#D2D2D2"/>
        <rect width="6.44" height="6.436" x="17" y="116" fill="#D2D2D2"/>
        <rect width="6.44" height="6.436" x="17" y="128" fill="#D2D2D2"/>
        <text fill="#9B9B9B" font-family="Roboto-Regular, Roboto" font-size="5">
          <tspan x="17" y="38">Please read each statement below and indicate what frequency </tspan> <tspan x="17" y="45">best describes how often you do this. As you think about each </tspan> <tspan x="17" y="52">statement, please do not try to look for a “right” answer—we want </tspan> <tspan x="17" y="59">to know what you think.</tspan> <tspan x="17" y="73">Use the following rating scale: </tspan> <tspan x="17" y="80">1=Rarely, 2=About Once a Month, 3=About Once a Week, 4=A Few </tspan> <tspan x="17" y="87">Times a Week, </tspan> <tspan x="17" y="94">5= Every day</tspan>
        </text>
        <text fill="#494949" font-family="Roboto-Regular, Roboto" font-size="8">
          <tspan x="35" y="20">Six-months after Parenting Class</tspan>
        </text>
      </g>
      <rect width="184.235" height="152.439" x=".402" y=".402" fill="#F4F4F4" stroke="#D5D9DE" stroke-width=".805"/>
      <rect width="6.44" height="6.436" x="17" y="105" fill="#D2D2D2"/>
      <rect width="119" height="3.436" x="26" y="107" fill="#D2D2D2"/>
      <rect width="119" height="3.436" x="26" y="118" fill="#D2D2D2"/>
      <rect width="119" height="3.436" x="26" y="130" fill="#D2D2D2"/>
      <rect width="6.44" height="6.436" x="17" y="116" fill="#D2D2D2"/>
      <rect width="6.44" height="6.436" x="17" y="128" fill="#D2D2D2"/>
      <text fill="#9B9B9B" font-family="Roboto-Regular, Roboto" font-size="5">
        <tspan x="17" y="38">Please read each statement below and indicate what frequency </tspan> <tspan x="17" y="45">best describes how often you do this. As you think about each </tspan> <tspan x="17" y="52">statement, please do not try to look for a “right” answer—we want </tspan> <tspan x="17" y="59">to know what you think.</tspan> <tspan x="17" y="73">Use the following rating scale: </tspan> <tspan x="17" y="80">1=Rarely, 2=About Once a Month, 3=About Once a Week, 4=A Few </tspan> <tspan x="17" y="87">Times a Week, </tspan> <tspan x="17" y="94">5= Every day</tspan>
      </text>
      <text fill="#494949" font-family="Roboto-Regular, Roboto" font-size="8">
        <tspan x="35" y="20">Six-months after Parenting Class</tspan>
      </text>
    </g>
    <g transform="translate(-11 121)">
      <g transform="translate(36.627)">
        <path fill="#B28B67" d="M3.68851513,15.397378 C1.63141266,12.9827571 0.239122676,10.0236059 0.471775149,6.70779191 C1.14211171,-2.84599133 14.4413083,-0.74428074 17.0282774,4.07764862 C19.6152465,8.89957799 19.3078473,21.1308017 15.9644203,21.992615 C14.6310665,22.3363048 11.7906271,21.4944027 8.89972203,19.7519238 L10.7142857,32.5892857 L0,32.5892857 L3.68851513,15.397378 Z" transform="translate(24.107 13.84)"/>
        <g transform="translate(17.857 9.821)">
          <mask id="3-new-b" fill="#fff">
            <use xlink:href="#3-new-a"/>
          </mask>
          <use fill="#9DA0A2" xlink:href="#3-new-a"/>
          <path fill="#000" fill-opacity=".2" d="M9.80158802,18.6795114 C10.9737416,16.0836308 12.4809822,12.7525317 13.8442891,9.33558916 C14.8218975,6.88534741 15.8618963,3.74770306 16.9642857,-0.0773438872 L18.2910591,-0.0773438872 C16.2009035,5.87948966 14.628688,10.0393514 13.5744123,12.4022413 C11.8785371,16.2031132 10.6600122,19.0896059 9.6892348,21.0269071 C11.3155688,18.6429076 13.8168437,14.7541296 16.4833228,9.52471472 C17.4943119,7.54199466 18.6845067,4.50616545 20.0539072,0.417227063 L21.2887574,0.945491824 C19.2155276,6.12084678 17.613716,9.72989925 16.4833228,11.7726492 C12.7987444,18.4311041 9.28045017,22.4485554 8.05068059,23.5887481 C7.83789677,23.7860326 7.76676048,23.831973 7.81777279,23.7310788 C7.80086803,23.7284355 7.78846268,23.7182681 7.78038378,23.700811 C7.69386675,23.8316178 7.60778953,23.9462873 7.52165846,24.0447969 C6.28152742,25.4631562 9.45477972,17.5565122 11.7936682,9.2641213 C12.5098011,6.72511434 13.2161296,3.49594885 13.9126537,-0.423375164 L15.2321589,-0.562060748 C13.7761121,5.58062139 12.6473332,9.88203625 11.8458223,12.3421838 C11.0331255,14.836665 10.3710817,16.9499943 9.80158802,18.6795114 Z" mask="url(#3-new-b)"/>
        </g>
      </g>
      <g transform="translate(0 83.404)">
        <polygon fill="#6E7276" points="57.143 0 73.328 56.798 85.137 98.661 93.75 98.661 81.201 0"/>
        <path fill="#9DA0A2" d="M52.8144384,0 C52.4400752,29.2742073 51.1635033,45.2411555 50.7704372,47.9008445 C50.3773711,50.5605335 44.4340053,67.4804901 32.9403399,98.6607143 L41.8627887,98.6607143 C56.4951041,68.7486168 64.663237,51.8286602 66.3671872,47.9008445 C68.0711374,43.9730287 73.3296941,28.0060806 81.25,0 L52.8144384,0 Z"/>
        <path fill="#191847" d="M0,17.8571429 L0.446428571,8.48214286 L9.82142857,8.48214286 C14.2667872,11.6071429 20.0703586,14.1369048 27.2321429,16.0714286 L27.2321429,17.8571429 L10.2678571,17.8571429 L4.46428571,16.9642857 L4.46428571,17.8571429 L0,17.8571429 Z" transform="translate(32.143 88.84)"/>
        <path fill="#191847" d="M0,17.8571429 L0.446428571,8.48214286 L9.82142857,8.48214286 C14.2667872,11.6071429 20.0703586,14.1369048 27.2321429,16.0714286 L27.2321429,17.8571429 L10.2678571,17.8571429 L4.46428571,16.9642857 L4.46428571,17.8571429 L0,17.8571429 Z" transform="translate(83.929 88.84)"/>
      </g>
      <g transform="translate(9.827 36.573)">
        <path fill="#997659" d="M70.8205533,19.0626039 L86.3159916,10.5758133 C88.8927881,7.51585814 91.4316504,5.13937422 93.9325785,3.44636155 C94.6967816,3.12731925 96.0331794,2.93421206 94.7833935,5.15245848 C93.5336077,7.3707049 92.3187833,9.76017474 92.9554999,10.4435685 C93.5922166,11.1269622 95.1799267,10.1722913 95.93952,11.3077557 C96.4459156,12.064732 93.7334385,13.2605415 87.8020888,14.8951841 L76.5427644,25.2043045 L70.8205533,19.0626039 Z M95.0892857,26.2231427 L101.895769,22.4840208 C102.850815,18.8499601 103.992456,17.0215413 105.320692,16.9987644 C106.341054,16.5240004 104.564101,21.1159754 106.498384,20.7177601 C108.432667,20.3195448 113.153699,16.8083432 113.967157,17.5212498 C115.170614,18.5759492 114.097537,21.8144875 112.833198,23.4254869 C110.470149,26.4364427 108.513647,27.4660987 103.677847,28.8144395 C101.149441,29.5194217 98.4157875,30.9324978 95.4768857,33.0536677 L95.0892857,26.2231427 Z"/>
        <path fill="#CA8602" d="M63.7758868,15.5135279 C69.1455346,16.3059447 76.4733432,16.3059447 84.867663,12.6723883 L86.8051101,19.8269229 C80.7168789,24.2149803 72.6396043,27.3332661 66.1998634,26.1270966 C61.1249927,25.1765685 59.4963057,18.5980112 63.7758868,15.5135279 Z" transform="rotate(-9 74.062 19.53)"/>
        <path fill="#FDA803" d="M70.5822622,28.0184081 C76.3442221,29.4554039 86.0066724,27.7607888 99.5696131,22.9345629 C102.933783,29.8944281 104.488954,34.8562782 104.235127,37.8201132 C92.6001238,43.897789 82.6279212,46.6075146 74.4121582,46.7863984 C74.6732406,51.6613259 74.0798742,56.2999317 72.0865772,60.5383778 C67.9886966,69.2519041 43.9933294,61.1822071 35.9253516,62.7705206 C30.8729467,46.3621965 40.6419245,39.6939199 40.6497847,29.1949177 C40.6583925,17.6973916 49.8903616,-1.42108547e-13 51.248661,-1.42108547e-13 L63.6356026,-2.72535043e-14 C64.3190627,8.78081217 67.7591074,18.458028 70.5822622,28.0184081 Z"/>
      </g>
    </g>
    <g fill="#F2F2F2" transform="translate(230 274)">
      <path d="M6.25042764,19.6442012 C6.25042764,28.2742408 6.93146137,35.2702703 16.0725282,35.2702703 C25.2135951,35.2702703 25.8946288,28.2742408 25.8946288,19.6442012"/>
      <path d="M18.7919258,14.2597972 C18.456859,14.8391372 18.158093,15.4300639 17.894195,16.0298617 C17.8848809,14.7946004 17.9531839,13.5502869 18.1397037,12.2889552 C18.4585307,10.1283794 18.9454882,7.97902828 19.4030706,5.83311699 C19.7319281,4.29098653 19.7111506,1.52101752 20.9592329,0.292092703 C21.3014645,0.0265015569 21.3838579,0.547545401 21.3838579,0.773669015 C21.3881567,0.821464559 21.3829027,-0.149291901 21.0507016,0.0198029391 C19.0761237,1.03962225 18.4363203,4.24626873 17.8041592,5.85176449 C16.8818297,8.19519449 16.0970615,10.5907651 15.7739358,13.0288809 C15.6922587,13.6447917 15.6478379,14.2605214 15.6375686,14.8751649 C15.5704596,14.7107772 15.5074107,14.5451221 15.4376748,14.3812776 C14.2980175,11.708348 12.7600057,9.10023207 10.8417896,6.69488513 C10.3696391,6.10305319 4.43276994,0.263306751 3.96802287,1.15711963 C4.01387664,1.28692798 4.10988297,1.394649 4.25628069,1.48028268 C4.26487827,1.49005904 4.26511709,1.48462773 4.26010183,1.47014423 C4.60878154,2.03337126 5.6001305,2.90328637 5.90892698,3.39681157 C6.68605286,4.63877153 7.29003299,5.95676986 7.90380481,7.2496031 C9.20060675,9.98173398 10.4035517,12.7413835 11.5697182,15.5068264 C11.8412585,16.15098 12.1242622,16.7915127 12.4129977,17.4300539 C9.4365626,13.136964 5.4659127,9.2394547 -1.42108547e-14,7.00827182 C1.86686938,7.95802721 3.09083069,9.74492878 4.35157055,11.1130762 C5.87214844,12.7632898 7.47368689,14.3691476 8.99713064,16.0175508 C10.7940253,17.9621414 12.9083139,20.009927 14.6366667,22.1618128 C16.310807,25.6765957 17.9376605,29.1951805 18.9419059,32.8899208 C18.530416,31.6133815 18.9096649,29.8492915 18.8392125,28.5095679 C18.7833282,27.4432203 18.6586633,26.3855629 18.4879058,25.3298969 C18.6990242,25.8060419 18.8810063,26.282549 18.9633998,26.725744 C18.888171,25.9823785 18.8014787,25.2437201 18.7083382,24.5088636 C18.9473988,23.8208975 19.1821605,23.1789164 19.3407381,22.6500877 C20.1534484,19.9373285 21.1211541,17.2712786 22.4389723,14.672758 C23.658396,12.2690404 25.0571748,9.89591925 26.581335,7.59521558 C27.2923073,6.5225315 28.0130712,5.45383038 28.7292976,4.38331883 C29.1981046,3.68249857 29.6444624,2.56038955 30.2971622,1.88889837 C26.0781377,5.746216 21.4686397,9.63141437 18.7919258,14.2597972"/>
    </g>
  </g>
</svg>
