<svg xmlns="http://www.w3.org/2000/svg" width="350" height="350" viewBox="0 0 350 350">
  <g fill="none" fill-rule="evenodd">
    <path fill="#997659" d="M253.41774,200.466233 L269.884069,206.869773 C273.8862,206.875334 277.339989,207.29102 280.245435,208.11683 C280.981236,208.496577 281.988291,209.395063 279.484409,209.864061 C276.980526,210.333058 274.367854,210.938822 274.253227,211.865116 C274.138599,212.791409 275.89102,213.392864 275.508812,214.703647 C275.254007,215.577502 272.593743,214.270354 267.52802,210.782204 L252.387578,208.790887 L253.41774,200.466233 Z" transform="scale(-1 1) rotate(15 0 -1818.334)"/>
    <path fill="#0983BB" d="M268.701254,168.830358 C279.934708,180.776007 293.638243,188.568725 312.329067,195.478412 L308.174785,203.770225 C288.888192,201.961126 278.57741,200.514395 270.498315,188.549153 C268.470626,185.54612 264.846827,175.212013 262.675601,169.845603 L268.701254,168.830358 Z" transform="scale(-1 1) rotate(15 0 -1997.497)"/>
    <g opacity=".5" transform="translate(20 112)">
      <path fill="#39CB76" d="M64.647027,40.3693543 C66.1713426,38.1988255 69.0000362,32.6863948 71.1454819,31.9107997 C72.5273473,31.4112448 72.1244449,36.578758 72.1415101,37.5640894 C72.207967,41.3761814 71.8363402,45.1641017 71.3774112,48.9441878 C70.5506051,55.7615575 67.8470214,61.8329434 64.1388561,67.6352264 C62.2307128,70.6208541 59.9926121,73.6426839 56.8927379,75.5055725 C55.4658629,76.3634704 53.7489738,76.507111 52.3398451,77.2462598 C50.698709,78.1067256 51.5924685,77.4111294 50.8528643,79.1189472 C49.8257674,81.4900238 49.4972433,84.5489655 49.0220217,87.0789886 C46.8400371,98.6931697 41.5574934,160.088759 42.4732839,171.902601 C42.5546208,172.949728 41.0925458,173.200133 41.0195582,171.921809 C40.6316164,165.143782 43.9885654,118.206045 45.6822031,102.856055 C47.3758408,87.5060652 49.0897248,73.9451171 50.8082332,68.6345012 C52.8930398,62.1915955 56.6583201,54.4435039 59.792653,48.4352155 C61.248527,45.6439003 62.8354584,42.9487443 64.647027,40.3693543 Z"/>
      <path fill="#39CB76" d="M75.9610293,115.654296 C79.9275074,112.74623 84.220922,118.234617 80.631668,121.143129 C78.6474432,122.750778 76.5730522,122.178893 75.4052265,120.839154 C74.6471214,121.761986 73.9375607,122.726897 73.255765,123.541911 C71.1785077,126.025414 69.2151856,128.568193 67.3388187,131.170261 C63.4409564,136.575994 60.1005588,142.287036 56.6079354,147.893647 C53.1611728,153.427067 49.7419708,158.988829 46.6178716,164.662443 C43.971316,169.469369 40.4437938,175.124333 39.5376956,180.394144 C40.9124868,169.217786 46.1291965,158.475328 52.3413878,148.622512 C58.5030302,138.850636 65.5742307,128.178664 75.1147392,120.466913 C74.1437489,119.040952 74.1167941,117.0055 75.9610293,115.654296 Z"/>
      <path fill="#39CB76" d="M0.693976009,88.3970313 C2.91361644,88.8305291 6.5404839,93.8448644 8.37012951,95.7553651 C10.5445404,98.0257274 12.5172706,100.44561 14.3768011,102.981046 C18.3799893,108.438465 21.9601376,114.240835 25.0044815,120.291691 C29.9675591,130.155796 33.9436297,140.281642 36.8292342,151.023101 C38.5956174,157.598336 39.7392774,164.413311 40.4170718,171.180695 C40.5450762,172.456983 41.8850015,182.296923 39.9542512,182.562136 C38.2177448,182.800945 38.7540868,175.090468 38.6703129,174.041654 C37.7233404,162.209062 34.886479,150.69605 30.9404308,139.543239 C30.080925,137.113705 29.2824137,134.13796 27.907861,131.951614 C26.9179905,130.376823 27.9007623,130.926004 26.1611951,130.330021 C24.6674994,129.81797 22.9656458,129.943093 21.4360676,129.316299 C18.1132102,127.955472 15.4525546,125.313703 13.1203079,122.656394 C8.58793495,117.492146 4.99625997,111.905238 3.12407156,105.288017 C2.08551085,101.618984 1.13112658,97.9286089 0.601501911,94.1461218 C0.464497232,93.16846 -0.735677642,88.1178185 0.693976009,88.3970313 Z"/>
      <path fill="#39CB76" d="M9.45326821,4.96845749 C17.8141941,19.4486663 24.6848604,35.3547961 29.1212992,51.4652999 C31.8092516,61.2264798 33.6890174,71.2428845 35.5567144,81.1869345 C38.4485063,96.584056 41.1838098,111.97999 41.9618741,127.65061 C42.7446567,143.412046 44.2925566,161.59101 39.1244847,176.771772 C41.7059625,161.359174 39.2482204,144.953663 38.8130541,129.445411 C38.6050985,122.042023 38.0024819,114.711016 37.2119616,107.350889 C36.4448404,100.21117 35.1915814,93.1054498 34.0245148,86.0218495 C33.456015,82.5720081 32.8589622,79.1273574 32.2510796,75.6845908 C32.0696057,74.6574372 31.9929473,71.609514 31.3404933,70.9078201 C30.6838138,70.201506 27.3333479,69.9135657 26.2814568,69.3953146 C24.1633094,68.3514935 22.1709059,66.8688212 20.407577,65.3021881 C17.0272526,62.298992 14.0865404,58.3749514 11.7654951,54.5067396 C6.3951982,45.5563062 4.24815613,34.6335182 4.35667632,24.2677775 C4.37752708,22.255219 7.61858675,0.583184317 6.31692506,0.284742472 C6.39529613,0.193083089 6.46942917,0.098442019 6.53933041,0 C7.52479985,1.64773914 8.49183089,3.30664479 9.45326821,4.96845749 Z"/>
      <path fill="#39CB76" d="M99.695265,57.1926548 C99.8242711,57.0068333 100.663897,55.7144998 100.241088,55.7970919 C101.101942,55.6289315 99.0570364,57.2223981 101.201991,56.2446543 C100.183552,57.2051954 100.771326,58.4529534 100.78492,59.7457364 C100.807097,61.8446418 100.45544,63.9263357 100.05959,65.9802066 C99.4340858,69.2267497 98.5022526,72.3833384 97.1497138,75.4030135 C94.2018133,81.9835723 89.1961273,88.3185626 83.2534476,92.4326801 C80.3197111,94.463985 77.4445187,95.1555694 74.0985905,96.0907055 C71.9851605,96.6814922 71.8175622,97.7732492 70.6957484,99.8213035 C68.3602166,104.086963 66.066278,108.337278 64.0065462,112.746861 C61.5470898,118.012367 59.1595508,123.283676 56.9074085,128.641875 C49.3203451,146.690681 43.1451793,165.389514 39.9021709,184.740991 C39.8227684,173.337225 42.4644406,161.592321 45.7966545,150.722635 C48.2239719,142.803229 51.3838832,135.16916 54.7542373,127.612374 C55.5709423,125.781654 56.8085847,123.426727 57.1554128,121.405533 C57.3982619,119.989384 56.6558004,118.627464 56.3158604,117.13566 C54.9905863,111.326302 55.0854406,104.817948 56.2492282,98.9775271 C57.5323934,92.5373549 61.2432476,89.5482524 67.5206369,88.6360436 C69.8164038,88.3023669 72.7343827,88.4246616 74.8394878,87.4471223 C77.1329684,86.3826138 78.0790637,82.8835881 79.3832207,80.6374885 C82.886142,74.6039909 87.0481196,68.8174981 91.8272194,63.7337758 C93.1505068,62.3260284 94.5735792,61.0272859 96.0833,59.823511 C97.035329,59.063996 99.0464631,58.1282745 99.695265,57.1926548 Z"/>
      <path fill="#FDA803" d="M29.3015807,172.424925 L51.5874663,172.424925 C52.5870164,172.424925 53.3973118,173.23522 53.3973118,174.23477 C53.3973118,174.323261 53.3908219,174.411632 53.3778942,174.499173 L51.6549559,186.166202 C51.1305297,189.717402 48.0829572,192.347973 44.4932444,192.347973 L36.3958026,192.347973 C32.8060897,192.347973 29.7585173,189.717402 29.234091,186.166202 L27.5111528,174.499173 C27.3651271,173.510347 28.0483517,172.590368 29.0371778,172.444343 C29.1247188,172.431415 29.2130902,172.424925 29.3015807,172.424925 Z"/>
    </g>
    <path fill="#2A9B59" stroke="#C85CB0" stroke-width=".5" d="M71.3407705,172.859487 C67.4892885,175.717863 68.9547615,181.754061 73.6908937,182.640443 C79.4044808,183.709758 86.9973092,181.255296 93.4213985,176.693347 L91.6502855,170.20217 C84.6356367,173.164653 77.9402265,173.817144 71.3407705,172.859487 Z" transform="rotate(-9 81.297 176.5)"/>
    <g transform="translate(83 33)">
      <rect width="184.235" height="220.439" x="14.884" y="16.493" fill="#F4F4F4" stroke="#D5D9DE" stroke-width=".805"/>
      <rect width="184.235" height="220.439" x="7.643" y="7.643" fill="#F4F4F4" stroke="#D5D9DE" stroke-width=".805"/>
      <rect width="184.235" height="220.439" x=".402" y=".402" fill="#F4F4F4" stroke="#D5D9DE" stroke-width=".805"/>
      <text fill="#494949" font-family="Roboto-Regular, Roboto" font-size="11.263">
        <tspan x="41.835" y="36.94">Program Evaluation</tspan>
      </text>
      <rect width="150.445" height="6.436" x="17" y="51" fill="#D2D2D2"/>
      <rect width="150.445" height="6.436" x="17" y="150.257" fill="#D2D2D2"/>
      <rect width="129.528" height="6.436" x="17" y="64" fill="#D2D2D2"/>
      <rect width="129.528" height="6.436" x="17" y="162.257" fill="#D2D2D2"/>
      <rect width="145.618" height="6.436" x="17" y="76" fill="#D2D2D2"/>
      <rect width="145.618" height="6.436" x="17" y="175.257" fill="#D2D2D2"/>
      <rect width="114.242" height="6.436" x="17" y="88" fill="#D2D2D2"/>
      <rect width="114.242" height="6.436" x="17" y="187.257" fill="#D2D2D2"/>
      <rect width="144.814" height="6.436" x="17" y="100" fill="#D2D2D2"/>
      <rect width="144.814" height="6.436" x="17" y="199.257" fill="#D2D2D2"/>
      <rect width="144.814" height="6.693" x="17" y="111" fill="#D2D2D2"/>
      <rect width="144.814" height="6.693" x="17" y="139" fill="#D2D2D2"/>
      <g fill="#39CB76" fill-rule="nonzero" transform="translate(82.061 10.459)">
        <path d="M12.2578032 7.25785694C12.1505927 7.25785694 12.0433822 7.21530007 11.9615421 7.13018638L8.63290125 3.66818716C8.46922108 3.49795979 8.46922108 3.22219144 8.63290125 3.05196406 8.79658142 2.88173669 9.06174329 2.88173669 9.22542346 3.05196406L12.5540643 6.51396329C12.7177445 6.68419066 12.7177445 6.95995901 12.5540643 7.13018638 12.4722242 7.21530007 12.3650137 7.25785694 12.2578032 7.25785694zM13.7963968 7.25785694C13.6891863 7.25785694 13.5819758 7.21530007 13.5001357 7.13018638 13.3364555 6.95995901 13.3364555 6.68419066 13.5001357 6.51396329L17.3318884 2.52894042C17.4955686 2.35871304 17.7607305 2.35871304 17.9244106 2.52894042 18.0880908 2.69916779 18.0880908 2.97493614 17.9244106 3.14516351L14.0926579 7.13018638C14.0108178 7.21530007 13.9036073 7.25785694 13.7963968 7.25785694zM2.34942422 8.31922459C2.24200909 8.31922459 2.13479861 8.27666772 2.05295853 8.19155403 1.88948297 8.02132666 1.88948297 7.74513273 2.05336774 7.57533094L6.40766939 3.05196406C6.57114495 2.88173669 6.83671604 2.88173669 7.0001916 3.05196406 7.16366716 3.22219144 7.16366716 3.49838537 6.99978239 3.66818716L2.64548074 8.19155408C2.56384522 8.27666776 2.45663474 8.31922459 2.34942422 8.31922459z"/>
        <path d="M7.81634184 4.27377103C7.2829491 4.27377103 6.78270156 4.05885895 6.40726018 3.66818716 6.037343 3.28347329 5.82496799 2.74938492 5.82496799 2.20295502 5.82496799 1.06072932 6.7182525.131713434 7.81634184.131713434 8.91443118.131713434 9.80792029 1.06072932 9.80792029 2.20295502 9.80792029 2.74300137 9.59656829 3.27623861 9.22787871 3.66563374 8.85018672 4.05885895 8.34973458 4.27377103 7.81634184 4.27377103zM13.0271 9.18993762C12.1958094 9.18993762 11.5194011 8.486473 11.5194011 7.62214348 11.5194011 7.20380972 11.676534 6.81015887 11.9617467 6.51396324 12.5305353 5.92072085 13.5218233 5.92072085 14.0926579 6.51396324 14.377666 6.80973329 14.5345944 7.20338413 14.5345944 7.62214348 14.5345943 8.486473 13.8583907 9.18993762 13.0271 9.18993762zM1.55107421 10.3270565C.695845302 10.3270565 0 9.60316458 0 8.71372656 0 7.82428853.695845302 7.10082217 1.55107421 7.10082217 1.96948166 7.10082217 2.35944964 7.27062396 2.64916355 7.57873553 2.93887747 7.87322891 3.10214843 8.2787956 3.10214843 8.71372656 3.10214838 9.60316458 2.40630308 10.3270565 1.55107421 10.3270565zM18.4844014 3.64009961C18.054741 3.64009961 17.6465636 3.46561656 17.3349574 3.14856806 17.0292847 2.83066843 16.8557837 2.39360964 16.8557837 1.94633721 16.8557837 1.01221448 17.5864111.252574805 18.4844014.252574805 19.3823918.252574805 20.1130191 1.01221453 20.1130191 1.94633725 20.1130191 2.88045998 19.3823917 3.64009961 18.4844014 3.64009961z"/>
      </g>
    </g>
    <g transform="matrix(-1 0 0 1 372 126)">
      <g transform="translate(36.627)">
        <path fill="#915B3C" d="M3.68851513,15.397378 C1.63141266,12.9827571 0.239122676,10.0236059 0.471775149,6.70779191 C1.14211171,-2.84599133 14.4413083,-0.74428074 17.0282774,4.07764862 C19.6152465,8.89957799 19.3078473,21.1308017 15.9644203,21.992615 C14.6310665,22.3363048 11.7906271,21.4944027 8.89972203,19.7519238 L10.7142857,32.5892857 L0,32.5892857 L3.68851513,15.397378 Z" transform="translate(24.107 13.84)"/>
        <path fill="#191847" d="M45.8820088,11.2323383 C45.6601382,10.4524549 45.0633624,9.7847122 44.259107,9.58661167 C44.0640763,9.53855976 43.8626593,9.51915137 43.661978,9.52724308 C43.589993,9.53011623 43.5698042,9.55087325 43.536166,9.50053455 C43.5112096,9.46321296 43.5106504,9.37203453 43.5003795,9.32817507 C43.4684188,9.19178856 43.4284532,9.05710249 43.379129,8.92590524 C43.2108499,8.47842732 42.9280597,8.08240218 42.5871459,7.74879468 C41.9494922,7.12467688 41.0879078,6.69393944 40.1927735,6.61601267 C39.7028569,6.57338455 39.2165014,6.65298244 38.7533365,6.81235412 C38.5135432,6.89485447 38.281019,6.99758412 38.0545573,7.11116136 C37.9863686,7.14534595 37.7651455,7.31278003 37.6967214,7.30193243 C37.6211458,7.28997076 37.4692591,7.10216079 37.4078098,7.05501774 C36.6482582,6.47226739 35.7103037,6.24314861 34.7642265,6.25015557 C33.6963692,6.25804206 32.6680949,6.3114005 31.7774927,6.96237342 C31.588966,7.1001965 31.4094153,7.25109533 31.238458,7.40996861 C31.1484325,7.49361235 31.0612323,7.58039311 30.9780639,7.67077995 C30.9278862,7.7253111 30.8790329,7.7810736 30.8320042,7.83833131 C30.7521908,7.93551989 30.7649927,7.967447 30.6532775,7.89963487 C30.2246631,7.63923398 29.7279778,7.51744774 29.227702,7.57892722 C28.9306384,7.61545722 28.6416091,7.70464204 28.367177,7.8220306 C28.2737377,7.86199079 28.0574587,8.02139179 27.9578685,8.02294563 C27.8590729,8.02447016 27.6458252,7.87670834 27.5440572,7.83915221 C26.9943984,7.63624356 26.4019487,7.58622735 25.824214,7.67998575 C25.2282622,7.77673456 24.6428462,8.0145021 24.1379205,8.34306693 C23.8950665,8.50111931 23.6831725,8.67623466 23.5129805,8.91124632 C23.4394945,9.01271531 23.3730716,9.12004785 23.2897855,9.21412874 C23.2410205,9.26921693 23.1444616,9.32574169 23.1182985,9.39545947 C23.1339551,9.3537109 22.466548,9.09641769 22.4035684,9.07997039 C22.0680402,8.99233942 21.7263906,9.01010602 21.3978372,9.11823015 C20.7800191,9.32154924 20.248695,9.77750001 19.8120169,10.2449727 C19.587733,10.4850857 19.3914662,10.7504999 19.2248646,11.0332703 C19.1450217,11.1687186 19.0720066,11.3080369 19.0052011,11.4503163 C18.9728285,11.5192425 18.9513742,11.6054662 18.9087305,11.6675614 C18.8537558,11.7475697 18.8168215,11.7490942 18.7172608,11.7839824 C18.2116288,11.9611207 17.7507006,12.2609541 17.3996923,12.6660971 C17.0446522,13.0759895 16.8142764,13.5807545 16.717688,14.1123159 C16.7120081,14.1436274 16.7086237,14.273388 16.690289,14.2903337 C16.665156,14.3136707 16.5634763,14.3033508 16.5250117,14.3078658 C16.3918128,14.3234922 16.2595556,14.3467412 16.1290642,14.3776422 C15.8885057,14.4345774 15.6543629,14.5183678 15.4328748,14.6279578 C14.5694658,15.0551478 13.9520303,15.8560227 13.6498459,16.7571939 C13.3327701,17.7029282 13.3383912,18.786427 13.7173577,19.714512 C13.7785715,19.864414 13.8514101,20.0099183 13.9369623,20.1475655 C13.9894943,20.2320595 14.0064458,20.2322647 13.9723368,20.3209218 C13.9343136,20.4195469 13.8648595,20.5153869 13.8197143,20.6117546 C13.6724185,20.9262469 13.5694439,21.2597957 13.5044043,21.6004688 C13.3976921,22.1592958 13.3448069,22.7465611 13.450077,23.3096392 C13.4989598,23.5710955 13.5841294,23.8266883 13.7140616,24.0595598 C13.7803079,24.178297 13.8578257,24.2909067 13.9453497,24.3950729 C13.9907892,24.4491643 14.039054,24.5008223 14.0895259,24.5503108 C14.1183965,24.5785732 14.1562431,24.6033174 14.1807875,24.6348927 C14.2407064,24.7118813 14.2533023,24.6485841 14.2224011,24.7616337 C14.1791983,24.919686 14.0812562,25.0756275 14.0212784,25.2294288 C13.959476,25.387921 13.9036184,25.5485826 13.8525284,25.7108275 C13.7490535,26.039363 13.661559,26.37385 13.6068491,26.7140833 C13.501785,27.3673137 13.5202375,28.0633482 13.8292201,28.6628683 C13.9613301,28.9193113 14.1508574,29.1442669 14.380733,29.319265 C14.4932428,29.4048731 14.6151113,29.478666 14.7429539,29.539266 C14.8086411,29.5704601 14.8925158,29.583829 14.9224752,29.6473608 C14.9547302,29.7156713 14.906848,29.8513249 14.8959296,29.9276978 C14.8009305,30.5920983 14.7532838,31.2896865 14.9507866,31.9407767 C15.1326917,32.5404728 15.5332007,33.0699526 16.0531944,33.4205058 C17.0619569,34.1005327 18.4217276,34.062185 19.4816683,33.5177824 C19.7579545,33.3758548 20.0164357,33.1996547 20.2470175,32.9918206 C20.8341698,33.7822291 22.0424069,33.757221 22.900548,33.5320015 C23.9696708,33.25143 24.8275471,32.5080179 25.3218192,31.5312654 C25.9976727,32.3540114 27.4160674,32.0870727 27.8847357,31.1945209 C27.9994527,30.9760738 28.0674942,30.7353158 28.1009852,30.4916847 C28.1186136,30.3635658 28.1073715,30.2343329 28.1206148,30.1072401 C28.1375075,29.9452885 28.2456911,29.7879104 28.3078761,29.631236 C28.4289794,29.3263306 28.5041724,29.0113693 28.5074096,28.6824819 C28.5090871,28.5107674 28.4873386,28.3434213 28.4710051,28.1730848 C28.4563196,28.0197526 28.4988456,27.8768868 28.5230074,27.7255482 C28.2488107,27.7706977 27.914754,27.6967581 27.6564199,27.6172482 C27.4029123,27.5392335 27.1654734,27.3337448 26.9865407,27.1460815 C26.5710813,26.7103013 26.3172794,26.1390436 26.143703,25.5704831 C25.7626764,24.3225993 25.9188599,22.8254261 27.174008,22.1405617 C27.7587176,21.8215252 29.5104339,21.8225717 30.2068489,21.9802504 C30.9390989,22.1460427 31.769223,23.7617787 31.8100714,23.913645 C31.8353516,24.0076379 31.8226379,24.123971 31.9089847,24.1865939 C32.0987475,24.3242997 32.4117032,24.0853301 32.5516709,23.9673845 C32.7932006,23.7638309 32.9654822,23.4929929 33.1146908,23.2184608 C33.4398009,22.6203772 33.701902,21.9789912 33.8870444,21.3242363 C34.0297785,20.819442 34.1210401,20.2989041 34.307595,19.8069804 C34.4932377,19.31749 34.7858868,18.8799801 35.2408997,18.6026922 C35.7358781,18.3010411 36.3032536,18.1421678 36.846644,17.9525988 C37.3852667,17.7647302 37.9145896,17.535113 38.332109,17.1364786 C38.4239003,17.0488183 38.5130723,16.9556756 38.5869703,16.8524768 C38.6453,16.7710026 38.7029528,16.6150318 38.7918306,16.5633738 C38.9300031,16.4830136 39.1316555,16.6919911 39.2511402,16.7678656 C39.8406175,17.1422542 40.3324175,17.6644046 40.7290712,18.2348122 C41.1235177,18.802112 41.4471799,19.3479805 41.7101933,19.9814507 C41.9052829,20.4512688 42.0270395,21.0529585 42.3701606,21.4379894 C42.5233423,21.6099092 43.661978,21.7139159 44.0307913,21.5638215 C44.3996045,21.4137272 44.8129449,21.0239925 44.9367263,20.7797457 C45.0634506,20.5297526 45.0937338,20.2551326 45.0395831,19.9814507 C45.0077402,19.8204372 44.9427005,19.6700368 44.90712,19.5118965 C44.8771605,19.3790574 44.8499675,19.2534892 44.7853104,19.1317909 C44.662765,18.9011769 44.453402,18.735414 44.2009245,18.6661066 C44.463673,18.4238535 44.681394,18.1340468 44.8320448,17.8100849 C44.9885814,17.4735163 45.1212506,17.0642102 45.1588912,16.6948056 C45.1894981,16.394767 45.1422634,16.0839101 44.9780162,15.8260599 C44.8057052,15.5555737 44.5004601,15.3791097 44.2363579,15.2103856 C44.6397804,14.89475 44.9850499,14.5108917 45.2688995,14.0859006 C45.8209127,13.2594312 46.1623563,12.2176517 45.8820088,11.2323383 Z"/>
      </g>
      <g transform="translate(0 83.404)">
        <polygon fill="#784931" points="57.143 0 73.942 54.922 82.08 101.629 88.461 101.629 79.862 0"/>
        <path fill="#915B3C" d="M51.132914,0 C52.2739754,30.1548581 50.9311003,45.70928 50.6757171,48.4489799 C50.4203339,51.1886799 46.9233019,68.9530412 38.6445033,102.548424 L45.4437466,100.213259 C58.5276159,69.4013208 62.986132,53.3878126 64.4867528,49.3418371 C65.9873736,45.2958616 69.9729478,28.8485825 76.4434755,0 L51.132914,0 Z"/>
        <path fill="#E4E4E4" d="M1.19559377,11.3401469 C0.696150304,12.6733988 0.446428571,13.6709794 0.446428571,14.3328888 C0.446428571,15.1379272 0.580542056,16.3126786 0.848769024,17.8571429 C1.78267017,17.8571429 10.175797,17.8571429 26.0281495,17.8571429 C26.6824723,15.6939765 26.3047592,14.5261525 24.8950102,14.3536711 C23.4852612,14.1811896 22.3141587,14.0254526 21.3817028,13.8864602 L9.67856815,8.6691444 C9.45337656,8.56875287 9.1894393,8.6699233 9.08904777,8.89511489 C9.08733034,8.89896729 9.08566761,8.90284384 9.08406005,8.90674337 L8.33179156,10.7315603 C7.02673269,11.3404697 5.96623686,11.6449244 5.15030408,11.6449244 C4.48738305,11.6449244 3.57188539,11.377194 2.40381111,10.841733 L2.40382619,10.8417001 C1.95555141,10.6362049 1.42556614,10.8330167 1.22007096,11.2812915 C1.21121401,11.3006123 1.20304974,11.3202433 1.19559377,11.3401469 Z" transform="translate(37.5 88.84)"/>
        <path fill="#E4E4E4" d="M1.19559377,11.3401469 C0.696150304,12.6733988 0.446428571,13.6709794 0.446428571,14.3328888 C0.446428571,15.1379272 0.580542056,16.3126786 0.848769024,17.8571429 C1.78267017,17.8571429 10.175797,17.8571429 26.0281495,17.8571429 C26.6824723,15.6939765 26.3047592,14.5261525 24.8950102,14.3536711 C23.4852612,14.1811896 22.3141587,14.0254526 21.3817028,13.8864602 L9.67856815,8.6691444 C9.45337656,8.56875287 9.1894393,8.6699233 9.08904777,8.89511489 C9.08733034,8.89896729 9.08566761,8.90284384 9.08406005,8.90674337 L8.33179156,10.7315603 C7.02673269,11.3404697 5.96623686,11.6449244 5.15030408,11.6449244 C4.48738305,11.6449244 3.57188539,11.377194 2.40381111,10.841733 L2.40382619,10.8417001 C1.95555141,10.6362049 1.42556614,10.8330167 1.22007096,11.2812915 C1.21121401,11.3006123 1.20304974,11.3202433 1.19559377,11.3401469 Z" transform="translate(79.464 88.84)"/>
        <polygon fill="#69A1AC" points="54.911 0 62.054 27.982 83.871 27.982 80.618 0"/>
        <path fill="#89C5CC" d="M50.8928571,-3.55271368e-15 C48.5426068,7.04488664 48.0961782,16.3721962 49.5535714,27.9819286 L71.8171062,27.9819286 L77.9390868,-3.55271368e-15 L50.8928571,-3.55271368e-15 Z"/>
      </g>
      <g transform="translate(44.827 26.573)">
        <path fill="#915B3C" d="M50.5171217,11.0440289 L67.4474752,5.96914747 C70.6058465,3.51411314 73.5849153,1.71910729 76.3846817,0.584129908 C77.1989518,0.431090041 78.5470139,0.519971895 76.8624416,2.42810586 C75.1778692,4.33623982 73.4918942,6.41896038 73.9728679,7.21904917 C74.4538416,8.01913797 76.2062778,7.41599927 76.7134663,8.68338829 C77.0515919,9.52831431 74.1482185,10.133468 68.0033462,10.4988494 L54.8396615,18.2344753 L50.5171217,11.0440289 Z"/>
        <path fill="#F2F2F2" d="M5.2,60.8450704 L39.5933333,60.8450704 C31.8026675,37.1197709 27.8228996,20.8362002 27.6540296,11.9943584 C27.6454205,11.5435928 26.8116891,10.74928 26.442828,10.8533024 C23.7453871,11.6140064 20.8589125,11.3295723 17.783404,10 C9.62980995,23.0941251 6.81015575,39.2156443 5.2,60.8450704 Z"/>
        <path fill="#0A9CDF" d="M20.7183176,10.0211388 C30.5770261,10.1017482 46.5720535,11.8994007 65.018795,5.98591549 L66.84,15.072679 C52.8981264,24.0262052 38.7808111,30.9620246 26.4105253,29.9770969 C31.7822252,52.9850911 31.5345639,71.8195624 19.6753376,71.8195624 C14.011967,71.8195624 7.89913338,71.8195624 1.33683665,71.8195624 C-1.57574062,52.2745304 6.07908241,25.1748518 13.1756599,11.5059928 C13.4466569,10.9840202 14.0236365,10 15.3826603,10 C16.5667997,10 18.3430088,10 20.7112876,10 C20.7136313,10.0070463 20.7159746,10.0140925 20.7183176,10.0211388 Z"/>
      </g>
    </g>
    <g fill="#F2F2F2" transform="translate(244 287)">
      <path d="M6.25042764,19.6442012 C6.25042764,28.2742408 6.93146137,35.2702703 16.0725282,35.2702703 C25.2135951,35.2702703 25.8946288,28.2742408 25.8946288,19.6442012"/>
      <path d="M18.7919258,14.2597972 C18.456859,14.8391372 18.158093,15.4300639 17.894195,16.0298617 C17.8848809,14.7946004 17.9531839,13.5502869 18.1397037,12.2889552 C18.4585307,10.1283794 18.9454882,7.97902828 19.4030706,5.83311699 C19.7319281,4.29098653 19.7111506,1.52101752 20.9592329,0.292092703 C21.3014645,0.0265015569 21.3838579,0.547545401 21.3838579,0.773669015 C21.3881567,0.821464559 21.3829027,-0.149291901 21.0507016,0.0198029391 C19.0761237,1.03962225 18.4363203,4.24626873 17.8041592,5.85176449 C16.8818297,8.19519449 16.0970615,10.5907651 15.7739358,13.0288809 C15.6922587,13.6447917 15.6478379,14.2605214 15.6375686,14.8751649 C15.5704596,14.7107772 15.5074107,14.5451221 15.4376748,14.3812776 C14.2980175,11.708348 12.7600057,9.10023207 10.8417896,6.69488513 C10.3696391,6.10305319 4.43276994,0.263306751 3.96802287,1.15711963 C4.01387664,1.28692798 4.10988297,1.394649 4.25628069,1.48028268 C4.26487827,1.49005904 4.26511709,1.48462773 4.26010183,1.47014423 C4.60878154,2.03337126 5.6001305,2.90328637 5.90892698,3.39681157 C6.68605286,4.63877153 7.29003299,5.95676986 7.90380481,7.2496031 C9.20060675,9.98173398 10.4035517,12.7413835 11.5697182,15.5068264 C11.8412585,16.15098 12.1242622,16.7915127 12.4129977,17.4300539 C9.4365626,13.136964 5.4659127,9.2394547 -1.42108547e-14,7.00827182 C1.86686938,7.95802721 3.09083069,9.74492878 4.35157055,11.1130762 C5.87214844,12.7632898 7.47368689,14.3691476 8.99713064,16.0175508 C10.7940253,17.9621414 12.9083139,20.009927 14.6366667,22.1618128 C16.310807,25.6765957 17.9376605,29.1951805 18.9419059,32.8899208 C18.530416,31.6133815 18.9096649,29.8492915 18.8392125,28.5095679 C18.7833282,27.4432203 18.6586633,26.3855629 18.4879058,25.3298969 C18.6990242,25.8060419 18.8810063,26.282549 18.9633998,26.725744 C18.888171,25.9823785 18.8014787,25.2437201 18.7083382,24.5088636 C18.9473988,23.8208975 19.1821605,23.1789164 19.3407381,22.6500877 C20.1534484,19.9373285 21.1211541,17.2712786 22.4389723,14.672758 C23.658396,12.2690404 25.0571748,9.89591925 26.581335,7.59521558 C27.2923073,6.5225315 28.0130712,5.45383038 28.7292976,4.38331883 C29.1981046,3.68249857 29.6444624,2.56038955 30.2971622,1.88889837 C26.0781377,5.746216 21.4686397,9.63141437 18.7919258,14.2597972"/>
    </g>
    <g transform="translate(28 117)">
      <g transform="rotate(15 6.366 54.462)">
        <path fill="#FBCDA3" d="M3.86403979,16.0497021 C1.70904638,13.5327835 0.250501761,10.4482651 0.494225423,6.99197367 C1.19646116,-2.96656436 15.1285241,-0.775812876 17.8385988,4.25040195 C20.5486735,9.27661677 20.2266461,22.0260275 16.7241161,22.9243523 C15.3273119,23.282603 12.3517038,22.4050323 9.3232289,20.5887306 L11.2241444,33.9699607 L0,33.9699607 L3.86403979,16.0497021 Z" transform="translate(22.254 5.426)"/>
        <path fill="#191847" d="M30.0030634,20.7750561 C28.6112236,23.4333914 26.6862291,25.4353026 24.7630793,25.4353026 C21.110221,25.4353026 18.5129434,20.5758669 18.5129434,15.3511423 C18.5129434,15.1675728 18.5165989,14.9852245 18.5238114,14.8042382 C14.6597389,17.4426388 11.6817456,22.643251 6.56893174,22.643251 C-0.38700555,22.643251 -3.14949824,8.68299323 6.56893174,8.68299323 C13.1782025,8.68299323 16.4292634,9.64182146 19.2310427,11.0597024 C19.7836447,9.50959679 20.6262718,8.20633824 21.6566373,7.29622833 C21.9045137,7.01858343 22.284536,6.75294228 22.7748071,6.5066794 C23.0745395,6.3435067 23.3847095,6.21060903 23.7034905,6.11059884 C25.3932059,5.49274256 27.8406537,5.05695102 30.5745039,4.96195866 C31.085001,4.94422055 31.586369,4.93902991 32.075474,4.94556872 C32.0834342,2.38231144 34.1742158,0.306838543 36.752178,0.306838543 C39.3350629,0.306838543 41.4289049,2.39024532 41.4289049,4.96025781 C41.4289049,7.44569161 39.4706112,9.4760209 37.0055388,9.60696465 C35.5953934,10.0399084 33.7836087,10.3577843 31.774358,10.491831 C31.9694357,11.2217844 32.0754512,12.0510391 32.0754512,12.988133 C32.0754512,13.8155774 31.9836657,14.6931273 31.8146572,15.5841587 C31.3788747,15.0687649 30.7961808,14.7324383 30.2047605,14.7324383 C28.5503374,14.7324383 27.3987244,16.0866527 27.3987244,17.5244898 C27.3987244,19.3493303 28.4574832,20.6694689 30.0030634,20.7750561 Z"/>
      </g>
      <g transform="translate(0 95.624)">
        <polygon fill="#FBCDA3" points="19.467 0 35.34 54.598 42.806 95.591 50.3 95.591 42.819 0"/>
        <path fill="#FBCDA3" d="M12.3330152,0 C13.4406055,28.3632786 13.003788,43.8333815 12.755896,46.4103086 C12.5080041,48.9872358 11.1007031,66.2457663 1.51093119,96.455752 L9.30498822,96.455752 C22.005064,67.4744326 26.4385388,50.2159021 27.8951414,46.4103086 C29.351744,42.6047152 33.6537414,27.1346123 39.9344669,0 L12.3330152,0 Z"/>
        <path fill="#69A1AC" d="M19.1259101,0 C23.2548194,18.7872557 30.3960628,48.776488 40.5496405,89.9676969 L51.509959,89.9676969 C52.3195035,47.6888605 48.875739,19.8623132 42.9119989,0 L19.1259101,0 Z"/>
        <path fill="#89C5CC" d="M12.2776314,0 C13.3623713,28.3632786 10.5511992,56.3064802 1.84322005,90.409299 L13.5372771,90.409299 C26.2607013,61.8605165 35.3799892,34.0552044 41.6124165,0 L12.2776314,0 Z"/>
        <path fill="#191847" d="M0,16.2185131 L0.415824844,9.20510205 C2.85042085,9.95002498 5.89980304,9.65779952 9.56397141,8.32842566 C13.5228821,11.2621399 18.5115872,13.260864 24.5300867,14.3245981 L24.5300953,14.3245495 C24.950815,14.3989092 25.2315953,14.8002504 25.1572355,15.2209701 C25.1532072,15.2437621 25.148158,15.2663619 25.1421031,15.2887012 L24.5336658,17.5335277 L9.56397141,17.5335277 L0.831649688,17.5335277 L0,16.2185131 Z" transform="translate(.4 86.075)"/>
        <path fill="#191847" d="M0,16.2185131 L0.415824844,9.20510205 C2.85042085,9.95002498 5.89980304,9.65779952 9.56397141,8.32842566 C13.5228821,11.2621399 18.5115872,13.260864 24.5300867,14.3245981 L24.5300953,14.3245495 C24.950815,14.3989092 25.2315953,14.8002504 25.1572355,15.2209701 C25.1532072,15.2437621 25.148158,15.2663619 25.1421031,15.2887012 L24.5336658,17.5335277 L9.56397141,17.5335277 L0.831649688,17.5335277 L0,16.2185131 Z" transform="translate(41.133 86.075)"/>
      </g>
      <g transform="translate(10.448 37.943)">
        <path fill="#FBCDA3" d="M59.6232489,25.4130616 L66.2532136,21.789448 C67.1834915,18.2676502 68.2955254,16.4957146 69.5893153,16.4736413 C70.583215,16.0135436 68.8523456,20.463664 70.736465,20.0777504 C72.6205845,19.6918367 77.2191816,16.2891025 78.0115428,16.9799861 C79.1837901,18.0021039 78.1385424,21.1405978 76.9069922,22.7018305 C74.6052266,25.6197723 72.6994638,26.6176204 67.9890753,27.9243085 C65.526241,28.6075124 62.8634816,29.976936 60.000797,32.0325791 L59.6232489,25.4130616 Z"/>
        <path fill="#39CB76" d="M35.7517883,27.1528679 C41.364318,28.5454723 50.7761832,26.903207 63.9873839,22.226072 C67.2643076,28.9709342 68.7791473,33.7795036 68.5319029,36.6517803 C57.1986407,42.5417055 47.4850563,45.1677227 39.4823601,45.3410805 C39.7366717,50.0654124 39.1586935,54.5607231 37.2170905,58.6682358 C33.225484,67.1125853 9.85241042,59.2921761 1.99366683,60.8314237 C-2.92770948,44.9299829 6.58792053,38.4677017 6.59557694,28.293033 C6.60396153,17.1506866 15.5965096,-1.27897692e-13 16.9195829,-1.27897692e-13 L28.9852827,-1.65907333e-14 C29.651018,8.50955672 33.0018489,17.8878255 35.7517883,27.1528679 Z"/>
      </g>
    </g>
  </g>
</svg>
