<svg xmlns="http://www.w3.org/2000/svg" width="518" height="487" viewBox="0 0 518 487">
  <g fill="none" fill-rule="evenodd">
    <g transform="translate(355.968 62.118)">
      <circle cx="34.432" cy="34.432" r="34.432" fill="#F2F2F2"/>
      <circle cx="34.432" cy="7.146" r="1.949" fill="#000" fill-opacity=".1"/>
      <circle cx="7.146" cy="34.432" r="1.949" fill="#000" fill-opacity=".1"/>
      <circle cx="61.719" cy="34.432" r="1.949" fill="#000" fill-opacity=".1"/>
      <circle cx="34.432" cy="61.719" r="1.949" fill="#000" fill-opacity=".1"/>
      <polygon fill="#AFB9C5" points="34.432 11.044 35.732 33.783 33.133 33.783"/>
      <polygon fill="#AFB9C5" points="40.418 32.622 41.717 48.214 39.119 48.214" transform="rotate(135 40.418 40.418)"/>
      <circle cx="34.432" cy="34.432" r="2.599" fill="#C5CFD6"/>
    </g>
    <g opacity=".346" transform="translate(20.29 170.713)">
      <path fill="#D6DBDE" d="M0.148833889,120.607866 C5.12205661,66.701278 271.956628,-37.3441153 321.493536,13.7151392 C371.030444,64.7743937 323.406851,160.599258 219.595789,185.137567 C115.784727,209.675876 -4.82438883,174.514453 0.148833889,120.607866 Z" transform="matrix(-1 0 0 1 341.176 0)"/>
      <path fill="#ECEFF1" d="M158.624188,155.633971 C163.118748,109.838216 404.271008,21.447584 449.040084,64.8244183 C493.809161,108.201253 482.477234,199.439398 388.657786,220.285651 C294.838338,241.131905 154.129629,201.429727 158.624188,155.633971 Z"/>
    </g>
    <g transform="translate(366.613 139.67)">
      <path stroke="#CBCBCB" stroke-width="5.197" d="M38.9801122,24.9537147 L53.6502787,11.1480071 C55.6514612,9.26474694 58.7728416,9.26474694 60.7740241,11.1480071 L98.9269071,47.0526812 C101.014273,49.0170464 102.197858,51.756161 102.197858,54.6224875 L102.197858,286.72936"/>
      <rect width="38.33" height="4.548" x="82.708" y="286.08" fill="#AFB9C5" rx="1.949"/>
      <g transform="rotate(45 15.065 38.587)">
        <path fill="#C5CFD6" d="M21.4587544,0.899077355 L21.4587544,0.899077355 C33.2992212,0.899077355 42.8978161,10.4976722 42.8978161,22.3381391 L42.8978161,40.5288581 L0.0196927007,40.5288581 L0.0196927007,22.3381391 C0.0196927007,10.4976722 9.61828757,0.899077355 21.4587544,0.899077355 Z"/>
        <ellipse cx="21.575" cy="39.919" fill="#F2F2F2" rx="21.439" ry="4.223"/>
      </g>
    </g>
    <g transform="translate(14.593 275.027)">
      <g transform="translate(14.293)">
        <path fill="#DDE3E9" d="M16.409298,0.762121661 C18.2703233,0.534756099 20.2566026,0.615015213 21.9873018,1.3495994 C25.6674564,2.9118198 26.7135462,7.25948952 26.6630799,10.7932801 C26.6086734,14.5967794 25.8009694,18.7511622 28.6926864,21.8157336 C30.0219511,23.2246466 31.6754532,24.3028754 32.9807021,25.7376587 C34.3753819,27.2709181 35.4697123,29.0252716 36.2799821,30.9091688 C37.7677337,34.3695309 38.4979482,38.4388717 37.1374807,42.0688143 C35.939613,45.2647657 32.9259118,48.1493857 33.5770995,51.7834918 C34.2563456,55.5745413 38.0785087,58.4728305 40.4681416,61.2965672 C43.1725308,64.4921527 45.662539,68.5764038 46.0715911,72.7670787 C46.4638313,76.7832352 44.7156507,80.8450001 42.0327546,83.8808861 C36.6723213,89.9470885 28.6147586,92.9209415 20.4902624,92.9025156 C17.0408225,92.8945245 13.1353563,92.7387338 10.1585826,90.8850642 C9.23856752,90.3121087 8.75320047,89.6693043 8.20627731,88.775715 C7.71590201,87.9744253 7.06812,87.4532201 6.31832533,86.8862274 C4.67102897,85.6408619 3.48138877,83.9624103 2.72219028,82.0835597 C-0.225941587,74.785959 2.13037146,65.7579321 6.25708878,59.2776059 C7.23493859,57.7422841 8.03551971,56.2648444 7.5604763,54.4348312 C7.0647541,52.5245192 5.84637657,50.8015217 4.76873546,49.1594462 C3.70385477,47.5365635 2.48815165,45.9883555 1.6558476,44.2336634 C0.784145307,42.3954985 0.538680927,40.4706309 0.692700954,38.4589125 C0.982171043,34.6800307 2.61344268,31.1928476 4.92296828,28.1537922 C7.1474688,25.226517 9.75940372,22.425568 9.76525629,18.5899557 C9.7716832,14.524729 7.0539265,10.9084592 8.21173101,6.77537961 C8.69113784,5.06394628 9.65404473,3.30800536 11.2058402,2.28197569 C12.694041,1.29793779 14.6590257,0.975956265 16.409298,0.762121661 Z"/>
        <path fill="#C5CFD6" d="M15.1932521,7.26097554 C15.2281511,6.71500014 15.875787,6.3875444 16.38562,6.53001406 C17.0567008,6.71763582 17.0437947,7.34467924 17.0260773,7.90332582 C16.9717657,9.62047254 17.2203067,11.2892588 17.6330798,12.9553781 C18.4909844,16.4194254 20.0765073,19.6109759 21.3326392,22.938468 C22.5876762,26.2631745 23.1768171,29.6958335 22.4405597,33.2138476 C21.7464886,36.5308444 20.6560817,39.7618684 19.9457669,43.083052 C19.3196821,46.0102488 18.6534978,49.097142 19.606945,52.0168849 C20.5243956,54.8273497 22.5527528,57.1161659 24.0133458,59.6560042 C27.0369418,64.9136312 28.3783448,70.7463401 28.5577635,76.7487118 C28.6409124,79.5359828 28.5660347,82.348884 27.9194197,85.0825902 C27.5472497,86.6566653 27.0471159,88.7839579 25.6982391,89.8707037 C25.0762374,90.3718592 24.0124171,90.5451513 23.4889086,89.8029968 C22.9974103,89.1069149 23.428588,88.0293101 23.5846217,87.287396 C24.2603612,84.0757699 24.3963048,80.7936156 24.2345231,77.5325451 C24.0779445,74.3737699 23.7047345,71.2202701 22.710581,68.2035086 C21.7878733,65.4039105 20.3861095,62.8893273 18.736318,60.4402739 C17.0551921,57.9445175 15.3075141,55.4434361 14.6128788,52.4862216 C13.907109,49.482741 14.4804762,46.4266031 15.2471468,43.4804826 C16.0579196,40.3643181 17.1199052,37.3375472 18.2178089,34.3058135 C19.2877539,31.3516151 19.6669969,28.5564181 19.0763425,25.4645063 C17.9095331,19.3559189 14.7863274,13.6223257 15.1932521,7.26097554 Z"/>
      </g>
      <g transform="translate(20.79 7.146)">
        <path fill="#DDE3E9" d="M59.0498885,1.0279533 C61.3528655,1.72721191 63.6401545,2.85543542 65.2818216,4.62452233 C68.772552,8.38654387 67.7015003,14.0724112 65.7744813,18.2253106 C63.700283,22.6951249 60.5570771,27.188021 62.3289619,32.3165992 C63.1433614,34.6743298 64.5128465,36.8096602 65.2854038,39.1854922 C66.1108039,41.7243084 66.4670618,44.368348 66.4216726,47.0178146 C66.3376439,51.884091 65.0432154,57.0764738 61.5288713,60.6615932 C58.4346318,63.8180513 53.3751557,65.6616836 52.2180851,70.2982349 C51.0109699,75.1349883 53.9620672,80.5509556 55.2723527,85.1335211 C56.7552714,90.3195879 57.5170274,96.445088 55.7817744,101.613888 C54.1190465,106.567552 49.921708,110.461658 45.1702803,112.656274 C35.6766544,117.041706 24.6540582,116.366938 15.1345601,112.118602 C11.0929292,110.314676 6.59454525,108.098723 4.08286073,104.35794 C3.3066157,103.201736 3.07708965,102.18904 2.90791967,100.847736 C2.75628873,99.6450054 2.27199313,98.6916238 1.69224824,97.6310234 C0.418383873,95.3012611 -0.0897819298,92.697403 0.0128415138,90.080473 C0.412205461,79.9164553 7.94780045,70.4654814 16.2132886,64.9484889 C18.171723,63.6414766 19.8916445,62.3106979 20.3017404,59.8993482 C20.7300249,57.3822775 20.2116983,54.7107884 19.8156695,52.2082139 C19.4244628,49.7349756 18.816886,47.2715883 18.7681383,44.7634603 C18.7173009,42.1361194 19.4468069,39.7320246 20.6907749,37.4330384 C23.0276678,33.1146228 26.7841815,29.8392129 31.0993574,27.4466134 C35.2557244,25.1419762 39.7997428,23.1882877 41.8339658,18.6552368 C43.9902277,13.8509369 42.713988,8.16040376 46.2565674,3.87483155 C47.723463,2.1002439 49.7809818,0.524547963 52.1434059,0.118417171 C54.4090444,-0.27113638 56.883966,0.370308899 59.0498885,1.0279533 Z"/>
        <path fill="#C5CFD6" d="M54.3455878,8.97249504 C54.6723369,8.34422328 55.6011202,8.29588387 56.1226573,8.73182018 C56.8090955,9.30574189 56.4656054,10.0415444 56.1523107,10.6938272 C55.1894895,12.6988666 54.6061241,14.8053699 54.2161936,16.9947938 C53.4051376,21.5466943 53.5876057,26.1572608 53.3137179,30.7561705 C53.0400088,35.3512076 51.931124,39.7250698 49.2277369,43.5053319 C46.6789565,47.0696532 43.7117634,50.3244312 41.1417964,53.8851969 C38.8766613,57.0235369 36.4810005,60.3299777 36.0667296,64.2873704 C35.6675995,68.0964853 36.8406628,71.8701046 37.2183678,75.643411 C38.0003296,83.4544352 36.5141032,91.0648041 33.5803017,98.2670633 C32.2177626,101.611429 30.6570183,104.90332 28.4692131,107.801761 C27.2096477,109.470771 25.5107187,111.727851 23.3643085,112.307827 C22.3745284,112.575304 21.0398366,112.222942 20.8163791,111.06967 C20.606222,109.987737 21.6747712,108.937592 22.2457825,108.140773 C24.7179422,104.691628 26.5958513,100.876037 28.1145855,96.9293673 C29.5858291,93.1065667 30.8010009,89.1764704 31.2184846,85.0828496 C31.6057764,81.283848 31.2836341,77.5712837 30.6371512,73.8063235 C29.9784883,69.9696324 29.2447943,66.0917535 29.9813211,62.2256367 C30.7290587,58.298894 33.0000805,54.9802264 35.4395145,51.8931614 C38.0195741,48.6278397 40.8465613,45.6000489 43.718147,42.585207 C46.516433,39.647531 48.4238022,36.5361326 49.3524591,32.5650019 C51.1873239,24.7194376 50.5381635,16.292549 54.3455878,8.97249504 Z"/>
      </g>
      <g transform="translate(0 37.031)">
        <path fill="#C5CFD6" d="M8.64447429,-1.56319402e-13 C12.4738087,-1.56319402e-13 15.8404339,2.02979916 18.1602427,4.9101517 C20.8757991,8.28201351 21.4242577,12.3997271 22.5269557,16.4183859 C23.0756551,18.418304 24.0193797,20.4036344 25.6731858,21.7624022 C27.1774123,22.9981163 29.0870213,23.2454003 30.8875166,23.8491402 C34.4858578,25.055679 37.3914598,27.9621481 38.5389594,31.508591 C39.9388897,35.8345314 38.4561005,40.1971761 38.7114216,44.5812317 C38.9457871,48.6074197 42.9155481,51.1193167 46.1094702,53.0493552 C49.2588316,54.9525714 52.0960269,56.7341454 53.0445688,60.4417582 C54.0504375,64.3740676 54.3878949,68.7632995 52.9947089,72.6478461 C50.675141,79.1158164 43.8867316,81.9639349 37.3273886,82.4055639 C31.3745536,82.8062533 23.8895513,82.1771027 19.4190238,77.8561033 C16.7439333,75.2703269 15.7751584,71.6540045 15.895352,68.0560343 C15.9700214,65.8187143 16.4132202,63.6020992 16.9862475,61.4400702 C17.3923525,59.9076624 17.9410519,58.3818426 18.0973759,56.7983781 C18.5128748,52.5856096 14.6192284,51.7764662 11.3048717,50.6198078 C7.09327831,49.1497504 4.1448016,46.3731583 2.09452518,42.5048462 C0.18515708,38.9031115 -0.615973017,34.8599831 0.52863619,30.8944985 C1.11322511,28.8696403 2.17353019,27.0325392 3.61151777,25.470015 C4.24452134,24.7822784 5.1366999,24.2086549 5.70804103,23.4860963 C6.24132486,22.8113004 6.12522603,21.9369833 5.94144303,21.1466627 C5.09165741,17.4959888 2.44402601,14.4730539 1.4971702,10.828968 C0.64232633,7.539691 1.14766937,3.44597642 4.1549181,1.32394574 C5.45416516,0.407042141 7.05642536,0.0101172324 8.64447429,-1.56319402e-13 Z"/>
        <path fill="#AFB9C5" d="M13.8624267,9.51204179 C17.921111,13.835356 19.0243105,19.7011818 19.3480781,25.3865459 C19.5294358,28.5746225 19.3406709,31.9372787 20.2773271,35.0295954 C21.0787417,37.6762872 22.9575498,39.6994806 24.8941821,41.6116208 C28.7925358,45.460841 33.1401022,49.374058 34.2803378,54.9448396 C34.9493779,58.2140887 34.4977758,61.5908618 35.422246,64.8241126 C36.2628471,67.7630252 37.7428596,70.6504109 39.5430555,73.1321698 C40.9924832,75.1306585 42.8808491,76.6607 44.4652796,78.5236662 C44.9486611,79.0923437 45.6411176,79.9294786 45.4416003,80.7322621 C45.2081531,81.6724506 44.0105712,81.9700829 43.1608902,81.8223255 C41.1798145,81.4781074 39.5122318,79.5864368 38.2169223,78.2112111 C36.3228218,76.2002524 34.7133023,74.0373012 33.4050899,71.611069 C31.9527948,68.9166149 30.7834082,66.057463 30.2837786,63.0345546 C29.7652724,59.8984754 30.0233308,56.6301675 28.8393686,53.6204349 C26.8470626,48.5562164 22.0146811,45.5676592 18.5208577,41.6205615 C14.1677957,36.702218 14.8170036,30.5808756 15.2628711,24.5308238 C15.5077876,21.2060481 15.7512704,17.4514114 14.0712628,14.4157977 C13.42994,13.2570319 12.0001056,12.1766151 11.7243655,10.8595041 C11.4718028,9.65274067 12.8502645,8.43327194 13.8624267,9.51204179 Z"/>
      </g>
      <path fill="#C4EFD6" d="M18.190719,117.590005 C18.1909658,142.315408 22.2259591,155.27078 43.5278524,155.27078 C64.8297457,155.27078 68.864739,142.315408 68.8648649,117.590005 L18.190719,117.590005 Z"/>
    </g>
    <g transform="translate(97.575 263.333)">
      <g transform="translate(14.942)">
        <rect width="24.687" height="5.847" x="13.643" y="93.552" fill="#AFB9C5" rx="1.299"/>
        <path fill="#DDE3E9" d="M20.1397246,74.7118817 C22.9288462,65.6720494 24.4916999,56.1435775 24.8282857,46.1264661 L26.63641,46.1264661 L27.7948657,46.1264661 C28.1314516,56.1435775 29.6943053,65.6720494 32.4834268,74.7118817 L36.7062723,74.7118817 C42.2677037,74.7118817 46.7761346,79.2203126 46.7761346,84.781744 C46.7761346,90.3431754 42.2677037,94.8516063 36.7062723,94.8516063 L15.2672106,94.8516063 C9.70577922,94.8516063 5.19734829,90.3431754 5.19734829,84.781744 C5.19734829,79.2203126 9.70577922,74.7118817 15.2672106,74.7118817 L20.1397246,74.7118817 Z"/>
        <path fill="#C5CFD6" d="M3.00291235,1.09054338 C10.4476325,0.363514459 17.8923527,9.48336544e-16 25.3370729,0 C32.7817931,0 40.2265133,0.363514459 47.6712335,1.09054338 L50.6741458,52.7095966 C42.2284549,53.5181912 33.7827639,53.9224885 25.3370729,53.9224885 C16.8913819,53.9224885 8.44569097,53.5181912 0,52.7095966 L3.00291235,1.09054338 Z"/>
      </g>
      <path fill="#F2F2F2" d="M13.6430393,99.3992861 L67.5655278,99.3992861 L81.2085671,99.3992861 L81.2085671,166.964814 L67.5655278,166.964814 L67.5655278,113.691994 L13.6430393,113.691994 L13.6430393,166.964814 L0,166.964814 L0,99.3992861 L13.6430393,99.3992861 Z"/>
    </g>
    <g transform="translate(378.482 247.091)">
      <g transform="translate(8.446)">
        <path fill="#C4EFD6" d="M2.19648003,0.135252548 C7.93500277,13.7711701 17.6899549,23.2454871 22.8565703,37.4240802 C25.9203237,45.8324024 27.1974326,54.9746309 27.2748941,64.3379408 C27.3169782,69.4237456 27.2284507,74.5128153 27.2046422,79.59862 C27.1815044,84.5582592 27.0467012,89.486182 26.6256929,94.4141048 C26.2026726,99.3681469 25.7290173,104.263187 25.5201059,109.24778 C25.3574703,113.131629 25.2831945,117.649106 23.9666842,121.191772 C22.9197802,124.00916 20.2589272,124.421939 19.5528873,121.004972 C19.1605498,119.105491 19.2100112,116.984696 19.2532689,115.03251 C19.3087662,112.527853 19.4544676,110.026928 19.5287435,107.522739 C19.8273559,97.4737966 19.4402161,87.4229889 19.6425884,77.3700823 C19.8402662,67.5480519 21.1027881,57.736749 19.7057984,47.9802501 C18.5522591,39.9233727 15.6216321,33.0047845 12.2537332,26.3721097 C9.01342789,19.9908333 5.48674971,13.7646403 3.29703701,6.50603459 C2.66829102,4.42138635 2.18222846,2.26117864 1.94900561,0.0195812726 C2.05094629,-0.0277599952 2.13343777,0.0107193604 2.19648003,0.135252548 Z"/>
        <path fill="#72C996" d="M0.632509753,27.0372267 C1.7688294,27.8577816 2.40378127,29.0580997 3.17182883,30.2424277 C4.12694298,31.7148427 5.24983095,33.044147 6.20470089,34.517628 C8.19576344,37.5895788 9.94505586,40.8502119 11.7600414,44.0466184 C15.2058764,50.1137678 17.8221223,56.5801349 19.1179126,63.599224 C20.46108,70.873354 20.8232468,78.3814713 21.3866445,85.764067 C21.9842319,93.588787 22.5859709,101.470538 22.6650956,109.325372 C22.7005064,112.844511 22.8907478,116.580314 22.4682606,120.074668 C22.2052439,122.250112 21.2235107,124.104155 19.010215,124.086566 C14.3088847,124.049256 12.1016943,118.842104 11.1795488,114.571434 C9.8222171,108.283089 9.5513857,101.603522 9.76629249,95.1725992 C10.0258901,87.4182354 11.3717439,79.7803323 11.9541901,72.0558165 C12.5710703,63.8785164 12.2225794,55.8456597 9.41120786,48.1461949 C7.99086936,44.2552882 6.3424366,40.4576567 4.8622661,36.5926006 C4.23195425,34.9469603 3.71568954,33.2565479 2.8643656,31.7241702 C1.91731045,30.0196333 0.741672633,28.4723316 -3.0475622e-14,26.63641 C0.21075518,26.7701932 0.421754573,26.90371 0.632509753,27.0372267 Z"/>
        <path fill="#C4EFD6" d="M54.7892391 10.7310106C54.9333814 10.6189862 55.0777012 10.5069854 55.2218256 10.3946966 54.8066482 12.1440315 54.0566833 13.5650101 53.4834124 15.1641125 52.9680989 16.6017121 52.7069028 18.228546 52.3598183 19.7999158 51.5447937 23.4905569 50.6029594 27.0980096 49.8331531 30.8200916 48.3092842 38.1854067 48.5974988 46.1200891 49.5969203 54.2915993 50.5408018 62.0106189 52.033563 69.717693 52.7448637 77.435038 53.3344866 83.8352224 53.5879152 90.4349911 53.0254865 96.541394 52.6432812 100.688468 51.390441 105.639998 47.9768115 105.221459 46.3697421 105.024443 45.5314134 103.090137 45.193665 100.90665 44.6511412 97.3993753 44.5375721 93.711959 44.3261018 90.2244676 43.854156 82.4402791 43.7601451 74.6800301 43.6669615 66.9759527 43.578735 59.7071417 43.3358269 52.2943166 43.8215183 45.2086598 44.2899744 38.3714083 45.7551731 32.2103967 47.8500875 26.5257875 48.9534691 23.5308778 50.0047868 20.465891 51.2445005 17.6115008 51.8390238 16.2423589 52.5653526 15.0325185 53.1601252 13.6644577 53.6383869 12.5640478 54.0188591 11.4348793 54.7892391 10.7310106zM2.08466141 49.5708932C2.70633825 48.5272026 4.0747634 51.9692011 4.28302604 52.402118 4.19494217 52.1867745 4.10650796 51.97174 4.0172917 51.7568925 5.25126277 53.8087489 6.38015097 55.9447309 7.08202561 58.2974551 7.77656506 60.6264914 8.37312366 63.0026052 9.024812 65.3481955 10.2476048 69.7490634 11.8250495 74.0250235 12.9329273 78.4655366 14.012429 82.7926043 14.2846168 87.0464175 14.023289 91.5221835 13.7516892 96.1740009 13.5855265 100.89719 13.9023792 105.546499 14.0537052 107.767029 14.7752316 109.83541 15.2697565 111.973174 15.7648837 114.113046 16.1548488 116.281448 16.7401899 118.394788 16.8745523 118.119482 16.8916682 119.039874 16.8913784 119.109741 16.8877048 119.637707 16.8139831 120.080433 16.6441195 120.581054 16.20763 121.868422 15.3910504 122.962109 14.1484646 123.317192 11.9029125 123.958783 9.81794966 121.916169 9.09380025 119.759254 8.05496408 116.664413 7.48252305 113.244341 6.98744647 109.991518 6.53356333 107.008709 6.42615807 104.008094 6.5610034 100.984209 6.82662988 95.020943 7.90579294 89.1357475 8.19771443 83.1742976 8.51543422 76.6840927 7.22953794 70.5860168 6.15289639 64.2683472 5.63430445 61.224238 5.13871157 58.2088512 4.12949097 55.308665 3.7208917 54.1342746 3.18816236 53.0978746 2.62959459 52.0133926 2.3117694 51.3963877 1.66903179 50.2957887 2.08466141 49.5708932z"/>
        <path fill="#30AB63" d="M20.3035014,39.4329624 C20.0459371,46.8682701 19.6018131,54.2471763 18.6105274,61.6041343 C17.5988295,69.1119219 16.4368264,76.5939332 15.4633806,84.1083562 C14.5157896,91.4229493 13.5225545,98.8590226 13.6549721,106.2757 C13.7524951,111.73874 12.8466371,120.980429 18.9140402,123.676729 C25.05907,126.407228 26.3772056,114.746653 26.7807113,110.89782 C27.5539607,103.513555 27.3036235,96.05145 26.9283559,88.6268612 C26.5430951,81.0067809 25.8999666,73.4254927 25.1028977,65.8332304 C24.2175868,57.4000489 23.522944,48.9288411 22.9654341,40.4716698 C22.6896022,36.2885117 22.6216501,32.1122443 22.6977548,27.9280653 C22.769694,23.979701 22.6196789,19.990503 21.2158968,16.2417134 C21.1423433,16.2950524 21.0692788,16.3483915 20.9957206,16.4014753"/>
        <path fill="#72C996" d="M52.0272408,62.9887592 C50.9221142,64.5986834 49.8081011,66.1929428 48.7644517,67.8982805 C46.8970635,70.9493754 45.2084329,74.3426058 44.7004335,78.7052798 C43.6373491,87.835423 44.4902259,97.6964761 44.6960736,107.106095 C44.7381777,109.028962 44.4949872,110.893796 45.25287,112.723741 C45.9400236,114.383152 47.2247473,115.647737 48.4493601,115.640972 C51.0709657,115.62602 50.6709812,109.20626 50.6753014,106.380526 C50.6832069,101.427926 50.1278547,96.4251273 50.1756532,91.4771557 C50.223378,86.5751108 50.5214869,81.6595371 51.2322108,77.0038583 C51.9517645,72.2915723 53.0055219,67.766553 54.3961844,63.543795 C54.5891682,62.9577854 55.9741038,58.4295619 54.6656423,59.2099586"/>
        <path fill="#30AB63" d="M40.4497891,14.2927078 C38.7261901,14.2927078 38.7367568,22.8852221 38.6849063,23.9888893 C38.4976547,27.9717348 38.5416416,31.9556459 38.4231964,35.9392906 C38.1639439,44.6327679 37.8454688,53.4024337 36.5396226,61.9954808 C35.8365691,66.6213996 35.0214596,71.2268061 34.1446702,75.817561 C33.2654233,80.4216356 32.0851487,85.0201159 31.5066839,89.6825305 C30.9513184,94.164597 31.2651245,98.7348396 31.3413029,103.239017 C31.4174814,107.770366 31.5543569,112.310772 32.1480574,116.802429 C32.2945166,117.911158 32.4662867,119.015891 32.650098,120.117959 C32.8031921,121.036217 32.7139896,122.175048 32.9729963,123.047752 C33.3882918,124.445518 35.1684104,124.902915 36.3671152,124.684473 C39.6105974,124.09228 41.6824057,120.01966 42.7904337,117.044048 C44.2053871,113.244481 44.9561135,109.123111 45.6970104,105.118954 C46.5364479,100.582543 47.0284133,95.9768703 47.2591603,91.3584105 C47.7282722,81.9720443 47.1262166,72.5755552 46.4538803,63.2192914 C46.0798686,58.015832 45.6478631,52.8352825 44.9868306,47.6640567 C44.3285013,42.5149416 43.4839034,37.3887362 42.9339441,32.2244367 C42.5343758,28.4714886 42.1407051,24.713479 41.8819441,20.9461456 C41.8200184,20.0478676 41.7679222,14.2927078 40.4497891,14.2927078"/>
        <path fill="#72C996" d="M38.2919786,76.7509981 C38.0110373,67.7296958 34.3847005,28.1039513 33.5596551,17.1948631 C33.3533389,14.4643305 31.3669966,3.0954361 31.1093208,-1.2490009e-14 C30.410699,0.874935905 30.470399,14.4937448 30.478081,17.623035 C30.4862019,20.7184711 30.1023221,23.762571 29.9047853,26.8413575 C29.7035172,29.9828575 25.0592074,70.5545761 24.4565007,73.5731466 C23.2574522,79.5783758 22.4550138,85.7409437 21.8360652,91.8810347 C21.233139,97.8657295 20.2957171,104.179531 21.1025452,110.195583 C21.2880103,111.580551 21.5814622,112.94332 22.0592818,114.215626 C22.5755113,115.590327 22.9293217,116.861523 23.34371,118.300048 C24.0105064,120.617115 25.2167979,122.650585 27.0703516,123.607104 C30.8705208,125.568426 32.911076,121.128535 33.9455104,117.263056 C35.5975765,111.089943 36.6579102,104.8161 37.1550445,98.3330279 C37.7050748,91.160385 38.516951,83.9730349 38.2919786,76.7509981"/>
      </g>
      <g transform="translate(0 103.297)">
        <rect width="59.12" height="59.12" x="6.497" fill="#FFF" rx="1.299"/>
        <rect width="6.497" height="73.413" y="6.497" fill="#C5CFD6" rx="1.299"/>
        <rect width="6.497" height="73.413" x="32.483" y="6.497" fill="#C5CFD6" rx="1.299"/>
        <rect width="6.497" height="73.413" x="65.617" y="6.497" fill="#C5CFD6" rx="1.299"/>
      </g>
    </g>
    <g transform="translate(79 172)">
      <g transform="translate(0 57)">
        <g transform="translate(64.258 .15)">
          <path fill="#F2DDCA" d="M5.17692634,21.6088904 C2.28972984,18.2201785 0.335614858,14.0672652 0.662148618,9.41380671 C1.60298331,-3.99410307 20.2687496,-1.04453375 23.8996276,5.72262773 C27.5305055,12.4897892 27.0990628,29.6552555 22.4064766,30.864736 C20.5350801,31.347075 16.54845,30.165538 12.49099,27.7201194 L15.037777,45.7362483 L0,45.7362483 L5.17692634,21.6088904 Z" transform="translate(10.835 9.422)"/>
          <path fill="#723207" d="M18.9795262,9.28851414 C26.5338508,6.67164067 36.3371307,9.72966714 35.0252325,15.8633222 C34.1828181,19.8019508 29.6209279,21.7692266 25.1328406,23.8745446 C24.4722365,22.7276747 23.212302,21.9527214 21.7666278,21.9527214 C19.6361448,21.9527214 17.9090471,23.6357474 17.9090471,25.7118651 C17.9090471,26.4596893 18.1331316,27.1565112 18.519437,27.7420458 C17.0096466,29.0552983 15.9443495,30.6360282 15.6867107,32.6861872 C13.2532478,32.6861872 9.32009314,25.5418322 10.6185823,18.763577 C10.2781445,18.8009295 9.93223645,18.8201017 9.58185015,18.8201017 C4.39114084,18.8201017 0.183239532,14.6125368 0.183239532,9.42224243 C0.183239532,4.23194809 4.39114084,0.0243831903 9.58185015,0.0243831903 C14.7279061,0.0243831903 18.9079907,4.15986787 18.9795286,9.28851331 Z"/>
        </g>
        <g transform="translate(.891 107.937)">
          <g transform="translate(34.67 26.314)">
            <polygon fill="#C5CFD6" points="17.279 0 65.603 0 71.935 78.234 0 78.234"/>
            <polygon fill="#000" fill-opacity=".1" points="17.279 0 32.141 0 41.037 78.234 0 78.234"/>
          </g>
          <path fill="#F2DDCA" d="M155.626838,13.0042101 C160.787802,9.90543567 169.446677,13.8867248 169.440732,18.3185675 C169.422944,31.5786306 157.320711,94.0732605 156.688837,98.0238763 C156.056963,101.974492 149.288012,103.017999 148.893834,98.0368231 C148.266629,90.1109316 147.101362,62.6731463 148.267259,49.9732119 C148.748517,44.7309457 149.266807,39.7383865 149.777051,35.2843218 C143.426569,46.751595 133.605226,63.1699022 120.313021,84.5392435 L113.097046,81.2427231 C118.763527,62.5747678 123.409956,49.3956881 127.036333,41.705484 C133.245571,28.5379876 139.067747,17.2617824 141.518113,13.2898305 C145.37254,7.04194772 152.081787,9.22192663 155.626838,13.0042101 Z"/>
          <path fill="#A1498E" d="M124.839962,77.2761617 L128.048091,13.6769275 C130.359432,2.67968153 149.919688,7.78297558 149.911492,13.6763658 C149.892887,27.0561859 141.853992,73.2763654 141.848449,77.2626608 L124.839962,77.2761617 Z" transform="rotate(20 137.376 42.24)"/>
          <path fill="#9DA0A2" d="M1.72262561,15.4523949 C0.984034912,17.3946044 0.614739564,18.8391699 0.614739564,19.7860913 C0.614739564,20.897421 0.799416061,22.5191274 1.16876906,24.6512106 C2.45476645,24.6512106 14.0122416,24.6512106 35.8411945,24.6512106 C36.7422079,21.665029 36.2220907,20.0528857 34.2808429,19.8147806 C32.3395951,19.5766755 30.7269675,19.3616856 29.4429602,19.1698111 L13.237027,11.9270183 C12.976005,11.8103617 12.6698361,11.927393 12.5531795,12.188415 C12.5510562,12.193166 12.5490046,12.1979487 12.5470255,12.2027616 L11.4730155,14.8145733 C9.67592772,15.6551532 8.21560734,16.0754431 7.09205433,16.0754431 C6.14540364,16.0754431 4.82471997,15.6779756 3.13000333,14.8830406 L3.12998455,14.8830806 C2.61232057,14.6402617 1.99582739,14.8630677 1.75300849,15.3807317 C1.74198614,15.4042301 1.73185135,15.4281348 1.72262561,15.4523949 Z" transform="rotate(30 -58.04 253.035)"/>
          <path fill="#9DA0A2" d="M1.72262561,15.4523949 C0.984034912,17.3946044 0.614739564,18.8391699 0.614739564,19.7860913 C0.614739564,20.897421 0.799416061,22.5191274 1.16876906,24.6512106 C2.45476645,24.6512106 14.0122416,24.6512106 35.8411945,24.6512106 C36.7422079,21.665029 36.2220907,20.0528857 34.2808429,19.8147806 C32.3395951,19.5766755 30.7269675,19.3616856 29.4429602,19.1698111 L13.237027,11.9270183 C12.976005,11.8103617 12.6698361,11.927393 12.5531795,12.188415 C12.5510562,12.193166 12.5490046,12.1979487 12.5470255,12.2027616 L11.4730155,14.8145733 C9.67592772,15.6551532 8.21560734,16.0754431 7.09205433,16.0754431 C6.14540364,16.0754431 4.82471997,15.6779756 3.13000333,14.8830406 L3.12998455,14.8830806 C2.61232057,14.6402617 1.99582739,14.8630677 1.75300849,15.3807317 C1.74198614,15.4042301 1.73185135,15.4281348 1.72262561,15.4523949 Z" transform="translate(145.63 78.942)"/>
          <path fill="#C85CB0" d="M171.176575,22.8261645 C171.176575,39.4710088 163.271233,78.2968818 163.26623,81.961933 L146.257492,81.9749966 C148.747044,47.3310531 149.629821,29.8224728 148.905822,29.4492557 C147.819823,28.88943 104.387207,33.7853231 91.3610582,33.7853231 C72.5772878,33.7853231 64.8068182,21.9411175 64.1762926,-4.54747351e-13 L101.386243,-4.54747351e-13 C108.962523,0.810638622 148.481094,8.78089401 163.157508,11.520781 C169.440732,12.6937736 171.176575,18.2409384 171.176575,22.8261645 Z"/>
        </g>
        <g transform="translate(58.423 41.525)">
          <path fill="#39CB76" d="M18.6081397,1.43281856 C18.7544193,0.956574211 18.9029385,0.478971804 19.0536282,9.9475983e-14 L19.6099964,0.261754384 C19.6968196,0.172178119 19.7842933,0.084912085 19.8724221,-8.52651283e-14 L37.4105239,2.71158452 C37.4105239,12.5735639 45.2578914,21.800804 50.2222092,29.7398625 C57.9392903,42.0812076 71.6710736,55.7604492 62.8668115,74.0950294 C54.9337203,90.6154255 34.2697436,93.298236 0.874881272,82.1434609 C0.874881272,73.2453244 8.18907766,64.2999302 8.42216358,53.4804276 C8.64405115,43.180736 10.5700605,11.9744604 18.6081397,1.43281856 Z"/>
          <path fill="#F2DDCA" d="M40.3939739,69.4108475 C41.5668387,63.358443 42.3277038,59.3177849 42.6765691,57.2888734 C52.0200249,67.8463474 57.4178079,73.186316 58.8699179,73.308779 C61.6008914,73.5390943 63.61886,71.1175168 64.1934508,71.7982956 C65.1431503,74.6176574 62.4607956,81.6749816 57.3335302,82.7011613 C54.8851577,83.1911828 51.0964431,78.1426305 49.535428,76.3538148 C48.921454,75.6502428 45.8743026,73.3359204 40.3939739,69.4108475 Z M56.5334076,37.1417936 C58.9554635,37.1417936 60.2564781,38.1430368 61.6885775,40.1630929 C63.120677,42.1831489 64.475836,51.7101775 62.1765651,51.7101775 C59.8772941,51.7101775 50.2439757,48.0273343 50.2439757,45.5514301 C50.2439757,43.075526 56.8171926,42.0270035 56.8171926,40.1630929 C56.8171926,38.2991823 54.1113516,37.1417936 56.5334076,37.1417936 Z"/>
          <path fill="#000" fill-opacity=".2" d="M35.5042375,78.6210028 C35.3603589,79.1360195 35.2136814,79.660707 35.0642047,80.1950655 C7.6227792,61.01749 7.60961397,37.7771565 15.7708583,11.7276391 C9.61950311,37.3727009 12.1255499,59.0018262 35.5042375,78.6210028 Z"/>
        </g>
      </g>
      <g transform="matrix(-1 0 0 1 354 0)">
        <g transform="rotate(15 29.647 253.26)">
          <path fill="#B28B67" d="M5.19371386,21.4917576 C2.29715488,18.1214144 0.336703176,13.9910124 0.664295807,9.36277838 C1.60818139,-3.97245269 20.3344763,-1.03887176 23.9771283,5.69160774 C27.6197803,12.4220872 27.1869386,29.4945067 22.4791354,30.6974311 C20.6016699,31.1771557 16.6021104,30.0020225 12.5314919,27.5698581 L15.0865409,45.4883311 L0,45.4883311 L5.19371386,21.4917576 Z" transform="translate(33.945 19.317)"/>
          <path fill="#191847" d="M44.3599127,39.8710385 C42.48912,43.4307493 39.901706,46.1114589 37.3167715,46.1114589 C32.4069098,46.1114589 28.91587,39.6043092 28.91587,32.6080102 C28.91587,32.3621969 28.9207834,32.1180187 28.9304779,31.8756644 C23.73672,35.4086813 19.7339546,42.372692 12.8617447,42.372692 C3.51216505,42.372692 -0.200942824,23.6788573 12.8617447,23.6788573 C21.7453648,23.6788573 26.1151644,24.9628004 29.881078,26.8614495 C30.6238387,24.7857416 31.7564264,23.0405804 33.1413561,21.8218748 C33.4745305,21.4500874 33.9853242,21.094374 34.644305,20.7646095 C35.0471798,20.5461089 35.4640839,20.368149 35.8925623,20.2342278 C38.163734,19.4068718 41.4533854,18.8233142 45.1279945,18.6961123 C45.8141613,18.6723596 46.4880575,18.6654089 47.1454709,18.6741649 C47.1561703,15.2417707 49.9664212,12.4625565 53.431499,12.4625565 C56.9031933,12.4625565 59.7175577,15.2523948 59.7175577,18.6938347 C59.7175577,22.0220174 57.0853858,24.7407809 53.772045,24.9161245 C51.8766474,25.4958687 49.4414004,25.9215284 46.7407363,26.101027 C47.0029433,27.0784896 47.1454403,28.1889239 47.1454403,29.4437631 C47.1454403,30.5517733 47.02207,31.7268786 46.7949032,32.9200367 C46.2091613,32.2298856 45.4259538,31.779519 44.6310168,31.779519 C42.4072819,31.779519 40.8593816,33.5929139 40.8593816,35.5182859 C40.8593816,37.9618844 42.2824752,39.7296493 44.3599127,39.8710385 Z"/>
        </g>
        <g transform="translate(0 141)">
          <polygon fill="#997659" points="74.385 0 95.672 72.722 105.685 127.323 115.734 127.323 105.703 0"/>
          <path fill="#B28B67" d="M64.8181882,0 C66.3035497,37.7787958 65.7177448,58.3843776 65.3853031,61.8167454 C65.0528615,65.2491132 63.1655656,88.2368118 50.3049642,128.47535 L60.7573776,128.47535 C77.7891291,89.873348 83.7347505,66.8856495 85.6881634,61.8167454 C87.6415764,56.7478413 93.4108767,36.1422595 101.833799,0 L64.8181882,0 Z"/>
          <path fill="#6E7276" d="M73.9279684,1.13686838e-13 C79.4651445,25.0239017 89.0420861,64.9684053 102.658793,119.833511 L117.3574,119.833511 C118.44306,63.5197273 113.824714,26.455837 105.826892,1.13686838e-13 L73.9279684,1.13686838e-13 Z"/>
          <path fill="#9DA0A2" d="M64.7439145,0 C66.1986318,37.7787958 62.4286398,74.9980651 50.7505884,120.421708 L66.4331935,120.421708 C83.496257,82.3958278 95.7259041,45.3602219 104.084055,0 L64.7439145,0 Z"/>
          <path fill="#191847" d="M0,20.9781802 L0.561917152,11.9065347 C3.85186309,12.8700711 7.97258888,12.4920859 12.9240945,10.772579 C18.2713675,14.5654614 25.0089195,17.1501034 33.1367505,18.5265049 L33.1367478,18.5265208 C33.7005207,18.6219925 34.0801538,19.1564159 33.9846821,19.7201888 C33.9784466,19.7570104 33.9702233,19.7934677 33.9600483,19.8294008 L33.153112,22.6791137 L12.9240945,22.6791137 L1.1238343,22.6791137 L0,20.9781802 Z" transform="translate(48.815 114.648)"/>
          <path fill="#191847" d="M0,20.9781802 L0.561917152,11.9065347 C3.85186309,12.8700711 7.97258888,12.4920859 12.9240945,10.772579 C18.2713675,14.5654614 25.0089195,17.1501034 33.1367505,18.5265049 L33.1367478,18.5265208 C33.7005207,18.6219925 34.0801538,19.1564159 33.9846821,19.7201888 C33.9784466,19.7570104 33.9702233,19.7934677 33.9600483,19.8294008 L33.153112,22.6791137 L12.9240945,22.6791137 L1.1238343,22.6791137 L0,20.9781802 Z" transform="translate(103.442 114.648)"/>
        </g>
        <g transform="translate(18 64)">
          <path fill="#997659" d="M92.0024744,24.6115978 L112.132487,13.6543604 C115.479985,9.70367316 118.778203,6.63541099 122.027141,4.44957389 C123.019912,4.03766055 124.756017,3.78834117 123.132429,6.65230399 C121.508841,9.51626681 119.930671,12.601295 120.757825,13.48362 C121.584979,14.3659449 123.647562,13.1333759 124.634344,14.5993663 C125.292199,15.5766932 121.76844,17.1205947 114.063066,19.2310706 L99.4361579,32.5411056 L92.0024744,24.6115978 Z M123.529811,33.8565206 L132.372065,29.0289658 C133.612758,24.3370549 135.095856,21.9763959 136.821358,21.9469888 C138.146903,21.3340241 135.838476,27.2626917 138.35129,26.7485587 C140.864103,26.2344257 146.997162,21.7011372 148.053918,22.6215661 C149.617321,23.9832812 148.223295,28.164536 146.580801,30.2444863 C143.510981,34.1319108 140.969303,35.4612927 134.68715,37.2021263 C131.402516,38.112324 127.851246,39.9367368 124.03334,42.6753649 L123.529811,33.8565206 Z"/>
          <path fill="#087DB2" d="M82.848409,20.0157687 C89.8240083,21.0456448 99.3420775,21.0547021 110.240944,16.3731064 L112.766331,25.6140725 C104.863769,31.2727973 94.3760753,35.2894216 86.0100237,33.7239486 C79.417114,32.4902697 77.293486,23.9934382 82.848409,20.0157687 Z" transform="rotate(-9 96.214 25.219)"/>
          <path fill="#0A9CDF" d="M91.6929121,36.1743756 C99.178233,38.029671 111.730653,35.841765 129.350172,29.6106576 C133.720541,38.5964921 135.740853,45.0027029 135.411108,48.8292901 C120.296157,56.6761369 107.341338,60.1746451 96.6682982,60.4055999 C97.007473,66.6995854 96.2366348,72.6884576 93.6471569,78.1606865 C88.3236296,89.4106608 57.1514196,78.9919301 46.6703674,81.0425909 C40.1068243,59.8579156 52.7976335,51.2485492 52.8078447,37.6933591 C52.819027,22.8489815 64.8122121,-1.42108547e-13 66.576769,-1.42108547e-13 L82.6685563,6.18001502e-15 C83.5564344,11.3368467 88.0253719,23.831034 91.6929121,36.1743756 Z"/>
        </g>
      </g>
    </g>
  </g>
</svg>
