<svg xmlns="http://www.w3.org/2000/svg" width="350" height="350" viewBox="0 0 350 350">
  <g fill="none" fill-rule="evenodd">
    <rect width="350" height="350"/>
    <g opacity=".511" transform="translate(255 185)">
      <g transform="translate(12.132)">
        <path fill="#DDE3E9" d="M13.9290187,0.647900777 C15.5087485,0.454611002 17.1948,0.522841503 18.6639025,1.14733191 C21.7877987,2.47541883 22.6757711,6.17149354 22.6329329,9.17566698 C22.5867499,12.4091273 21.9011311,15.9408835 24.3557626,18.5461607 C25.4841078,19.7439167 26.8876816,20.660549 27.9956411,21.8802981 C29.1795138,23.1837644 30.1084353,24.675189 30.7962321,26.2767423 C32.0591088,29.2184922 32.6789508,32.6779518 31.5241191,35.7638667 C30.5073101,38.4808337 27.9491324,40.9331293 28.5018926,44.0225837 C29.07847,47.2454601 32.3229099,49.7093762 34.3513478,52.1099131 C36.6469663,54.8265691 38.7606076,58.2987043 39.1078312,61.8613134 C39.4407839,65.2755595 37.9568423,68.7285785 35.6794682,71.3094695 C31.1292689,76.4665165 24.2896137,78.9946715 17.3931419,78.9790072 C14.4650878,78.9722137 11.1499361,78.8397717 8.62310423,77.2639157 C7.84215023,76.7768303 7.43014682,76.2303645 6.96589156,75.4706994 C6.5496369,74.7895007 5.99976769,74.3464098 5.36330512,73.8643935 C3.96499899,72.8056738 2.95517392,71.3787755 2.31072892,69.7815124 C-0.191790325,63.5776195 1.80836402,55.9026432 5.31132452,50.3935381 C6.14137151,49.0883185 6.82094412,47.8323059 6.41770392,46.2765609 C5.99691055,44.6525516 4.96269181,43.1877837 4.04793706,41.7918097 C3.14401399,40.4121521 2.11206543,39.0959774 1.40556483,37.604265 C0.665621082,36.04159 0.45725885,34.4052067 0.58799862,32.694989 C0.83371506,29.4824567 2.21841861,26.5179056 4.17885746,23.9343202 C6.06712285,21.4457623 8.2842616,19.0645978 8.28922955,15.8038373 C8.29468502,12.3478753 5.98771955,9.27358396 6.97052093,5.75993827 C7.37746501,4.30500129 8.19482772,2.81222718 9.51206795,1.93997088 C10.775326,1.10341294 12.4433016,0.82968751 13.9290187,0.647900777 Z"/>
        <path fill="#C5CFD6" d="M12.8967792,6.17275684 C12.9264032,5.70860801 13.4761483,5.43022879 13.9089197,5.55134621 C14.478566,5.71084866 14.4676107,6.24391568 14.4525713,6.71883665 C14.406469,8.17863073 14.6174428,9.59731226 14.9678249,11.0137265 C15.6960564,13.9586093 17.0419263,16.6718349 18.1081927,19.5006283 C19.1735299,22.3270536 19.6736216,25.2452523 19.0486501,28.2360137 C18.4594885,31.0558848 17.5338975,33.802668 16.9309474,36.6260984 C16.3994958,39.1145896 15.8340059,41.7388431 16.6433387,44.2209976 C17.4221159,46.6102518 19.1438851,48.556038 20.3837083,50.715225 C22.9502852,55.1848797 24.088934,60.1434274 24.2412334,65.2462102 C24.3118143,67.6157466 24.2482544,70.007072 23.6993758,72.3310715 C23.3834596,73.6692364 22.9589214,75.4777069 21.8139285,76.4015797 C21.285943,76.8276259 20.38292,76.9749463 19.9385402,76.3440202 C19.5213323,75.7522616 19.8873371,74.8361599 20.0197862,74.2054381 C20.5933871,71.4751457 20.7087827,68.6848951 20.5714544,65.9125686 C20.4385428,63.2272061 20.1217439,60.5463284 19.2778575,57.9816957 C18.4946178,55.6016796 17.3047318,53.4639627 15.9043077,51.3819545 C14.4772854,49.2602426 12.9937704,47.1340039 12.4041299,44.6199938 C11.8050377,42.0666516 12.29174,39.4685439 12.9425277,36.9639651 C13.6307515,34.3148272 14.532217,31.7416852 15.4641717,29.1643243 C16.3723936,26.6528782 16.6943137,24.2766036 16.1929372,21.6480836 C15.202492,16.4550039 12.5513615,11.5807171 12.8967792,6.17275684 Z"/>
      </g>
      <g transform="translate(17.647 6.075)">
        <path fill="#DDE3E9" d="M50.1244479,0.873891633 C52.0793281,1.46835079 54.0208914,2.42748491 55.4144191,3.93143479 C58.3775226,7.12963373 57.4683613,11.9633473 55.8326129,15.4938424 C54.0719314,19.2937556 51.4038237,23.1132913 52.9078867,27.473238 C53.599189,29.4776102 54.7616753,31.2929139 55.4174598,33.3126745 C56.1181001,35.4709927 56.4205093,37.7187641 56.3819807,39.9711492 C56.3106529,44.1081059 55.2118785,48.5222946 52.2287304,51.5701041 C49.6021878,54.2534968 45.3074558,55.8208197 44.3252774,59.7624807 C43.3006187,63.874339 45.8056551,68.4786032 46.9178899,72.3743692 C48.1766642,76.7831886 48.8232801,81.9906463 47.3503121,86.3847866 C45.9389069,90.5960337 42.3759997,93.9065219 38.3427543,95.7722255 C30.2840979,99.500403 20.9275765,98.9267639 12.8469585,95.3151358 C9.41622356,93.7815679 5.59777416,91.8977246 3.46573288,88.7175815 C2.80681794,87.73466 2.61198495,86.8737389 2.46838515,85.7334593 C2.33967336,84.7109848 1.92857945,83.9004887 1.43646349,82.9988429 C0.355144797,81.0182473 -0.0762113153,78.8046352 0.0109005082,76.5799104 C0.349900258,67.9391969 6.7464837,59.9046616 13.7626363,55.2145131 C15.4250517,54.1033857 16.8850056,52.9720538 17.2331152,50.9220985 C17.5966642,48.7822668 17.1566831,46.5111598 16.8205143,44.3836517 C16.4884388,42.2810832 15.9726978,40.1868893 15.9313183,38.0546601 C15.888165,35.8210847 16.5074056,33.7772969 17.5633468,31.8228649 C19.5470164,28.15166 22.7357298,25.3671431 26.3986632,23.3331279 C29.9267919,21.3738918 33.7839781,19.713007 35.5107265,15.8593346 C37.3410676,11.7750659 36.2577326,6.93738574 39.2648482,3.29410185 C40.5100213,1.78547563 42.2565444,0.445932783 44.261886,0.100669724 C46.1850714,-0.230500563 48.2859065,0.314809873 50.1244479,0.873891633 Z"/>
        <path fill="#C5CFD6" d="M46.1312063,7.62776707 C46.408567,7.09365582 47.1969639,7.05256114 47.6396703,7.4231627 C48.2223527,7.91106947 47.9307814,8.53659558 47.6648415,9.09111929 C46.8475515,10.795659 46.3523623,12.5864559 46.0213701,14.447746 C45.3329059,18.3174429 45.4877938,22.2370134 45.2553044,26.1466742 C45.0229667,30.0530428 44.0816908,33.7713844 41.7869229,36.9850902 C39.6233928,40.0152187 37.1046934,42.7821958 34.9231791,45.8093015 C33.0004211,48.4772915 30.9668664,51.2881886 30.615213,54.652478 C30.2764117,57.8907122 31.2721655,61.0987707 31.5927801,64.3065632 C32.2565477,70.9469317 30.9949657,77.4167176 28.5046107,83.539558 C27.3480206,86.3826959 26.0231841,89.1812241 24.1660675,91.6452694 C23.0968865,93.064141 21.654752,94.9829473 19.8327735,95.4760012 C18.9925996,95.7033904 17.8596475,95.4038382 17.6699658,94.4234098 C17.4915741,93.5036279 18.3986112,92.6108709 18.8833136,91.933473 C20.9818043,89.0012585 22.5758659,85.7575187 23.8650421,82.4023455 C25.113906,79.1524766 26.1454035,75.8113927 26.4997843,72.331292 C26.8285366,69.1016553 26.5550863,65.9455014 26.0063199,62.7448042 C25.4472145,59.4831266 24.824419,56.1864341 25.449619,52.8997409 C26.0843355,49.5615079 28.0120904,46.7402165 30.082802,44.1158169 C32.2728834,41.3398762 34.672569,38.7658673 37.1101122,36.2028665 C39.4854349,33.7054666 41.1045036,31.0603804 41.8927932,27.684412 C43.4503167,21.01468 42.8992774,13.8507481 46.1312063,7.62776707 Z"/>
      </g>
      <g transform="translate(0 31.481)">
        <path fill="#C5CFD6" d="M7.33785469,-1.56319402e-13 C10.588382,-1.56319402e-13 13.4461389,1.72558861 15.4153066,4.17425625 C17.7204044,7.04076957 18.185963,10.5413522 19.1219873,13.9577256 C19.5877504,15.6579114 20.3888301,17.3456959 21.7926621,18.5008222 C23.0695235,19.551337 24.6904935,19.76156 26.2188424,20.2748161 C29.2732912,21.3005282 31.739709,23.7713982 32.7137631,26.7863278 C33.9020928,30.4639297 32.6434284,34.1727351 32.8601575,37.8997425 C33.0590984,41.3225166 36.4288267,43.45795 39.1399848,45.0987294 C41.8133176,46.7167062 44.2216684,48.2312717 45.0268374,51.3832163 C45.8806682,54.7261816 46.1671186,58.4575895 44.9845139,61.7599504 C43.0155506,67.2585514 37.2532151,69.6798161 31.6853223,70.0552571 C26.6322633,70.3958944 20.2786254,69.8610359 16.4838219,66.1876344 C14.2130736,63.9893941 13.3907299,60.9150581 13.4927561,57.8563238 C13.5561392,55.9543159 13.9323481,54.0699099 14.4187618,52.231909 C14.7634837,50.9291666 15.2292468,49.6320248 15.3619422,48.2858777 C15.7146381,44.7044863 12.4095196,44.0166111 9.59613082,43.0333036 C6.0211233,41.783567 3.51831134,39.423109 1.77793593,36.1345496 C0.157170431,33.0726149 -0.522868175,29.6354392 0.448732383,26.2642707 C0.944960194,24.5428826 1.84499926,22.9811119 3.0656338,21.6527667 C3.60295836,21.0681028 4.36028337,20.5804495 4.8452658,19.9661823 C5.29794334,19.3925196 5.19939294,18.6492384 5.0433889,17.9773649 C4.32204909,14.8738257 2.07460941,12.3039448 1.27087166,9.20600623 C0.545238163,6.40970059 0.974198174,2.9295202 3.52689872,1.12552302 C4.62976349,0.346037822 5.9898407,0.00860094009 7.33785469,-1.56319402e-13 Z"/>
        <path fill="#AFB9C5" d="M11.7671092,8.08645074 C15.21232,11.7618202 16.1487699,16.7485215 16.4235998,21.5818073 C16.5775451,24.2920797 16.4173121,27.1507671 17.212392,29.7796313 C17.8926721,32.0296575 19.4874968,33.7496304 21.1314055,35.3751938 C24.4405197,38.6475227 28.1309477,41.9742571 29.0988357,46.7101332 C29.6667499,49.4894126 29.2834079,52.3601011 30.0681436,55.1087774 C30.7816872,57.6072286 32.0379944,60.0618753 33.5660892,62.1716874 C34.7964347,63.8706582 36.3993725,65.1713889 37.744315,66.7551481 C38.154633,67.2385967 38.7424241,67.9502683 38.573064,68.6327369 C38.3749025,69.4320172 37.3583362,69.6850426 36.6370852,69.55943 C34.9554507,69.2668006 33.5399246,67.6586389 32.4404022,66.4895214 C30.8325966,64.7799496 29.4663573,62.9411647 28.3558823,60.8785574 C27.1231029,58.5879272 26.13047,56.1572828 25.7063598,53.5874245 C25.2662263,50.9213565 25.485279,48.1428772 24.4802737,45.58422 C22.7891064,41.2789873 18.6871434,38.7383319 15.7214145,35.3827946 C12.0263214,31.2015743 12.577401,25.9976512 12.9558752,20.8543342 C13.1637724,18.0278501 13.3704526,14.8359292 11.9443795,12.2552698 C11.3999932,11.2701708 10.1862795,10.3516784 9.95221771,9.23196589 C9.7378301,8.20606277 10.9079361,7.16935856 11.7671092,8.08645074 Z"/>
      </g>
      <path fill="#39CB76" d="M15.4411765,99.9665272 C15.441386,120.986279 18.8664866,132 36.9485807,132 C55.0306749,132 58.4557755,120.986279 58.4558824,99.9665272 L15.4411765,99.9665272 Z"/>
    </g>
    <g fill="#39CB76" fill-rule="nonzero" opacity=".5" transform="translate(47 99)">
      <path d="M30.4723104 18.042684C30.2057902 18.042684 29.93927 17.9368896 29.7358195 17.7253011L21.4609781 9.11893721C21.0540771 8.69576013 21.0540771 8.01021325 21.4609781 7.58703617 21.8678792 7.16385908 22.5270589 7.16385908 22.9339599 7.58703617L31.2088013 16.1934001C31.6157023 16.6165771 31.6157023 17.302124 31.2088013 17.7253011 31.0053507 17.9368896 30.7388305 18.042684 30.4723104 18.042684zM34.2971802 18.042684C34.03066 18.042684 33.7641398 17.9368896 33.5606893 17.7253011 33.1537882 17.302124 33.1537882 16.6165771 33.5606893 16.1934001L43.0862427 6.28682448C43.4931438 5.8636474 44.1523234 5.8636474 44.5592245 6.28682448 44.9661255 6.71000157 44.9661255 7.39554844 44.5592245 7.81872552L35.033671 17.7253011C34.8302205 17.9368896 34.5637003 18.042684 34.2971802 18.042684zM5.84055583 20.681193C5.57352698 20.681193 5.30700688 20.5753987 5.10355635 20.3638101 4.69716396 19.9406331 4.69716396 19.2540282 5.10457365 18.8319091L15.9291585 7.58703617C16.3355509 7.16385908 16.9957479 7.16385908 17.4021403 7.58703617 17.8085327 8.01021325 17.8085327 8.69681811 17.401123 9.11893721L6.57653813 20.3638102C6.37359615 20.5753988 6.10707604 20.681193 5.84055583 20.681193z"/>
      <path d="M19.4310506 10.6243896C18.1050619 10.6243896 16.8614705 10.0901285 15.9281413 9.11893721 15.0085449 8.162557 14.4805908 6.83483894 14.4805908 5.47644045 14.4805908 2.63692217 16.7012532.327433275 19.4310506.327433275 22.160848.327433275 24.3820191 2.63692217 24.3820191 5.47644045 24.3820191 6.81896973 23.8566081 8.14457193 22.9400635 9.11258952 22.0011394 10.0901285 20.7570394 10.6243896 19.4310506 10.6243896zM32.3847453 22.8457438C30.3181967 22.8457438 28.6366781 21.0969645 28.6366781 18.9482828 28.6366781 17.9083252 29.0273031 16.9297281 29.7363282 16.1933999 31.1503094 14.7186278 33.6146038 14.7186278 35.0336711 16.1933999 35.7421876 16.9286701 36.132304 17.9072672 36.132304 18.9482828 36.1323039 21.0969645 34.451294 22.8457438 32.3847453 22.8457438zM3.85589604 25.6725667C1.72983802 25.6725667 0 23.8730062 0 21.661906 0 19.4508057 1.72983802 17.6523031 3.85589604 17.6523031 4.89603688 17.6523031 5.86547854 18.0744222 6.58569344 18.8403727 7.30590833 19.5724691 7.71179208 20.5806885 7.71179208 21.661906 7.71179198 23.8730062 5.98195396 25.6725667 3.85589604 25.6725667zM45.9513347 9.04911291C44.8832195 9.04911291 43.86851 8.61535642 43.0938721 7.82718907 42.3339844 7.03690585 41.9026693 5.95039868 41.9026693 4.83850088 41.9026693 2.51631662 43.7189738.627888842 45.9513347.627888842 48.1836956.627888842 50 2.51631672 50 4.83850098 50 7.16068524 48.1836955 9.04911291 45.9513347 9.04911291z"/>
    </g>
    <g fill="#39CB76" fill-rule="nonzero" opacity=".5" transform="translate(293 130)">
      <path d="M30.4723104 18.042684C30.2057902 18.042684 29.93927 17.9368896 29.7358195 17.7253011L21.4609781 9.11893721C21.0540771 8.69576013 21.0540771 8.01021325 21.4609781 7.58703617 21.8678792 7.16385908 22.5270589 7.16385908 22.9339599 7.58703617L31.2088013 16.1934001C31.6157023 16.6165771 31.6157023 17.302124 31.2088013 17.7253011 31.0053507 17.9368896 30.7388305 18.042684 30.4723104 18.042684zM34.2971802 18.042684C34.03066 18.042684 33.7641398 17.9368896 33.5606893 17.7253011 33.1537882 17.302124 33.1537882 16.6165771 33.5606893 16.1934001L43.0862427 6.28682448C43.4931438 5.8636474 44.1523234 5.8636474 44.5592245 6.28682448 44.9661255 6.71000157 44.9661255 7.39554844 44.5592245 7.81872552L35.033671 17.7253011C34.8302205 17.9368896 34.5637003 18.042684 34.2971802 18.042684zM5.84055583 20.681193C5.57352698 20.681193 5.30700688 20.5753987 5.10355635 20.3638101 4.69716396 19.9406331 4.69716396 19.2540282 5.10457365 18.8319091L15.9291585 7.58703617C16.3355509 7.16385908 16.9957479 7.16385908 17.4021403 7.58703617 17.8085327 8.01021325 17.8085327 8.69681811 17.401123 9.11893721L6.57653813 20.3638102C6.37359615 20.5753988 6.10707604 20.681193 5.84055583 20.681193z"/>
      <path d="M19.4310506 10.6243896C18.1050619 10.6243896 16.8614705 10.0901285 15.9281413 9.11893721 15.0085449 8.162557 14.4805908 6.83483894 14.4805908 5.47644045 14.4805908 2.63692217 16.7012532.327433275 19.4310506.327433275 22.160848.327433275 24.3820191 2.63692217 24.3820191 5.47644045 24.3820191 6.81896973 23.8566081 8.14457193 22.9400635 9.11258952 22.0011394 10.0901285 20.7570394 10.6243896 19.4310506 10.6243896zM32.3847453 22.8457438C30.3181967 22.8457438 28.6366781 21.0969645 28.6366781 18.9482828 28.6366781 17.9083252 29.0273031 16.9297281 29.7363282 16.1933999 31.1503094 14.7186278 33.6146038 14.7186278 35.0336711 16.1933999 35.7421876 16.9286701 36.132304 17.9072672 36.132304 18.9482828 36.1323039 21.0969645 34.451294 22.8457438 32.3847453 22.8457438zM3.85589604 25.6725667C1.72983802 25.6725667 0 23.8730062 0 21.661906 0 19.4508057 1.72983802 17.6523031 3.85589604 17.6523031 4.89603688 17.6523031 5.86547854 18.0744222 6.58569344 18.8403727 7.30590833 19.5724691 7.71179208 20.5806885 7.71179208 21.661906 7.71179198 23.8730062 5.98195396 25.6725667 3.85589604 25.6725667zM45.9513347 9.04911291C44.8832195 9.04911291 43.86851 8.61535642 43.0938721 7.82718907 42.3339844 7.03690585 41.9026693 5.95039868 41.9026693 4.83850088 41.9026693 2.51631662 43.7189738.627888842 45.9513347.627888842 48.1836956.627888842 50 2.51631672 50 4.83850098 50 7.16068524 48.1836955 9.04911291 45.9513347 9.04911291z"/>
    </g>
    <g fill="#39CB76" fill-rule="nonzero" opacity=".5" transform="translate(255 17)">
      <path d="M30.4723104 18.042684C30.2057902 18.042684 29.93927 17.9368896 29.7358195 17.7253011L21.4609781 9.11893721C21.0540771 8.69576013 21.0540771 8.01021325 21.4609781 7.58703617 21.8678792 7.16385908 22.5270589 7.16385908 22.9339599 7.58703617L31.2088013 16.1934001C31.6157023 16.6165771 31.6157023 17.302124 31.2088013 17.7253011 31.0053507 17.9368896 30.7388305 18.042684 30.4723104 18.042684zM34.2971802 18.042684C34.03066 18.042684 33.7641398 17.9368896 33.5606893 17.7253011 33.1537882 17.302124 33.1537882 16.6165771 33.5606893 16.1934001L43.0862427 6.28682448C43.4931438 5.8636474 44.1523234 5.8636474 44.5592245 6.28682448 44.9661255 6.71000157 44.9661255 7.39554844 44.5592245 7.81872552L35.033671 17.7253011C34.8302205 17.9368896 34.5637003 18.042684 34.2971802 18.042684zM5.84055583 20.681193C5.57352698 20.681193 5.30700688 20.5753987 5.10355635 20.3638101 4.69716396 19.9406331 4.69716396 19.2540282 5.10457365 18.8319091L15.9291585 7.58703617C16.3355509 7.16385908 16.9957479 7.16385908 17.4021403 7.58703617 17.8085327 8.01021325 17.8085327 8.69681811 17.401123 9.11893721L6.57653813 20.3638102C6.37359615 20.5753988 6.10707604 20.681193 5.84055583 20.681193z"/>
      <path d="M19.4310506 10.6243896C18.1050619 10.6243896 16.8614705 10.0901285 15.9281413 9.11893721 15.0085449 8.162557 14.4805908 6.83483894 14.4805908 5.47644045 14.4805908 2.63692217 16.7012532.327433275 19.4310506.327433275 22.160848.327433275 24.3820191 2.63692217 24.3820191 5.47644045 24.3820191 6.81896973 23.8566081 8.14457193 22.9400635 9.11258952 22.0011394 10.0901285 20.7570394 10.6243896 19.4310506 10.6243896zM32.3847453 22.8457438C30.3181967 22.8457438 28.6366781 21.0969645 28.6366781 18.9482828 28.6366781 17.9083252 29.0273031 16.9297281 29.7363282 16.1933999 31.1503094 14.7186278 33.6146038 14.7186278 35.0336711 16.1933999 35.7421876 16.9286701 36.132304 17.9072672 36.132304 18.9482828 36.1323039 21.0969645 34.451294 22.8457438 32.3847453 22.8457438zM3.85589604 25.6725667C1.72983802 25.6725667 0 23.8730062 0 21.661906 0 19.4508057 1.72983802 17.6523031 3.85589604 17.6523031 4.89603688 17.6523031 5.86547854 18.0744222 6.58569344 18.8403727 7.30590833 19.5724691 7.71179208 20.5806885 7.71179208 21.661906 7.71179198 23.8730062 5.98195396 25.6725667 3.85589604 25.6725667zM45.9513347 9.04911291C44.8832195 9.04911291 43.86851 8.61535642 43.0938721 7.82718907 42.3339844 7.03690585 41.9026693 5.95039868 41.9026693 4.83850088 41.9026693 2.51631662 43.7189738.627888842 45.9513347.627888842 48.1836956.627888842 50 2.51631672 50 4.83850098 50 7.16068524 48.1836955 9.04911291 45.9513347 9.04911291z"/>
    </g>
    <g fill="#39CB76" fill-rule="nonzero" opacity=".5" transform="translate(22 26)">
      <path d="M30.4723104 18.042684C30.2057902 18.042684 29.93927 17.9368896 29.7358195 17.7253011L21.4609781 9.11893721C21.0540771 8.69576013 21.0540771 8.01021325 21.4609781 7.58703617 21.8678792 7.16385908 22.5270589 7.16385908 22.9339599 7.58703617L31.2088013 16.1934001C31.6157023 16.6165771 31.6157023 17.302124 31.2088013 17.7253011 31.0053507 17.9368896 30.7388305 18.042684 30.4723104 18.042684zM34.2971802 18.042684C34.03066 18.042684 33.7641398 17.9368896 33.5606893 17.7253011 33.1537882 17.302124 33.1537882 16.6165771 33.5606893 16.1934001L43.0862427 6.28682448C43.4931438 5.8636474 44.1523234 5.8636474 44.5592245 6.28682448 44.9661255 6.71000157 44.9661255 7.39554844 44.5592245 7.81872552L35.033671 17.7253011C34.8302205 17.9368896 34.5637003 18.042684 34.2971802 18.042684zM5.84055583 20.681193C5.57352698 20.681193 5.30700688 20.5753987 5.10355635 20.3638101 4.69716396 19.9406331 4.69716396 19.2540282 5.10457365 18.8319091L15.9291585 7.58703617C16.3355509 7.16385908 16.9957479 7.16385908 17.4021403 7.58703617 17.8085327 8.01021325 17.8085327 8.69681811 17.401123 9.11893721L6.57653813 20.3638102C6.37359615 20.5753988 6.10707604 20.681193 5.84055583 20.681193z"/>
      <path d="M19.4310506 10.6243896C18.1050619 10.6243896 16.8614705 10.0901285 15.9281413 9.11893721 15.0085449 8.162557 14.4805908 6.83483894 14.4805908 5.47644045 14.4805908 2.63692217 16.7012532.327433275 19.4310506.327433275 22.160848.327433275 24.3820191 2.63692217 24.3820191 5.47644045 24.3820191 6.81896973 23.8566081 8.14457193 22.9400635 9.11258952 22.0011394 10.0901285 20.7570394 10.6243896 19.4310506 10.6243896zM32.3847453 22.8457438C30.3181967 22.8457438 28.6366781 21.0969645 28.6366781 18.9482828 28.6366781 17.9083252 29.0273031 16.9297281 29.7363282 16.1933999 31.1503094 14.7186278 33.6146038 14.7186278 35.0336711 16.1933999 35.7421876 16.9286701 36.132304 17.9072672 36.132304 18.9482828 36.1323039 21.0969645 34.451294 22.8457438 32.3847453 22.8457438zM3.85589604 25.6725667C1.72983802 25.6725667 0 23.8730062 0 21.661906 0 19.4508057 1.72983802 17.6523031 3.85589604 17.6523031 4.89603688 17.6523031 5.86547854 18.0744222 6.58569344 18.8403727 7.30590833 19.5724691 7.71179208 20.5806885 7.71179208 21.661906 7.71179198 23.8730062 5.98195396 25.6725667 3.85589604 25.6725667zM45.9513347 9.04911291C44.8832195 9.04911291 43.86851 8.61535642 43.0938721 7.82718907 42.3339844 7.03690585 41.9026693 5.95039868 41.9026693 4.83850088 41.9026693 2.51631662 43.7189738.627888842 45.9513347.627888842 48.1836956.627888842 50 2.51631672 50 4.83850098 50 7.16068524 48.1836955 9.04911291 45.9513347 9.04911291z"/>
    </g>
    <g fill="#39CB76" fill-rule="nonzero" opacity=".5" transform="translate(150 34)">
      <path d="M30.4723104 18.042684C30.2057902 18.042684 29.93927 17.9368896 29.7358195 17.7253011L21.4609781 9.11893721C21.0540771 8.69576013 21.0540771 8.01021325 21.4609781 7.58703617 21.8678792 7.16385908 22.5270589 7.16385908 22.9339599 7.58703617L31.2088013 16.1934001C31.6157023 16.6165771 31.6157023 17.302124 31.2088013 17.7253011 31.0053507 17.9368896 30.7388305 18.042684 30.4723104 18.042684zM34.2971802 18.042684C34.03066 18.042684 33.7641398 17.9368896 33.5606893 17.7253011 33.1537882 17.302124 33.1537882 16.6165771 33.5606893 16.1934001L43.0862427 6.28682448C43.4931438 5.8636474 44.1523234 5.8636474 44.5592245 6.28682448 44.9661255 6.71000157 44.9661255 7.39554844 44.5592245 7.81872552L35.033671 17.7253011C34.8302205 17.9368896 34.5637003 18.042684 34.2971802 18.042684zM5.84055583 20.681193C5.57352698 20.681193 5.30700688 20.5753987 5.10355635 20.3638101 4.69716396 19.9406331 4.69716396 19.2540282 5.10457365 18.8319091L15.9291585 7.58703617C16.3355509 7.16385908 16.9957479 7.16385908 17.4021403 7.58703617 17.8085327 8.01021325 17.8085327 8.69681811 17.401123 9.11893721L6.57653813 20.3638102C6.37359615 20.5753988 6.10707604 20.681193 5.84055583 20.681193z"/>
      <path d="M19.4310506 10.6243896C18.1050619 10.6243896 16.8614705 10.0901285 15.9281413 9.11893721 15.0085449 8.162557 14.4805908 6.83483894 14.4805908 5.47644045 14.4805908 2.63692217 16.7012532.327433275 19.4310506.327433275 22.160848.327433275 24.3820191 2.63692217 24.3820191 5.47644045 24.3820191 6.81896973 23.8566081 8.14457193 22.9400635 9.11258952 22.0011394 10.0901285 20.7570394 10.6243896 19.4310506 10.6243896zM32.3847453 22.8457438C30.3181967 22.8457438 28.6366781 21.0969645 28.6366781 18.9482828 28.6366781 17.9083252 29.0273031 16.9297281 29.7363282 16.1933999 31.1503094 14.7186278 33.6146038 14.7186278 35.0336711 16.1933999 35.7421876 16.9286701 36.132304 17.9072672 36.132304 18.9482828 36.1323039 21.0969645 34.451294 22.8457438 32.3847453 22.8457438zM3.85589604 25.6725667C1.72983802 25.6725667 0 23.8730062 0 21.661906 0 19.4508057 1.72983802 17.6523031 3.85589604 17.6523031 4.89603688 17.6523031 5.86547854 18.0744222 6.58569344 18.8403727 7.30590833 19.5724691 7.71179208 20.5806885 7.71179208 21.661906 7.71179198 23.8730062 5.98195396 25.6725667 3.85589604 25.6725667zM45.9513347 9.04911291C44.8832195 9.04911291 43.86851 8.61535642 43.0938721 7.82718907 42.3339844 7.03690585 41.9026693 5.95039868 41.9026693 4.83850088 41.9026693 2.51631662 43.7189738.627888842 45.9513347.627888842 48.1836956.627888842 50 2.51631672 50 4.83850098 50 7.16068524 48.1836955 9.04911291 45.9513347 9.04911291z"/>
    </g>
    <g transform="translate(77 39)">
      <rect width="184.235" height="257.439" x="9.402" y="7.402" fill="#F4F4F4" stroke="#D5D9DE" stroke-width=".805" transform="rotate(-4 101.52 136.122)"/>
      <rect width="184.235" height="257.439" x="9.402" y="7.402" fill="#F4F4F4" stroke="#D5D9DE" stroke-width=".805" transform="rotate(4 101.52 136.122)"/>
      <rect width="184.235" height="257.439" x="9.402" y="7.402" fill="#F4F4F4" stroke="#D5D9DE" stroke-width=".805"/>
      <rect width="144.473" height="3.436" x="26" y="84" fill="#D2D2D2"/>
      <rect width="144.473" height="3.436" x="26" y="164" fill="#D2D2D2"/>
      <rect width="109.473" height="3.436" x="26" y="72" fill="#D2D2D2"/>
      <rect width="109.473" height="3.436" x="26" y="152" fill="#D2D2D2"/>
      <rect width="109.473" height="3.436" x="26" y="219" fill="#D2D2D2"/>
      <rect width="134.473" height="3.436" x="26" y="61" fill="#D2D2D2"/>
      <rect width="134.473" height="3.436" x="26" y="142" fill="#D2D2D2"/>
      <rect width="134.473" height="3.436" x="26" y="209" fill="#D2D2D2"/>
      <rect width="144.473" height="3.436" x="26" y="51" fill="#D2D2D2"/>
      <rect width="144.473" height="3.436" x="26" y="131" fill="#D2D2D2"/>
      <rect width="144.473" height="3.436" x="26" y="198" fill="#D2D2D2"/>
      <rect width="144.473" height="3.436" x="26" y="95" fill="#D2D2D2"/>
      <rect width="144.473" height="3.436" x="26" y="175" fill="#D2D2D2"/>
      <rect width="144.473" height="3.436" x="26" y="107" fill="#D2D2D2"/>
      <rect width="144.473" height="3.436" x="26" y="187" fill="#D2D2D2"/>
      <text fill="#494949" font-family="Roboto-Regular, Roboto" font-size="8">
        <tspan x="26" y="27">REPORT</tspan>
      </text>
      <text fill="#494949" font-family="Roboto-Regular, Roboto" font-size="6">
        <tspan x="26" y="42">Child Welfare Outcome: Child/Family Well-Being</tspan>
      </text>
      <text fill="#494949" font-family="Roboto-Regular, Roboto" font-size="6">
        <tspan x="26" y="123">Summary</tspan>
      </text>
    </g>
    <g fill="#0A9CDF" opacity=".5" transform="translate(199 139)">
      <path d="M25.6996729,9.37565421 C35.2057477,10.756028 45.0940654,15.2265888 45.0108879,26.2915421 C44.9412617,35.5948131 37.1384579,45.496215 27.1192991,44.9401402 C18.1024766,44.4406075 9.61228972,34.5803271 8.48331776,26.1303271 C7.89827103,21.7522897 8.99266355,17.0387383 11.5678972,13.4373364 C14.9421963,8.71864486 20.2964019,8.7261215 25.6996729,9.37565421 M21.209486,3.36163551 C14.3342523,3.39901869 9.3038785,5.88640187 5.04873832,11.1359346 C3.52257009,13.0181776 1.74780374,15.0443458 0.586121495,17.1770561 C-0.498925234,19.1686449 -0.308738318,24.2335981 3.41462617,21.8592991 C2.49780374,31.6649065 8.22864486,41.1821963 16.4669626,46.2064953 C25.4221028,51.6686449 35.5440654,50.6036916 42.9968692,42.9480841 C49.8192991,35.9401402 52.2202336,24.1032243 47.2291121,15.4364019 C42.2407944,6.77378505 30.6828505,3.26864486 21.209486,3.36163551"/>
      <path d="M41.826215,0.733551402 C37.4243458,3.95971963 33.4051869,8.20785047 30.0668692,12.516729 C26.803785,16.7284112 24.6467757,21.9872897 20.7271495,25.6597196 C18.7477103,23.5036449 16.4285514,17.6807477 12.4799533,19.991028 C9.20331776,21.9078505 11.3131308,25.2045794 12.9089252,27.3690654 C17.0299533,32.9583178 21.6061215,35.2078505 26.8911682,29.6854206 C31.6911682,24.6704673 34.4168692,17.9802804 38.9047196,12.6765421 C40.8734112,10.3494393 43.9145327,8.03962617 45.4822897,5.47046729 C46.9033178,3.14149533 45.1458411,-1.70616822 41.826215,0.733551402"/>
    </g>
    <g fill="#F2F2F2" transform="translate(47 282)">
      <path d="M6.25042764,19.6442012 C6.25042764,28.2742408 6.93146137,35.2702703 16.0725282,35.2702703 C25.2135951,35.2702703 25.8946288,28.2742408 25.8946288,19.6442012"/>
      <path d="M18.7919258,14.2597972 C18.456859,14.8391372 18.158093,15.4300639 17.894195,16.0298617 C17.8848809,14.7946004 17.9531839,13.5502869 18.1397037,12.2889552 C18.4585307,10.1283794 18.9454882,7.97902828 19.4030706,5.83311699 C19.7319281,4.29098653 19.7111506,1.52101752 20.9592329,0.292092703 C21.3014645,0.0265015569 21.3838579,0.547545401 21.3838579,0.773669015 C21.3881567,0.821464559 21.3829027,-0.149291901 21.0507016,0.0198029391 C19.0761237,1.03962225 18.4363203,4.24626873 17.8041592,5.85176449 C16.8818297,8.19519449 16.0970615,10.5907651 15.7739358,13.0288809 C15.6922587,13.6447917 15.6478379,14.2605214 15.6375686,14.8751649 C15.5704596,14.7107772 15.5074107,14.5451221 15.4376748,14.3812776 C14.2980175,11.708348 12.7600057,9.10023207 10.8417896,6.69488513 C10.3696391,6.10305319 4.43276994,0.263306751 3.96802287,1.15711963 C4.01387664,1.28692798 4.10988297,1.394649 4.25628069,1.48028268 C4.26487827,1.49005904 4.26511709,1.48462773 4.26010183,1.47014423 C4.60878154,2.03337126 5.6001305,2.90328637 5.90892698,3.39681157 C6.68605286,4.63877153 7.29003299,5.95676986 7.90380481,7.2496031 C9.20060675,9.98173398 10.4035517,12.7413835 11.5697182,15.5068264 C11.8412585,16.15098 12.1242622,16.7915127 12.4129977,17.4300539 C9.4365626,13.136964 5.4659127,9.2394547 -1.42108547e-14,7.00827182 C1.86686938,7.95802721 3.09083069,9.74492878 4.35157055,11.1130762 C5.87214844,12.7632898 7.47368689,14.3691476 8.99713064,16.0175508 C10.7940253,17.9621414 12.9083139,20.009927 14.6366667,22.1618128 C16.310807,25.6765957 17.9376605,29.1951805 18.9419059,32.8899208 C18.530416,31.6133815 18.9096649,29.8492915 18.8392125,28.5095679 C18.7833282,27.4432203 18.6586633,26.3855629 18.4879058,25.3298969 C18.6990242,25.8060419 18.8810063,26.282549 18.9633998,26.725744 C18.888171,25.9823785 18.8014787,25.2437201 18.7083382,24.5088636 C18.9473988,23.8208975 19.1821605,23.1789164 19.3407381,22.6500877 C20.1534484,19.9373285 21.1211541,17.2712786 22.4389723,14.672758 C23.658396,12.2690404 25.0571748,9.89591925 26.581335,7.59521558 C27.2923073,6.5225315 28.0130712,5.45383038 28.7292976,4.38331883 C29.1981046,3.68249857 29.6444624,2.56038955 30.2971622,1.88889837 C26.0781377,5.746216 21.4686397,9.63141437 18.7919258,14.2597972"/>
    </g>
    <g transform="translate(-6 164)">
      <g transform="translate(36.627)">
        <path fill="#774F2A" d="M42.7508984,20.2188245 C44.289747,25.8894272 46.2951412,38.635616 44.2487807,40.6350294 L31.3023521,40.6350294 C31.3010301,40.6120593 31.2997338,40.5891476 31.2984634,40.5662941 C26.4999579,40.0352674 22.7678571,35.966866 22.7678571,31.0267857 L22.7678571,21.6517857 C22.7678571,16.3508383 27.0651241,12.0535714 32.3660714,12.0535714 L33.2589286,12.0535714 C38.0729007,12.0535714 42.0591296,15.5975614 42.7508984,20.2188245 Z"/>
        <path fill="#EDD2B9" d="M3.68851513,15.397378 C1.63141266,12.9827571 0.239122676,10.0236059 0.471775149,6.70779191 C1.14211171,-2.84599133 14.4413083,-0.74428074 17.0282774,4.07764862 C19.6152465,8.89957799 19.3078473,21.1308017 15.9644203,21.992615 C14.6310665,22.3363048 11.7906271,21.4944027 8.89972203,19.7519238 L10.7142857,32.5892857 L0,32.5892857 L3.68851513,15.397378 Z" transform="translate(24.107 13.84)"/>
        <path fill="#774F2A" d="M30.6919485,27.6226937 C31.1855991,32.925375 30.9878279,38.9809218 29.5166378,40.4183602 L16.5702093,40.4183602 C15.8488727,27.8854843 22.8202093,32.7387749 22.8202093,20.9387467 C23.254845,20.5140822 23.6655407,20.0937614 24.0719276,19.7312764 L24.0575344,19.3842413 C26.299353,14.7947471 29.1434812,12.5 32.5899189,12.5 C37.7595754,12.5 39.3913327,14.905501 40.7806611,16.9478061 C39.7417512,20.5125783 35.7100135,21.0411548 32.1275628,23.2631749 C31.7052919,22.9200912 31.1668372,22.7144701 30.5803571,22.7144701 C29.2243008,22.7144701 28.125,23.813771 28.125,25.1698273 C28.125,26.5258836 29.2243008,27.6251844 30.5803571,27.6251844 C30.6177554,27.6251844 30.6549584,27.6243483 30.6919485,27.6226937 Z"/>
      </g>
      <g transform="translate(0 83.404)">
        <ellipse cx="51.786" cy="26.116" fill="#C5CFD6" rx="34.375" ry="32.813" transform="translate(4.464 18.75)"/>
        <path fill="#EDD2B9" d="M121.209488,72.616004 C115.489495,59.956047 111.352853,48.9322684 109.692421,43.1160966 C106.849357,33.1573986 104.686525,24.3943258 104.139878,21.1217753 C102.836328,13.3179588 114.167533,12.863527 115.665281,16.7418878 C117.932181,22.6119409 121.889676,41.8984859 126.644907,71.0300942 L121.209488,72.616004 Z M54.8608689,32.8855096 C60.1089566,30.8110834 78.4874802,24.3191429 87.3514421,22.4826918 C89.8985892,21.9549694 92.3673588,21.4646557 94.6884354,21.0215485 C101.587496,19.704477 105.161857,32.1506376 98.51722,33.1069445 C81.9694476,35.4885265 58.5101859,37.947897 56.5025857,38.2238947 C53.6888484,38.6107172 51.5626095,34.1892217 54.8608689,32.8855096 Z"/>
        <path fill="#494949" d="M98.9228218,17.5965435 L70.5357143,3.14585599 L70.5357143,0 L73.91169,0 C101.374945,6.99809026 115.408645,11.4828882 116.012792,13.4543939 C116.019292,13.475605 116.025252,13.4968438 116.030671,13.5181105 C116.044492,13.536251 116.058079,13.5545011 116.071429,13.5728609 C121.514065,21.0580472 124.773638,57.6013239 125.843489,60.3375606 L115.414165,61.8934719 C111.424672,47.0996854 98.6607143,36.793795 98.9997712,19.0754511 C98.9082184,18.5557034 98.8850853,18.062811 98.9228218,17.5965435 Z"/>
        <path fill="#6E7276" d="M72.8942742,26.178784 C70.2969195,25.6588502 67.905035,25.1948173 65.8583503,24.83583 C52.6380757,22.5170014 48.7829312,15.4402904 51.0622985,-6.21878771e-15 L75.4204297,-4.97379915e-14 C79.3993721,1.14299914 100.077695,9.81465967 110.806528,14.4269362 C117.907419,17.4795771 115.668987,28.484143 111.647749,31.347983 C111.625912,31.523674 111.553543,31.6430159 111.424672,31.6964286 C89.7932442,40.6618985 72.6807996,35.9577393 66.9642857,37.460789 L64.3201428,29.1198287 L72.8942742,26.178784 Z"/>
        <path fill="#E4E4E4" d="M1.19559377,11.3401469 C0.696150304,12.6733988 0.446428571,13.6709794 0.446428571,14.3328888 C0.446428571,15.1379272 0.580542056,16.3126786 0.848769024,17.8571429 C1.78267017,17.8571429 10.175797,17.8571429 26.0281495,17.8571429 C26.6824723,15.6939765 26.3047592,14.5261525 24.8950102,14.3536711 C23.4852612,14.1811896 22.3141587,14.0254526 21.3817028,13.8864602 L9.67856815,8.6691444 C9.45337656,8.56875287 9.1894393,8.6699233 9.08904777,8.89511489 C9.08733034,8.89896729 9.08566761,8.90284384 9.08406005,8.90674337 L8.33179156,10.7315603 C7.02673269,11.3404697 5.96623686,11.6449244 5.15030408,11.6449244 C4.48738305,11.6449244 3.57188539,11.377194 2.40381111,10.841733 L2.40382619,10.8417001 C1.95555141,10.6362049 1.42556614,10.8330167 1.22007096,11.2812915 C1.21121401,11.3006123 1.20304974,11.3202433 1.19559377,11.3401469 Z" transform="rotate(64 12.746 65.827)"/>
        <path fill="#E4E4E4" d="M1.19559377,11.3401469 C0.696150304,12.6733988 0.446428571,13.6709794 0.446428571,14.3328888 C0.446428571,15.1379272 0.580542056,16.3126786 0.848769024,17.8571429 C1.78267017,17.8571429 10.175797,17.8571429 26.0281495,17.8571429 C26.6824723,15.6939765 26.3047592,14.5261525 24.8950102,14.3536711 C23.4852612,14.1811896 22.3141587,14.0254526 21.3817028,13.8864602 L9.67856815,8.6691444 C9.45337656,8.56875287 9.1894393,8.6699233 9.08904777,8.89511489 C9.08733034,8.89896729 9.08566761,8.90284384 9.08406005,8.90674337 L8.33179156,10.7315603 C7.02673269,11.3404697 5.96623686,11.6449244 5.15030408,11.6449244 C4.48738305,11.6449244 3.57188539,11.377194 2.40381111,10.841733 L2.40382619,10.8417001 C1.95555141,10.6362049 1.42556614,10.8330167 1.22007096,11.2812915 C1.21121401,11.3006123 1.20304974,11.3202433 1.19559377,11.3401469 Z" transform="translate(117.41 58.929)"/>
      </g>
      <g transform="translate(9.827 36.573)">
        <path fill="#EDD2B9" d="M85.4715369,1.04501013 L102.392866,-4.03464093 C105.549553,-6.49198262 108.527034,-8.28867551 111.325308,-9.42471959 C112.139144,-9.5779033 113.486488,-9.48893791 111.802813,-7.57901058 C110.119139,-5.66908326 108.434063,-3.58440526 108.91478,-2.7835645 C109.395497,-1.98272375 111.146999,-2.5864293 111.653918,-1.31784913 C111.991863,-0.472129006 109.090037,0.13359345 102.94844,0.499318244 L89.7917726,8.24221449 L85.4715369,1.04501013 Z M83.9762746,30.8786273 L98.2165742,41.335591 C102.078837,42.3777688 105.305632,43.6744139 107.896961,45.2255265 C108.509077,45.7832966 109.248878,46.9128737 106.710282,46.7176545 C104.171685,46.5224353 101.492683,46.4312641 101.142406,47.29714 C100.792129,48.163016 102.32835,49.1985086 101.620288,50.366802 C101.148246,51.1456642 98.9181326,49.192696 94.9299466,44.5078974 L80.8283144,38.6603067 L83.9762746,30.8786273 Z"/>
        <path fill="#087DB2" d="M56.6897035,6.98657276 C67.9226769,18.9464071 81.6231292,26.7507262 100.308378,33.6731078 L96.1589542,41.9703662 C76.8800729,40.1526434 66.5732361,38.7008984 58.4932453,26.7226169 C56.4653314,23.7163111 52.8393011,13.3721772 50.6670422,8.00045277 L56.6897035,6.98657276 Z" transform="rotate(15 75.488 24.478)"/>
        <path fill="#F2F2F2" d="M40.1785714,50.8928571 L74.5535714,50.8928571 C66.7670584,27.1452594 62.7894119,10.8463846 62.620632,1.9962328 C62.6120274,1.54504351 61.7787404,0.749984252 61.410076,0.854104338 C58.714073,1.61552331 55.8291369,1.33082187 52.7552679,0 C44.6060201,13.1064316 41.7878689,29.2431026 40.1785714,50.8928571 Z"/>
        <path fill="#0A9CDF" d="M55.688617,0.0211586464 C65.5420704,0.101843856 81.5285716,1.90118585 99.9654801,-4.01785714 L101.785714,5.07744658 C87.8512724,14.0393878 73.7414823,20.9817257 61.3777905,19.9958723 C66.746627,43.0254906 66.4990977,61.8776635 54.646193,61.8776635 C48.9858413,61.8776635 42.876266,61.8776635 36.3174673,61.8776635 C33.4064426,42.3142621 41.0571852,15.1891139 48.14998,1.50740816 C48.4208324,0.98494503 48.9975045,-1.64313008e-13 50.3558038,-1.64313008e-13 C51.539312,-1.64313008e-13 53.3145744,-1.64313008e-13 55.6815908,-1.64313008e-13 C55.6839332,0.00705288822 55.6862752,0.0141057705 55.688617,0.0211586464 Z"/>
      </g>
    </g>
  </g>
</svg>
