<?xml version="1.0" encoding="UTF-8"?>
<svg width="276px" height="34px" viewBox="0 0 276 34" version="1.1" xmlns="http://www.w3.org/2000/svg" xmlns:xlink="http://www.w3.org/1999/xlink">
    <!-- Generator: sketchtool 52.6 (67491) - http://www.bohemiancoding.com/sketch -->
    <title>D9FAB308-F35A-4280-91BB-27EBE6B2A605</title>
    <desc>Created with sketchtool.</desc>
    <defs>
        <rect id="path-1" x="0" y="0" width="105" height="76"></rect>
    </defs>
    <g id="MVP" stroke="none" stroke-width="1" fill="none" fill-rule="evenodd">
        <g id="1.7" transform="translate(-371.000000, -89.000000)">
            <g id="LOGO" transform="translate(351.000000, 67.000000)">
                <g id="Logo/logogram">
                    <mask id="mask-2" fill="white">
                        <use xlink:href="#path-1"></use>
                    </mask>
                    <g id="Background"></g>
                    <g id="noun_analytics_1313244_000000-copy" stroke-width="1" fill-rule="evenodd" mask="url(#mask-2)" fill="#39CB76">
                        <g transform="translate(20.454545, 21.714286)" fill-rule="nonzero" id="Shape">
                            <path d="M39.0599615,22.6029228 C38.7183311,22.6029228 38.3767006,22.4703892 38.1159141,22.2053223 L27.509072,11.4237235 C26.9874988,10.8935896 26.9874988,10.0347726 27.509072,9.50463871 C28.0306451,8.97450479 28.8755936,8.97450479 29.3971668,9.50463871 L40.0040089,20.2862374 C40.525582,20.8163714 40.525582,21.6751883 40.0040089,22.2053223 C39.7432223,22.4703892 39.4015918,22.6029228 39.0599615,22.6029228 Z"></path>
                            <path d="M43.9627492,22.6029228 C43.6211187,22.6029228 43.2794883,22.4703892 43.0187017,22.2053223 C42.4971285,21.6751883 42.4971285,20.8163714 43.0187017,20.2862374 L55.2287293,7.8758021 C55.7503024,7.34566817 56.595251,7.34566817 57.1168241,7.8758021 C57.6383973,8.40593603 57.6383973,9.26475299 57.1168241,9.79488692 L44.9067965,22.2053223 C44.6460099,22.4703892 44.3043795,22.6029228 43.9627492,22.6029228 Z"></path>
                            <path d="M7.48653066,25.9083077 C7.14424822,25.9083077 6.8026179,25.7757742 6.54183133,25.5107072 C6.02091016,24.9805733 6.02091016,24.1204309 6.54313531,23.5916224 L20.418285,9.50463871 C20.9392062,8.97450479 21.7854587,8.97450479 22.3063799,9.50463871 C22.827301,10.0347726 22.827301,10.894915 22.3050759,11.4237235 L8.42992614,25.5107073 C8.16979142,25.7757743 7.82816111,25.9083077 7.48653066,25.9083077 Z"></path>
                            <path d="M24.907074,13.3096749 C23.2073975,13.3096749 21.6133395,12.6403808 20.4169811,11.4237235 C19.2382257,10.2256209 18.5614846,8.56232571 18.5614846,6.86059573 C18.5614846,3.303397 21.40797,0.410191136 24.907074,0.410191136 C28.4061779,0.410191136 31.2533153,3.303397 31.2533153,6.86059573 C31.2533153,8.5424456 30.5798341,10.2030901 29.4049905,11.4157715 C28.2014605,12.6403808 26.6067505,13.3096749 24.907074,13.3096749 Z"></path>
                            <path d="M41.5113554,28.6199428 C38.8624157,28.6199428 36.7070147,26.4291644 36.7070147,23.7374092 C36.7070147,22.4346052 37.2077249,21.2086703 38.1165662,20.2862373 C39.9290329,18.4387206 43.0878103,18.4387206 44.9067967,20.2862373 C45.8149859,21.2073449 46.3150442,22.4332798 46.3150442,23.7374092 C46.315044,26.4291643 44.160295,28.6199428 41.5113554,28.6199428 Z"></path>
                            <path d="M4.94255765,32.1612374 C2.21733783,32.1612374 0,29.9068429 0,27.1368932 C0,24.3669434 2.21733783,22.1138742 4.94255765,22.1138742 C6.27582909,22.1138742 7.51847704,22.6426827 8.44166159,23.6022252 C9.36484614,24.519357 9.88511531,25.782401 9.88511531,27.1368932 C9.88511517,29.9068429 7.66777735,32.1612374 4.94255765,32.1612374 Z"></path>
                            <path d="M58.9012563,11.3362513 C57.5321268,11.3362513 56.2314537,10.7928641 55.2385088,9.8054896 C54.2644709,8.81546447 53.7116033,7.45434559 53.7116033,6.06141868 C53.7116033,3.15230873 56.0397754,0.786586021 58.9012563,0.786586021 C61.7627371,0.786586021 64.0909091,3.15230886 64.0909091,6.06141881 C64.0909091,8.97052876 61.762737,11.3362513 58.9012563,11.3362513 Z"></path>
                        </g>
                    </g>
                </g>
                <path d="M123.322286,37.4732977 L123.453683,37.4732977 L129.804544,23.4626168 L137.841668,23.4626168 L127.001405,44.2583445 L127.001405,55.5373832 L119.621267,55.5373832 L119.621267,43.8838451 L109,23.4626168 L116.993325,23.4626168 L123.322286,37.4732977 Z M138.870945,43.3991989 C138.870945,39.8157364 139.878313,36.8968738 141.893079,34.6425234 C143.907845,32.388173 146.718255,31.2610147 150.324394,31.2610147 C153.945133,31.2610147 156.762843,32.388173 158.777609,34.6425234 C160.792375,36.8968738 161.799742,39.8157364 161.799742,43.3991989 L161.799742,43.8618158 C161.799742,47.4599646 160.792375,50.3824988 158.777609,52.629506 C156.762843,54.8765132 153.959732,56 150.368193,56 C146.732855,56 143.907845,54.8765132 141.893079,52.629506 C139.878313,50.3824988 138.870945,47.4599646 138.870945,43.8618158 L138.870945,43.3991989 Z M146.272983,43.8618158 C146.272983,45.8591555 146.583223,47.4268968 147.203712,48.5650868 C147.824202,49.7032767 148.879018,50.2723632 150.368193,50.2723632 C151.813569,50.2723632 152.850135,49.6996052 153.477925,48.5540721 C154.105714,47.408539 154.419604,45.8444692 154.419604,43.8618158 L154.419604,43.3991989 C154.419604,41.4606045 154.105714,39.9075492 153.477925,38.7399866 C152.850135,37.5724241 151.798969,36.9886515 150.324394,36.9886515 C148.864419,36.9886515 147.824202,37.5760956 147.203712,38.7510013 C146.583223,39.9259071 146.272983,41.4752908 146.272983,43.3991989 L146.272983,43.8618158 Z M179.275559,52.7176235 C178.516372,53.7750387 177.585652,54.5864458 176.48337,55.1518692 C175.381089,55.7172925 174.136479,56 172.749502,56 C170.296744,56 168.373255,55.2069505 166.978979,53.6208278 C165.584702,52.034705 164.887575,49.574783 164.887575,46.240988 L164.887575,31.7016021 L172.267713,31.7016021 L172.267713,46.2850467 C172.267713,47.621502 172.519555,48.6201569 173.023246,49.2810414 C173.526938,49.9419259 174.245965,50.2723632 175.180349,50.2723632 C175.968736,50.2723632 176.662214,50.1622174 177.260803,49.9419226 C177.859393,49.7216277 178.370377,49.3911905 178.79377,48.9506008 L178.79377,31.7016021 L186.195807,31.7016021 L186.195807,55.5373832 L179.735449,55.5373832 L179.275559,52.7176235 Z M203.649725,38.2663551 L200.956084,38.2443258 C200.109298,38.2443258 199.41582,38.3875153 198.875629,38.6738985 C198.335439,38.9602818 197.933951,39.3678211 197.671156,39.8965287 L197.671156,55.5373832 L190.269118,55.5373832 L190.269118,31.7016021 L197.233165,31.7016021 L197.49596,35.2042724 C197.992351,33.955935 198.64933,32.9866523 199.466917,32.2963952 C200.284503,31.6061381 201.240772,31.2610147 202.335754,31.2610147 C202.686148,31.2610147 203.043836,31.2867154 203.40883,31.3381175 C203.773824,31.3895196 204.095014,31.4519355 204.372409,31.5253672 L203.649725,38.2663551 Z M224.169575,47.0340454 C224.169575,45.9031986 223.797287,45.0293756 223.052699,44.4125501 C222.308112,43.7957246 220.972255,43.142193 219.045087,42.4519359 C215.015555,41.1742259 212.029951,39.804747 210.088184,38.3434579 C208.146416,36.8821689 207.175547,34.7710418 207.175547,32.0100134 C207.175547,29.3224165 208.332561,27.1488735 210.646621,25.4893191 C212.960682,23.8297647 215.898838,23 219.461178,23 C222.994318,23 225.888676,23.9142098 228.144338,25.7426569 C230.4,27.5711039 231.491315,29.9245517 231.418316,32.8030708 L231.374517,32.935247 L224.191474,32.935247 C224.191474,31.657537 223.760788,30.6184953 222.899403,29.8180908 C222.038017,29.0176863 220.848155,28.61749 219.329781,28.61749 C217.840606,28.61749 216.672643,28.9479273 215.825858,29.6088117 C214.979072,30.2696962 214.555686,31.0847749 214.555686,32.0540721 C214.555686,32.9939967 214.982722,33.7466594 215.836808,34.3120828 C216.690893,34.8775062 218.293192,35.5861106 220.643752,36.4379172 C224.264491,37.524705 226.990954,38.8611403 228.823223,40.447263 C230.655492,42.0333858 231.571613,44.2142718 231.571613,46.9899866 C231.571613,49.8097604 230.480297,52.0163472 228.297634,53.6098131 C226.114971,55.203279 223.220614,56 219.614475,56 C215.993736,56 212.862136,55.0857902 210.219581,53.2573431 C207.577025,51.4288961 206.292266,48.7964124 206.365265,45.3598131 L206.409064,45.2276368 L213.614006,45.2276368 C213.614006,47.0781134 214.11039,48.3998625 215.103174,49.1929239 C216.095957,49.9859853 217.599709,50.38251 219.614475,50.38251 C221.147449,50.38251 222.289862,50.0741019 223.04175,49.4572764 C223.793637,48.8404509 224.169575,48.0327153 224.169575,47.0340454 Z M245.981497,56 C242.492156,56 239.707295,54.8985424 237.62683,52.6955941 C235.546365,50.4926459 234.506148,47.7316588 234.506148,44.4125501 L234.506148,43.5754339 C234.506148,39.9479124 235.451468,36.9849915 237.342136,34.6865821 C239.232804,32.3881728 241.937368,31.2463284 245.455908,31.2610147 C248.667854,31.2610147 251.186273,32.2302974 253.011243,34.1688919 C254.836212,36.1074863 255.748683,38.7362985 255.748683,42.0554072 L255.748683,45.9546061 L242.214779,45.9546061 L242.17098,46.0867824 C242.331577,47.3057471 242.827962,48.3080735 243.660148,49.0937917 C244.492333,49.8795099 245.601898,50.2723632 246.988875,50.2723632 C248.390451,50.2723632 249.510965,50.1622174 250.350451,49.9419226 C251.189937,49.7216277 252.252053,49.3397891 253.536831,48.7963952 L255.288793,53.3344459 C254.25221,54.0981347 252.912703,54.7333085 251.270231,55.2399866 C249.627759,55.7466647 247.864865,56 245.981497,56 Z M245.455908,36.9886515 C244.390126,36.9886515 243.590802,37.3704902 243.057911,38.1341789 C242.52502,38.8978676 242.20018,39.9185517 242.083382,41.1962617 L242.149081,41.3064085 L248.521841,41.3064085 L248.521841,40.7336449 C248.521841,39.5293665 248.273649,38.6041421 247.777257,37.9579439 C247.280866,37.3117458 246.50709,36.9886515 245.455908,36.9886515 Z M272.501815,55.5153538 C272.297419,55.1335094 272.111275,54.7076125 271.943377,54.2376502 C271.77548,53.7676879 271.633135,53.2830466 271.516337,52.7837116 C270.815549,53.7676952 269.968776,54.5497301 268.975993,55.1298398 C267.983209,55.7099495 266.778748,56 265.362572,56 C263.11421,56 261.285618,55.3464685 259.876742,54.0393858 C258.467866,52.7323032 257.763438,50.9920002 257.763438,48.8184246 C257.763438,46.4539268 258.64306,44.6291787 260.40233,43.3441255 C262.161601,42.0590723 264.836965,41.4165554 268.428505,41.4165554 L271.122145,41.4165554 L271.122145,39.7202937 C271.122145,38.7069375 270.884903,37.9285741 270.410411,37.3851802 C269.935919,36.8417863 269.202293,36.5700935 268.209509,36.5700935 C267.362724,36.5700935 266.731294,36.7720274 266.315201,37.1759012 C265.899108,37.5797751 265.691065,38.2076059 265.691065,39.0594126 L258.529922,39.0373832 L258.486122,38.9052069 C258.383924,36.7316313 259.281796,34.9142263 261.179763,33.4529372 C263.077731,31.9916482 265.588851,31.2610147 268.713198,31.2610147 C271.633149,31.2610147 274.001923,31.9953198 275.819592,33.4639519 C277.637262,34.9325841 278.546083,37.0326966 278.546083,39.7643525 L278.546083,48.7523364 C278.546083,50.0300464 278.651929,51.2122776 278.863626,52.2990654 C279.075322,53.3858532 279.392862,54.4652817 279.816255,55.5373832 L272.501815,55.5153538 Z M267.618222,50.6909212 C268.34821,50.6909212 269.019788,50.5440602 269.632978,50.2503338 C270.246168,49.9566073 270.742552,49.5747687 271.122145,49.1048064 L271.122145,45.3818425 L268.494203,45.3818425 C267.326223,45.3818425 266.4758,45.6682214 265.942909,46.240988 C265.410018,46.8137545 265.143577,47.5407166 265.143577,48.4218959 C265.143577,49.0974667 265.373519,49.6445239 265.833411,50.0630841 C266.293304,50.4816443 266.888235,50.6909212 267.618222,50.6909212 Z M291.423,25.7757009 L291.423,31.7016021 L295.430612,31.7016021 L295.430612,36.8564753 L291.423,36.8564753 L291.423,47.7830441 C291.423,48.6348507 291.594545,49.2479955 291.937639,49.6224967 C292.280733,49.9969979 292.744268,50.1842457 293.328259,50.1842457 C293.795451,50.1842457 294.164089,50.1695596 294.434184,50.1401869 C294.70428,50.1108143 295.051019,50.0520699 295.474412,49.9639519 L296,55.4712951 C295.182414,55.6622172 294.445137,55.7980637 293.788148,55.8788385 C293.13116,55.9596132 292.357384,56 291.466799,56 C289.028641,56 287.1818,55.3464685 285.926221,54.0393858 C284.670642,52.7323032 284.042862,50.6615629 284.042862,47.8271028 L284.042862,36.8564753 L280.714135,36.8564753 L280.714135,31.7016021 L284.042862,31.7016021 L284.042862,25.7757009 L291.423,25.7757009 Z" id="LOGO-Copy-4" fill="#0A9CDF"></path>
                <rect id="Rectangle" x="0" y="0" width="322" height="76"></rect>
            </g>
        </g>
    </g>
</svg>