<?xml version="1.0" encoding="UTF-8"?>
<svg width="21px" height="20px" viewBox="0 0 21 20" version="1.1" xmlns="http://www.w3.org/2000/svg" xmlns:xlink="http://www.w3.org/1999/xlink">
    <!-- Generator: sketchtool 52.6 (67491) - http://www.bohemiancoding.com/sketch -->
    <title>BAF0C806-6B02-43CD-8A50-04583EB202F6</title>
    <desc>Created with sketchtool.</desc>
    <g id="MVP" stroke="none" stroke-width="1" fill="none" fill-rule="evenodd">
        <g id="1.1-Summary---Zero-State" transform="translate(-1159.000000, -146.000000)">
            <g id="0.0-Base-View">
                <g id="Button/Secondary" transform="translate(1115.000000, 136.000000)">
                    <g id="Group" transform="translate(42.500000, 8.000000)">
                        <g id="Icons/24px/External-link">
                            <g id="Icon">
                                <rect id="Path" fill-rule="nonzero" x="0" y="0" width="24" height="24"></rect>
                                <path d="M18.0318994,16.6176858 L21.7071068,20.2928932 C22.0976311,20.6834175 22.0976311,21.3165825 21.7071068,21.7071068 C21.3165825,22.0976311 20.6834175,22.0976311 20.2928932,21.7071068 L16.6176858,18.0318994 C15.078015,19.2635271 13.1250137,20 11,20 C6.02943725,20 2,15.9705627 2,11 C2,6.02943725 6.02943725,2 11,2 C15.9705627,2 20,6.02943725 20,11 C20,13.1250137 19.2635271,15.078015 18.0318994,16.6176858 Z M11,18 C14.8659932,18 18,14.8659932 18,11 C18,7.13400675 14.8659932,4 11,4 C7.13400675,4 4,7.13400675 4,11 C4,14.8659932 7.13400675,18 11,18 Z" id="Color" fill="#FFFFFF"></path>
                            </g>
                        </g>
                    </g>
                </g>
            </g>
        </g>
    </g>
</svg>