<?xml version="1.0" encoding="UTF-8"?>
<svg width="300px" height="66px" viewBox="0 0 300 66" version="1.1" xmlns="http://www.w3.org/2000/svg" xmlns:xlink="http://www.w3.org/1999/xlink">
    <!-- Generator: sketchtool 52.5 (67469) - http://www.bohemiancoding.com/sketch -->
    <title>CB5C07E5-ED55-40F9-B5F9-7A5655A791E7</title>
    <desc>Created with sketchtool.</desc>
    <defs>
        <rect id="path-1" x="0" y="0" width="300" height="66"></rect>
        <rect id="path-3" x="0" y="0" width="77" height="56"></rect>
    </defs>
    <g id="Symbols" stroke="none" stroke-width="1" fill="none" fill-rule="evenodd">
        <g id="YourSeath-Logo-with-tagline">
            <mask id="mask-2" fill="white">
                <use xlink:href="#path-1"></use>
            </mask>
            <g id="Background"></g>
            <g id="Group" mask="url(#mask-2)">
                <g transform="translate(0.000000, 4.000000)" id="logo/green">
                    <g>
                        <g id="logo/logogram">
                            <mask id="mask-4" fill="white">
                                <use xlink:href="#path-3"></use>
                            </mask>
                            <g id="Background"></g>
                            <g id="noun_analytics_1313244_000000-copy" stroke-width="1" fill-rule="evenodd" mask="url(#mask-4)" fill="#39CB76">
                                <g transform="translate(15.000000, 16.000000)" fill-rule="nonzero" id="Shape">
                                    <path d="M28.6439718,16.6547852 C28.3934428,16.6547852 28.1429138,16.5571289 27.9516703,16.3618164 L20.1733194,8.4174805 C19.7908325,8.0268555 19.7908325,7.394043 20.1733194,7.003418 C20.5558064,6.612793 21.1754353,6.612793 21.5579223,7.003418 L29.3362732,14.9477539 C29.7187602,15.3383789 29.7187602,15.9711914 29.3362732,16.3618164 C29.1450297,16.5571289 28.8945007,16.6547852 28.6439718,16.6547852 Z"></path>
                                    <path d="M32.2393494,16.6547852 C31.9888204,16.6547852 31.7382914,16.5571289 31.5470479,16.3618164 C31.1645609,15.9711914 31.1645609,15.3383789 31.5470479,14.9477539 L40.5010681,5.8032226 C40.8835551,5.4125976 41.503184,5.4125976 41.885671,5.8032226 C42.268158,6.1938476 42.268158,6.8266601 41.885671,7.2172851 L32.9316508,16.3618164 C32.7404073,16.5571289 32.4898783,16.6547852 32.2393494,16.6547852 Z"></path>
                                    <path d="M5.49012248,19.090332 C5.23911536,19.090332 4.98858646,18.9926757 4.79734297,18.7973632 C4.41533412,18.4067382 4.41533412,17.7729491 4.79829923,17.3833007 L14.973409,7.003418 C15.3554179,6.612793 15.976003,6.612793 16.3580119,7.003418 C16.7400207,7.394043 16.7400207,8.0278321 16.3570556,8.4174805 L6.18194584,18.7973633 C5.99118038,18.9926758 5.74065148,19.090332 5.49012248,19.090332 Z"></path>
                                    <path d="M18.2651876,9.8071289 C17.0187582,9.8071289 15.8497823,9.3139648 14.9724528,8.4174805 C14.1080322,7.534668 13.6117554,6.3090821 13.6117554,5.0551758 C13.6117554,2.434082 15.699178,0.3022461 18.2651876,0.3022461 C20.8311971,0.3022461 22.9190979,2.434082 22.9190979,5.0551758 C22.9190979,6.2944336 22.4252116,7.5180664 21.5636597,8.4116211 C20.681071,9.3139648 19.511617,9.8071289 18.2651876,9.8071289 Z"></path>
                                    <path d="M30.4416606,21.0883789 C28.4991049,21.0883789 26.9184774,19.4741211 26.9184774,17.4907226 C26.9184774,16.5307617 27.2856649,15.6274413 27.9521485,14.9477538 C29.2812908,13.5864257 31.5977275,13.5864257 32.9316509,14.9477538 C33.5976563,15.6264647 33.9643657,16.5297851 33.9643657,17.4907226 C33.9643656,19.4741211 32.3842163,21.0883789 30.4416606,21.0883789 Z"></path>
                                    <path d="M3.62454228,23.6977539 C1.62604774,23.6977539 0,22.0366211 0,19.9956055 C0,17.9545899 1.62604774,16.2944336 3.62454228,16.2944336 C4.60227466,16.2944336 5.51354983,16.684082 6.19055183,17.3911133 C6.86755383,18.0668946 7.24908456,18.9975586 7.24908456,19.9956055 C7.24908446,22.0366211 5.62303672,23.6977539 3.62454228,23.6977539 Z"></path>
                                    <path d="M43.1942546,8.3530273 C42.1902263,8.3530273 41.2363994,7.9526367 40.5082398,7.2250976 C39.7939453,6.4956054 39.3885091,5.4926757 39.3885091,4.4663085 C39.3885091,2.3227538 41.0958353,0.5795897 43.1942546,0.5795897 C45.2926739,0.5795897 47,2.3227539 47,4.4663086 C47,6.6098633 45.2926738,8.3530273 43.1942546,8.3530273 Z"></path>
                                </g>
                            </g>
                        </g>
                        <text id="LOGO-Copy-4" font-family="Roboto-Black, Roboto" font-size="32" font-weight="700" fill="#FFFFFF">
                            <tspan x="80.3652968" y="34">YourSeat</tspan>
                        </text>
                    </g>
                </g>
            </g>
            <text id="Family-First-Complia" mask="url(#mask-2)" font-family="Roboto-Regular, Roboto" font-size="14" font-weight="normal" fill="#FFFFFF" fill-opacity="0.601505888">
                <tspan x="84" y="58">Family First Compliance Services</tspan>
            </text>
        </g>
    </g>
</svg>