<?xml version="1.0" encoding="UTF-8"?>
<svg width="307px" height="304px" viewBox="0 0 307 304" version="1.1" xmlns="http://www.w3.org/2000/svg" xmlns:xlink="http://www.w3.org/1999/xlink">
    <!-- Generator: sketchtool 52.6 (67491) - http://www.bohemiancoding.com/sketch -->
    <title>FD58F6FB-BC3B-4982-94E6-65FF9F1393DD</title>
    <desc>Created with sketchtool.</desc>
    <defs>
        <path d="M24.3089805,5.28033484 C24.5133674,4.73451823 25.9063636,3.0434544 23.4254722,1.43237403 C22.9796492,1.14285849 22.2431481,1.4314245 21.6050134,1.2486915 C21.1248741,1.11120128 20.9630051,0.490379327 20.41262,0.382073236 C19.8416442,0.26971525 19.2195986,0.778957052 18.5742689,0.734205468 C18.1788495,0.706784376 17.5687388,0.135664435 17.1570874,0.104901656 C16.4222199,0.0499848833 15.754635,0.692859347 15.0369373,0.734205468 C14.620867,0.758175021 14.1381376,0.137725066 13.7251961,0.104901656 C12.7201575,0.0250143235 11.8048154,0.459263065 10.9191626,0.590955996 C10.1029063,0.712329964 9.72335269,2.26263997 9.12209502,2.62903881 C7.23532622,3.77881194 5.75705205,4.10029621 4.22600457,5.28033484 C2.40597789,6.6831466 2.05763738,7.72681352 1.3036461,8.66159445 C0.549654813,9.59637539 0.0839161573,12.8898616 0.523620601,15.0005886 C0.782992641,16.2456602 1.45891497,19.6459794 2.96888579,20.9624706 C5.03563096,22.764394 9.24027766,23.2982816 9.61353396,23.0578651 C11.3421894,21.944428 15.2171905,15.7860025 17.9654874,13.6094941 C19.9864451,12.0090004 23.0428317,8.66159445 24.3089805,5.28033484 Z" id="path-1"></path>
    </defs>
    <g id="MVP" stroke="none" stroke-width="1" fill="none" fill-rule="evenodd">
        <g id="1.1-Summary---Zero-State" transform="translate(-555.000000, -352.000000)">
            <g id="Illustration" transform="translate(444.000000, 352.000000)">
                <g id="Zero-State-Illustration" transform="translate(79.000000, 0.000000)">
                    <g id="Plant-Left-Copy" opacity="0.5" transform="translate(256.000000, 148.000000)">
                        <path d="M52.6049337,32.6301516 C53.8453082,30.8757346 56.1470883,26.4200912 57.8928921,25.7931853 C59.0173512,25.3893999 58.6894993,29.56625 58.7033856,30.3626837 C58.7574633,33.4439601 58.4550612,36.5056988 58.0816189,39.5611051 C57.4088257,45.071518 55.2088508,49.9789594 52.1914221,54.6688877 C50.6387173,57.0821412 48.8175177,59.5246564 46.2950711,61.030411 C45.1339865,61.7238414 43.7369101,61.8399446 42.5902661,62.4373913 C41.2548318,63.1328974 41.9821067,62.5706538 41.380272,63.9510661 C40.544497,65.867584 40.2771686,68.3400965 39.8904686,70.3850893 C38.1149322,79.7727175 33.8163917,129.398168 34.5615938,138.94718 C34.6277797,139.793563 33.438052,139.995962 33.3786601,138.962706 C33.0629819,133.484093 35.7946169,95.5447822 37.1727731,83.1375366 C38.5509293,70.7302911 39.9455604,59.7691102 41.3439544,55.4765917 C43.0404148,50.2688544 46.1043193,44.0061483 48.6548058,39.1497078 C49.8394876,36.8935153 51.1308142,34.7150472 52.6049337,32.6301516 Z" id="Leaf" fill="#39CB76"></path>
                        <path d="M61.8114258,93.4822286 C65.0390501,91.1316681 68.532711,95.5678767 65.6120435,97.9187985 C63.9974293,99.2182455 62.3094444,98.7559967 61.3591549,97.6730988 C60.7422655,98.419015 60.1648778,99.1989427 59.6100833,99.8577106 C57.9197661,101.865101 56.3221608,103.920404 54.7953133,106.023631 C51.6235234,110.393032 48.9053567,115.009211 46.06332,119.540979 C43.2586014,124.013588 40.4763096,128.509105 37.9341504,133.095031 C35.7805807,136.980423 32.9101459,141.551274 32.1728307,145.810811 C33.2915334,136.777071 37.536503,128.094047 42.5915214,120.130113 C47.6054069,112.231603 53.359423,103.605552 61.1227779,97.3722202 C60.3326584,96.2196295 60.3107246,94.574394 61.8114258,93.4822286 Z" id="Leaf" fill="#39CB76"></path>
                        <path d="M0.564705968,71.4504501 C2.37088397,71.8008422 5.32215847,75.85388 6.81098774,77.398119 C8.58036127,79.2332304 10.1856222,81.189198 11.6987695,83.2385654 C14.9562658,87.6497438 17.8695238,92.3397423 20.346784,97.2305894 C24.3853667,105.203649 27.6207967,113.38827 29.9688867,122.070485 C31.4062377,127.385183 32.3368629,132.893661 32.8884016,138.363671 C32.992562,139.395282 34.0828934,147.348808 32.5117926,147.563178 C31.0987532,147.756204 31.5351883,141.523902 31.4670194,140.676155 C30.6964437,131.111988 28.3880172,121.806133 25.1770173,112.791427 C24.4776154,110.827658 23.8278464,108.422392 22.7093379,106.65519 C21.903855,105.382303 22.7035615,105.8262 21.2880313,105.344473 C20.0725731,104.930587 18.6877314,105.031723 17.4430746,104.525091 C14.7391808,103.425149 12.5741376,101.289832 10.6763289,99.1419554 C6.98822158,94.9677448 4.0655841,90.451902 2.54213666,85.1032673 C1.69703334,82.1376242 0.920426532,79.1547305 0.489457438,76.0973834 C0.377973238,75.307149 -0.59863965,71.2247652 0.564705968,71.4504501 Z" id="Leaf" fill="#39CB76"></path>
                        <path d="M7.69236531,4.01595528 C14.4958638,15.7201655 20.0867001,28.5769336 23.6967435,41.5988953 C25.8839989,49.4887608 27.4136122,57.5849222 28.9334049,65.6225999 C31.2865297,78.0679416 33.5123158,90.5123232 34.1454466,103.178731 C34.7824168,115.918545 36.0419823,130.612423 31.8365905,142.882883 C33.9372048,130.425032 31.9372774,117.164619 31.5831714,104.629452 C31.4139527,98.6453658 30.9235882,92.7197846 30.2803217,86.7706667 C29.6560956,80.9997025 28.6362868,75.2562185 27.686615,69.5306141 C27.2240122,66.7421413 26.7381751,63.957864 26.2435255,61.1751097 C26.0958556,60.3448716 26.0334767,57.8812652 25.5025583,57.3140929 C24.9682014,56.7431862 22.2418419,56.5104469 21.3858913,56.0915497 C19.6623008,55.2478393 18.0410313,54.0494099 16.6061656,52.7831158 C13.8555094,50.3556619 11.462577,47.1838985 9.57388324,44.0572611 C5.20393579,36.8227138 3.45683293,27.9939318 3.54513858,19.6154056 C3.56210537,17.9886744 6.19943824,0.471382142 5.14024294,0.230154537 C5.20401548,0.15606716 5.26433942,0.0795697149 5.32121984,0 C6.12312145,1.33185132 6.91001925,2.67272843 7.69236531,4.01595528 Z" id="Leaf" fill="#39CB76"></path>
                        <path d="M81.1245784,46.2282599 C81.2295539,46.0780621 81.9127786,45.0334817 81.5687281,45.1002401 C82.2692274,44.9643177 80.6052355,46.2523011 82.3506401,45.4620004 C81.5219099,46.2383963 82.0001967,47.2469468 82.0112581,48.2918906 C82.0293044,49.9884151 81.7431523,51.6710278 81.4210392,53.3311515 C80.9120502,55.9553003 80.1537938,58.5067398 79.0531985,60.9475135 C76.6544167,66.2665144 72.5811624,71.3870247 67.7454525,74.7124253 C65.3581963,76.3543091 63.018579,76.9133099 60.2959118,77.6691713 C58.57616,78.1466984 58.439781,79.0291548 57.5269326,80.6845769 C55.6264507,84.1324671 53.7598145,87.567955 52.0837582,91.1321774 C50.0824358,95.3882341 48.1396344,99.6489818 46.3070089,103.979961 C40.133222,118.568633 35.1083322,133.682716 32.4694135,149.324324 C32.4048017,140.106772 34.5543977,130.613482 37.2659051,121.827622 C39.2410752,115.426444 41.8123756,109.255902 44.5549186,103.147826 C45.2194923,101.668073 46.2265934,99.7646085 46.5088163,98.130897 C46.7064288,96.9862377 46.1022689,95.8854112 45.8256511,94.6796012 C44.7472418,89.9839538 44.8244271,84.7233154 45.7714308,80.0025608 C46.815575,74.797033 49.8351917,72.3809709 54.9432634,71.6436415 C56.8113874,71.3739339 59.1858212,71.4727835 60.8987989,70.682648 C62.7650625,69.8222163 63.5349244,66.9939883 64.5961501,65.1784881 C67.4465665,60.3016714 70.8332738,55.6245062 74.7221491,51.5153835 C75.7989418,50.3775152 76.9569321,49.3277544 78.1854304,48.354755 C78.9601206,47.7408465 80.5966318,46.9845121 81.1245784,46.2282599 Z" id="Leaf" fill="#39CB76"></path>
                        <path d="M23.8390026,139.369369 L41.9824768,139.369369 C42.7929228,139.369369 43.4499191,140.026366 43.4499191,140.836812 C43.4499191,140.909037 43.444587,140.981163 43.4339661,141.052603 L42.0344321,150.466369 C41.6067421,153.343164 39.1368889,155.472973 36.228475,155.472973 L29.5930044,155.472973 C26.6845904,155.472973 24.2147372,153.343164 23.7870473,150.466369 L22.3875133,141.052603 C22.2683351,140.250968 22.8215759,139.504501 23.6232113,139.385322 C23.6946511,139.374702 23.7667776,139.369369 23.8390026,139.369369 Z" id="Base" fill="#FDA803"></path>
                    </g>
                    <g id="noun_analytics_1313244_000000-copy-2" opacity="0.5" transform="translate(32.000000, 0.000000)" fill="#39CB76" fill-rule="nonzero">
                        <path d="M126.675718,75 C125.56931,75 124.462902,74.5580868 123.618316,73.6742608 L89.2668794,37.7246391 C87.5777069,35.9569871 87.5777069,33.0933909 89.2668794,31.325739 C90.956052,29.558087 93.6925116,29.558087 95.3816842,31.325739 L129.733121,67.2753607 C131.422293,69.0430126 131.422293,71.9066088 129.733121,73.6742608 C128.888534,74.5580868 127.782126,75 126.675718,75 Z" id="Shape"></path>
                        <path d="M142.307045,75 C141.205047,75 140.103049,74.5531018 139.26183,73.6593058 C137.57939,71.8717138 137.57939,68.9758148 139.26183,67.1882228 L178.647739,25.340694 C180.330179,23.553102 183.055731,23.553102 184.73817,25.340694 C186.42061,27.128286 186.42061,30.024185 184.73817,31.811777 L145.352261,73.6593058 C144.511041,74.5531018 143.409043,75 142.307045,75 Z" id="Shape"></path>
                        <path d="M23.3577904,86 C22.240681,86 21.1256998,85.5582549 20.2745689,84.6747651 C18.5744351,82.9077855 18.5744351,80.040861 20.2788247,78.278299 L65.5632434,31.3252347 C67.2633773,29.5582551 70.0252972,29.5582551 71.7254311,31.3252347 C73.4255649,33.0922143 73.4255649,35.9591388 71.7211753,37.7217008 L26.4367566,84.6747655 C25.5877531,85.5582553 24.472772,86 23.3577904,86 Z" id="Shape"></path>
                        <path d="M80.4989469,43 C75.0082705,43 69.8587865,40.7689303 65.994041,36.7132438 C62.186161,32.7194084 60,27.1748693 60,21.5022091 C60,9.64440547 69.1953561,0 80.4989469,0 C91.8025377,0 101,9.64440547 101,21.5022091 C101,27.1085996 98.8243696,32.6443029 95.0291264,36.6867359 C91.1412135,40.7689303 85.9896233,43 80.4989469,43 Z" id="Shape"></path>
                        <path d="M133.501052,95 C124.954333,95 118,87.5616692 118,78.4223767 C118,73.9989775 119.615526,69.8365717 122.547873,66.7046429 C128.395739,60.4317857 138.587433,60.4317857 144.456334,66.7046429 C147.386578,69.8320717 149,73.9944774 149,78.4223767 C149,87.5616692 142.047771,95 133.501052,95 Z" id="Shape"></path>
                        <path d="M16,107 C7.17794464,107 0,99.3711912 0,89.9977577 C0,80.6243242 7.17794464,73 16,73 C20.3160534,73 24.3387414,74.7894735 27.3272655,78.0365388 C30.3157897,81.1400874 32,85.4141934 32,89.9977577 C31.9999996,99.3711912 24.8220549,107 16,107 Z" id="Shape"></path>
                        <path d="M190.5,37 C186.146985,37 182.011621,35.1972363 178.854648,31.9214824 C175.757789,28.6369347 174,24.1212312 174,19.5 C174,9.84861816 181.402198,2 190.5,2 C199.597802,2 207,9.84861861 207,19.5000005 C207,29.1513823 199.597802,37 190.5,37 Z" id="Shape"></path>
                    </g>
                    <g id="Maceta" transform="translate(250.000000, 274.000000)" fill="#F2F2F2">
                        <path d="M5.13924051,16.1518987 C5.13924051,23.2477091 5.69920157,29 13.2151899,29 C20.7311782,29 21.2911392,23.2477091 21.2911392,16.1518987" id="Base"></path>
                        <path d="M15.451139,11.7247222 C15.1756396,12.2010683 14.9299876,12.6869414 14.7130048,13.1801085 C14.7053465,12.1644492 14.7615068,11.141347 14.9148675,10.1042521 C15.1770141,8.32777861 15.5774014,6.56053436 15.9536358,4.79611841 C16.2240298,3.52814448 16.2069461,1.2506144 17.2331471,0.240165112 C17.5145374,0.021790169 17.5822832,0.450203997 17.5822832,0.636127857 C17.5858178,0.675426415 17.5814977,-0.122751119 17.3083547,0.0162824166 C15.6848128,0.854800516 15.1587522,3.49137651 14.6389753,4.81145081 C13.8806155,6.73827102 13.2353617,8.70796239 12.9696805,10.7126354 C12.9025238,11.2190509 12.866,11.7253176 12.8575564,12.2306911 C12.8023779,12.0955279 12.7505377,11.9593227 12.6931993,11.824606 C11.7561477,9.62686391 10.4915602,7.48241304 8.91436034,5.50468333 C8.52614767,5.01806595 3.64472195,0.216496662 3.26259658,0.951409472 C3.30029857,1.05814078 3.37923711,1.1467114 3.49960856,1.21712131 C3.50667769,1.22515966 3.50687405,1.22069391 3.5027504,1.20878526 C3.7894426,1.67188304 4.60455175,2.38714657 4.85845108,2.79293395 C5.49742124,3.81410103 5.99402712,4.89778855 6.49868395,5.96078477 C7.56494332,8.20720349 8.55403144,10.4762487 9.51287941,12.7500573 C9.73614588,13.2796947 9.96883784,13.8063549 10.2062425,14.3313777 C7.75895147,10.8015038 4.49419488,7.59688498 -1.42108547e-14,5.76235683 C1.53498149,6.54326681 2.54134968,8.012497 3.57795801,9.13741823 C4.82821094,10.4942605 6.14503144,11.8146325 7.39764075,13.1699862 C8.87508743,14.7688718 10.6135026,16.4526067 12.0345926,18.2219349 C13.411108,21.1118675 14.7487431,24.0049262 15.5744559,27.0428238 C15.2361199,25.9932248 15.5479467,24.5427508 15.4900192,23.4412003 C15.4440699,22.5644256 15.3415676,21.6947961 15.201167,20.8268041 C15.3747532,21.2183011 15.524383,21.6100958 15.5921287,21.9745007 C15.5302739,21.363289 15.4589936,20.7559476 15.3824114,20.1517323 C15.5789723,19.5860712 15.7719986,19.0582202 15.9023847,18.6234054 C16.5706132,16.3929145 17.3662822,14.200829 18.4498217,12.0642677 C19.4524589,10.0878777 20.602566,8.13664472 21.8557644,6.24495503 C22.4403415,5.36297034 23.0329697,4.48426054 23.6218669,3.60406215 C24.0073305,3.02783215 24.3743358,2.10520919 24.911,1.55309421 C21.4420243,4.72466649 17.6519926,7.91916292 15.451139,11.7247222" id="Fill-27"></path>
                    </g>
                    <g id="Web" transform="translate(112.000000, 82.000000)">
                        <rect id="Container" fill="#F2F2F2" x="0" y="0" width="185" height="168" rx="3.87252925"></rect>
                        <path d="M3.87252925,0 L181.127471,-4.4408921e-16 C183.26621,-8.36969162e-16 185,1.7337904 185,3.87252925 L185,13 L0,13 L4.4408921e-16,3.87252925 C1.82169242e-16,1.7337904 1.7337904,8.36969162e-16 3.87252925,4.4408921e-16 Z" id="Header" fill="#C5CFD6"></path>
                        <g id="Buttons" transform="translate(4.000000, 5.000000)" fill="#F2F2F2">
                            <circle id="buttons" cx="1.93626462" cy="1.93626462" r="1.93626462"></circle>
                            <circle id="buttons" cx="7.74505849" cy="1.93626462" r="1.93626462"></circle>
                            <circle id="buttons" cx="13.5538524" cy="1.93626462" r="1.93626462"></circle>
                        </g>
                    </g>
                    <g id="A-Human/Standing" transform="translate(0.000000, 117.000000)">
                        <g id="Head/Front/Turban2" transform="translate(38.871520, 0.000000)">
                            <g id="Head" transform="translate(25.529903, 13.583367)" fill="#B28B67">
                                <path d="M3.90620466,15.112647 C1.7276957,12.7426777 0.253235266,9.83824757 0.49961847,6.58375024 C1.20951709,-2.79336275 15.2936084,-0.730517369 18.0332557,4.00224403 C20.7729031,8.73500542 20.4473617,20.7400472 16.9066116,21.5859237 C15.4945654,21.923258 12.486487,21.0969239 9.42496509,19.3866663 L11.3466236,31.9866389 L0,31.9866389 L3.90620466,15.112647 Z"></path>
                            </g>
                            <g id="Turban" transform="translate(18.911039, 9.639809)">
                                <mask id="mask-2" fill="white">
                                    <use xlink:href="#path-1"></use>
                                </mask>
                                <use id="Path" fill="#FF9B21" xlink:href="#path-1"></use>
                                <path d="M10.3800601,18.3340866 C11.6213921,15.7862095 13.2175873,12.5167096 14.6613541,9.1629538 C15.6966592,6.75802235 16.7980369,3.67839988 17.9654874,-0.0759136304 L19.3705645,-0.0759136304 C17.1570517,5.7707651 15.4920468,9.85370194 14.3755497,12.1728969 C12.579587,15.9034824 11.289147,18.7365976 10.261076,20.6380738 C11.9833933,18.2981597 14.632289,14.4812936 17.4561389,9.34858201 C18.5267947,7.40252677 19.7872327,4.42283664 21.2374527,0.409511627 L22.5451816,0.928007622 C20.3495935,6.007659 18.6532459,9.54997223 17.4561389,11.5549473 C13.5541032,18.0902729 9.82816566,22.0334328 8.52581728,23.1525408 C8.30047534,23.3461771 8.22514072,23.391268 8.27916368,23.2922395 C8.26126124,23.2896451 8.24812374,23.2796657 8.23956804,23.2625314 C8.14794493,23.3909193 8.05678758,23.5034684 7.96557322,23.6001563 C6.65225188,24.992287 10.0127838,17.2318541 12.4897093,9.09280754 C13.2481071,6.60075234 13.9961218,3.43130114 14.7337535,-0.415546035 L16.1311335,-0.551667021 C14.5891534,5.47742356 13.3937561,9.6992959 12.5449414,12.11395 C11.6842807,14.5623028 10.9831642,16.6365521 10.3800601,18.3340866 Z" id="Shade" fill-opacity="0.2" fill="#000000" mask="url(#mask-2)"></path>
                            </g>
                        </g>
                        <g id="Bottom/Standing/Skinny-Jeans" transform="translate(0.000000, 82.135223)">
                            <polygon id="Leg" fill="#191847" points="60.3591796 9.9475983e-14 77.4554279 55.5802551 89.9290273 96.5458993 99.0267791 96.5458993 85.7717967 9.9475983e-14"></polygon>
                            <path d="M55.7871331,0 C55.3916985,28.646708 54.043274,44.271401 53.6280839,46.8740789 C53.2128938,49.4767569 46.9350019,66.0340304 34.7944081,96.5458993 L44.2190627,96.5458993 C59.6749674,67.2749745 68.3028489,50.7177011 70.102707,46.8740789 C71.9025652,43.0304568 77.4571031,27.4057638 85.8232085,0 L55.7871331,0 Z" id="Leg" fill="#2F3676"></path>
                            <g id="Accessories/Shoe/Flat-Pointy" transform="translate(33.952039, 86.934995)" fill="#191847">
                                <path d="M0,17.5813569 L0.477141102,8.35114451 L10.4971042,8.35114451 C15.248286,11.427882 21.4511204,13.9185742 29.1056072,15.8232212 L29.1056072,17.5813569 L10.9742453,17.5813569 L4.77141102,16.702289 L4.77141102,17.5813569 L0,17.5813569 Z" id="Shoe"></path>
                            </g>
                            <g id="Accessories/Shoe/Flat-Pointy" transform="translate(88.652545, 86.934995)" fill="#191847">
                                <path d="M0,17.5813569 L0.477141102,8.35114451 L10.4971042,8.35114451 C15.248286,11.427882 21.4511204,13.9185742 29.1056072,15.8232212 L29.1056072,17.5813569 L10.9742453,17.5813569 L4.77141102,16.702289 L4.77141102,17.5813569 L0,17.5813569 Z" id="Shoe"></path>
                            </g>
                        </g>
                        <g id="Body/Long-Sleeve-1" transform="translate(46.489814, 36.016515)">
                            <path d="M39.1532378,18.7427111 L55.5816415,10.391525 C58.3087728,7.37478119 60.99762,5.03287167 63.6481831,3.36579644 C64.4586886,3.05219482 65.8771222,2.86403005 64.5565642,5.05211819 C63.2360062,7.24020633 61.9530703,9.59743809 62.6311354,10.2734692 C63.3092004,10.9495003 64.9922567,10.0097902 65.8021125,11.1324585 C66.3420164,11.8809041 63.4653778,13.0566079 57.1721969,14.6595698 L45.2470493,24.8182435 L39.1532378,18.7427111 Z M64.9102727,25.8000526 L72.137779,22.1212585 C73.1519004,18.5458306 74.364159,16.7469119 75.7745549,16.7245025 C76.8580321,16.2573984 74.971164,20.7752854 77.0250942,20.3834951 C79.0790245,19.9917047 84.0920813,16.5371536 84.9558559,17.238558 C86.2337548,18.2762406 85.0943016,21.4625276 83.7517551,23.0475347 C81.2425372,26.0099111 79.165013,27.0229545 74.0300894,28.3495408 C71.3452862,29.0431486 68.4425392,30.4334258 65.3218482,32.5203723 L64.9102727,25.8000526 Z" id="Skin" fill="#997659"></path>
                            <path d="M31.6413367,15.1403284 C37.3414981,15.9826191 45.1082976,16.0668054 53.9650057,12.5838687 L56.0982554,19.6539792 C49.6941966,23.9066602 41.1677847,26.885652 34.3288124,25.6234843 C28.9393254,24.6288266 27.1397519,18.129652 31.6413367,15.1403284 Z" id="Sleeve" fill="#2026A2" transform="translate(42.593564, 19.249850) rotate(-9.000000) translate(-42.593564, -19.249850) "></path>
                            <path d="M38.8873392,27.5663528 C45.0057117,28.9801637 55.265844,27.3128899 69.6677359,22.5645314 C73.2400002,29.4121046 74.8913685,34.293899 74.6218406,37.2099149 C62.2671408,43.1895321 51.6780963,45.8555384 42.9541378,46.0315361 C43.2313698,50.8278103 42.6013,55.3915758 40.4847053,59.5616378 C36.1333457,68.1345781 10.6537176,60.1950795 2.08668577,61.7577668 C-3.27824143,45.6141783 7.09500765,39.0534892 7.10335411,28.7238803 C7.11249438,17.4118579 16.9155175,9.9475983e-14 18.357836,9.9475983e-14 L31.510986,2.12477928e-13 C32.2367224,8.63914055 35.8895549,18.160222 38.8873392,27.5663528 Z" id="Clothes" fill="#1F28CF"></path>
                        </g>
                    </g>
                    <path d="M196.48378,180.005384 C196.510174,176.336658 197.170007,173.578557 198.463299,171.730997 C199.756591,169.883437 202.118793,167.758775 205.549976,165.356947 C207.318354,164.248411 208.710602,162.875958 209.72676,161.239548 C210.742918,159.603138 211.250989,157.716016 211.250989,155.578125 C211.250989,153.361053 210.657139,151.592701 209.469422,150.273015 C208.281705,148.95333 206.592533,148.293497 204.401855,148.293497 C202.633476,148.293497 201.15545,148.83456 199.967733,149.916702 C198.780016,150.998844 198.159773,152.608836 198.106986,154.746727 L185.081753,154.746727 L185.002573,154.509185 C184.923392,149.019293 186.671949,144.895337 190.248297,142.137194 C193.824645,139.379051 198.542451,138 204.401855,138 C210.683559,138 215.625707,139.583599 219.228449,142.750845 C222.831191,145.91809 224.632535,150.193808 224.632535,155.578125 C224.632535,158.877339 223.649384,161.912571 221.683052,164.68391 C219.71672,167.45525 217.215954,169.632699 214.180677,171.216322 C212.491479,172.324858 211.349968,173.519155 210.756109,174.79925 C210.162251,176.079346 209.865326,177.814706 209.865326,180.005384 L196.48378,180.005384 Z M209.825736,196.474979 L196.523371,196.474979 L196.523371,185.785579 L209.825736,185.785579 L209.825736,196.474979 Z" id="?" fill="#696C74" opacity="0.0971679688"></path>
                </g>
            </g>
        </g>
    </g>
</svg>